<svg id="Layer_1" data-name="Layer 1" xmlns="http://www.w3.org/2000/svg" xmlns:xlink="http://www.w3.org/1999/xlink" viewBox="0 0 1440 956"><defs><style>.cls-1{fill:none;}.cls-2{clip-path:url(#clip-path);}</style><clipPath id="clip-path"><rect class="cls-1" width="1440" height="956"/></clipPath></defs><title>Phong-ngu-04</title><g class="cls-2"><polygon points="-0.01 723.75 54.22 723.76 54.3 -0.02 0 0 -0.01 723.75"/><path d="M438.12,0l.59,681.56a73.83,73.83,0,0,0,4.48-8.25A62,62,0,0,1,451.8,660c3.42-4,5.14-8.15,8.89-11.48s8.82-7.24,11.07-10.41,5.83-10.08,11.49-14.33,8.08-5.41,16.25-8.66a127.9,127.9,0,0,0,22.25-12.25c3.67-2.67,6.75-5.58,8.58-8.92s8.17-11.58,12.75-14.5S553,573.75,564,572c3.67-.92,13.67-2.58,13.67-2.58a25.44,25.44,0,0,1,.33-6.67c.25-5-.25-7.25,1.75-9.58a38.06,38.06,0,0,1,5.46-4.83l-.21-.58V546a18.81,18.81,0,0,0-4.33-.75,20.51,20.51,0,0,1-5.08.17c-.17.33-.33-2.17,0-3s5-9.58,5-9.58l-6.17-3.58a17,17,0,0,1,3.92-3.17c1.67-.75,2.42-.5,4.08-2.5s5.25-6.17,6.42-7.33,5.42-4.83,5.42-4.83-.33-4.33,7.08-6.08,11.33-.5,11.33-.5a103.55,103.55,0,0,1,34.58-4.08c2-3.25,8.67-6.75,11.33-6.83s6.58,4.33,8.92,4,15.25-1.83,41.17-.17c0,0,.08-6.92-.25-9.58-1-3-2-4.08-2.08-11.92a54.39,54.39,0,0,0-1.67-8.75c-1.08-3.58-2.33-8.92-3.08-11.5a56.11,56.11,0,0,1-1.25-7.33s-5.08-7.17-5.67-10.33c-1-4.58-1.58-7.17-1.58-7.17a42,42,0,0,1-3.08-6.92,39.55,39.55,0,0,1-3.58-5.17,7.32,7.32,0,0,0,5.17,1.17c3.08,0,6.83.42,6.83.42s5.42-3.33,14.42-2.42,49.25,4.17,61,5,33.75,3.33,47.42.25c0,0-1.25-1.33-.92-2.33a10.67,10.67,0,0,0,.5-2.92c.08-1.17,2.33-.83,2.33-.83s1.42-1.5,4.92.25,7.58,3.5,7.58,3.5,6.25-.5,17.5,2.08a35.42,35.42,0,0,1,7.42-.5l33.5-9.25s-.75-4-1.42-8.17c-1.17-4.25-3-8.58-3-10.08s-1.08-3.42-3-6.75l1.67-1.75a2.86,2.86,0,0,0,1.92,2.42c1.83,1,9.67,3.33,16.42,6.17s21,9.83,21,9.83,11.83-3.83,35.67,6.08c0,0,7.08-.25,22.75,1.92,15.58,1.83,24.08,2.17,28.42,5.67,0,0,1.5-3.58,16.42-3.58,15-1.08,19.17-1.17,23.25-2.83a25.55,25.55,0,0,1,12.67-1.42s9.08.75,10.42.42,7.17-2.42,9.75-2.75,6,.17,9.83-1.08a113.71,113.71,0,0,1,13-5.17s2.33-3,3.67-2.58c.58,1.5-.92,3-1,4.17s0,2.83-2.67,10.58c-2.08,8.25-5.75,20.58-6.67,26.75-1.25,6.08-1.42,9.42-4.5,13.67-.25.75-.83,1.92-.58,6.08s.92,13.67.08,18.58c0,4.83-.83,23.08-.83,23.08s10.5.83,11.83,2,7,7.5,7,7.5,13.83,7.25,15.75,8.58,13,6.83,13.5,7.25,1.83,1.67,1.92,2.5a32.08,32.08,0,0,1-3.08,3.58,105,105,0,0,1-12,10.75c-1.58,1.08-6.17,4.58-6.17,4.58s9.58,1.25,15.83,7.83c0,0,6.17,5.17,9.58,10.42,1.25,1.83,3,4.5,3,4.5s3.33,1.75,2.67,3.33c.42,1.25.17,2.75-2.33,3s-7.92,1.17-7.92,1.17,14.5,5.67,29.42,10.58S1233.75,607.25,1266,615c10.25,1.5,22.25,3.25,28.5,10.25,6,7.5,18.25,23.5,27.5,32.25,10.75,10.42,22.75,30.5,26.5,37.5,3.64,6.8,10.25,19.5,18.58,28.5l11.83,0,61-.14L1440,0Z"/></g></svg>