<svg xmlns="http://www.w3.org/2000/svg" viewBox="0 0 1246.65 752.78"><defs><style>.cls-1{fill:#ededed;}</style></defs><title>Solid_1</title><g id="Layer_2" data-name="Layer 2"><g id="Layer_1-2" data-name="Layer 1"><path class="cls-1" d="M4,367.18c3.17,136.47,13.49,338,17.46,385.6H46.06v-113H40.53v-4.23l25.13-7.94h31.2s-18.77-15.07-5.55-33.06c1.32-.26,6.08-5.81,13.49-6.08l1.85-1.85,1.59-1.06-1.59-7.67L104,580.79s-9.52-.53-8.46-7.4c1.32-2.65,1.32-5.56,4.23-5.56-5.29-3.17-10-4.76-7.67-6.87,4-2.65,5.56-4,5.56-4s-10.19-.66-9.19-7c.59-1.39,1-4.16,5.75-3.77C85.69,544,84.9,543,84.9,543a2.74,2.74,0,0,1,1-2c2-1.59,4.56-4.57,6.94-5-7.34-1.39-12.5-2.78-12.3-6.55.6-.79,2.78-4.56,4.76-5.35-4.36-.6-7.14-1.59-6-3,1.19-1.78,4-7.93,12.1-6.15-2-3-1.59-2.18-1.59-2.18s-8.52-1.79-12.89,1a3.86,3.86,0,0,1-.2-2s1-5.36,5.16-6.75a17.56,17.56,0,0,1,6.55.8l-1.59-3-1.59-.39S75,505,74.19,502.38c1.19-1,1.19-5,4.76-5.56-5.16.6-9.13,1-7.15-1.39,1.79-2.38,3.58-6.34,9.53-4.56-1.39-2-9.53-1.78-9.53-1.78s-3.57-1.39-.19-3.77c4-2.38,6.15-1.79,6.15-1.79l-.73-1s-4.5-.92-5.82-.39c-.93-.53-3.44-.93-1.19-3.58a5.07,5.07,0,0,1,6-.39l-1.45-2.12-5.69.13s-4-.92-1.32-2.77,3.44-1.59,4.89-1.06a1.29,1.29,0,0,0-.93-1.85l-.13-1.06-3.83-2.51s1.06-.8,1.72-.4,2-5,4.62-5.16c2.12,0,2.91,1.59,2.91,5.95,1.46-.92,4.76-1.71,3.18,6,1.72-1.19,5.55-2.12,2.11,8.46,2.65-2.91,8.2-6.48,4.1,5.42,3.7-.79,11.11-3.44,3,9,3.44-1.45,6.75-3.44,6.75-2.38-.4,2.38-.93,6.48-6.88,9.92l.66,2.38,1.06-.26.66-.27s4.37-3.83,6-4.5,4.37-.52,1.85,4.37c-3.83,4.63-5.95,5.68-6.34,5.95l-1.19.79,1.19,3.18,1.85,2.38s4.76-2.78,5.55-3.05c1.46-.39,4.5-1.71,4.89-1.58s2,1.06-.52,5.42A41.34,41.34,0,0,1,96.6,525s5.29,2.38.26,4.1l.93,2.91s8.73-7,10.45-7.54c-.93-1.72-1.59-2.64,0-2.51,1.85-.13,9.12,2.91,11.37,5.82l1.85-6.22-1.06-.4-1.45-.52s-3.31,1.32-7.28-6.09c-.66-1.32-.26-2.64.93-3,1.59-.26,8.33,1.06,9.92,3.57.79-4.76,1.19-4,.79-4.76l-.4-.79-1.19.13s-2.38.66-4.36-3.57c-2.12-3.84-4.23-7-2.25-7.67a15,15,0,0,1,10.71,2.64c-.92-2.24-4-3.83-4.1-4.36s-6.08-6.74,2.38-7c-1.72-2.51-2.11-5.29,3.18-6.34-1.19-3-1.46-6.88,2.51-7.41,0-3.44-.4-4.89,3-5.16-.53-2.51-.66-5,2.65-5.55,0-2.65.39-4.89,3.57-5.42,2.91-.13,5.68,3.83,4.49,7.14-1.45,1.06-1.58,1.58-2.77,1.32.52,3.31,0,4.36,0,4.36l-.4.93-.93-.26-1.05-.14s2.38,2,.52,4.1l-.79,1.06a12.79,12.79,0,0,1-2.25.93c-.39,0,.93,3.83.93,3.83s3.57.93,2.64,1.85c-2.51,1.06-.39,1.46-6.21,1.85,2.64,2,2.51,4.1,2.51,4.1l-.66.13,3,.8s-1.06,2.51-2.91,2.64a48,48,0,0,1-5.55-1.32l-.53.93,2.51,2.64s4.89.66,4.89,2.25c-.39.79-2.24,1.45-2.24,1.45s-7.41.27-7,.4l.39,2.64a3.76,3.76,0,0,1,1.86,4c5.42.4,6.34.4,6.34.4a5.08,5.08,0,0,1-2.64,4.76,6.65,6.65,0,0,1-2.38-.13L125,509.25l-1.32,6.61,1.72,1.72,5.81.27s-2.11-4.89,3-4.5c3.43,1.19,4.1,2.25,4.1,2.25L141,518l1.72-4.36s-2.12.26-4-3.44-2.11-8.46.66-9.13a18.57,18.57,0,0,1,5.42,2.52l1.33,1.32.66,1.19,1.19-1.72-.8-1.06-.92-.26a14,14,0,0,1-1.46-1.46c-.52-.66-4.49-3.43-2.24-8.06.79,0,1.58.79,2.91,1.32,1.05.53,4.62,4.23,4.62,4.23l1.19-2.25s-1.58,0-2.91-2.51c-1.85-3.44-4.49-7.67-2.51-7.54,2.25.53,6.61,4.37,7.41,7.14l2.91-3.17a8.52,8.52,0,0,1-3.71-9.65c.67-.8.8-.66,2,.66,1.58,1.45,3.83,4.76,3.7,5.42l1.72-2.51s-.4-1.32-.93-3c-.92-3.84-3.17-5.56-1.85-6.22.93-.26,3.57,1.32,5,5.82l1.58-1.59s-3.3-4.89-2.51-9.52c.66.4,3.31,1.19,4.23,7l2.25-3s-3.44-4.89-.79-9c1.06,4.1,2.11,6.87,2.11,6.87v.66s2.78.67,4.24-.13,1.32,0,1.32,0l-.93,1.06a5.75,5.75,0,0,0-1.85,0,18.71,18.71,0,0,1-2.91,0l-2.11,4.23s4.62.13,5.55,1.85l.13,1.72-1.59-.26-3.3-1.46-2.91.4L163,483.47l1.06,1.06,4.23.39s3.83,1.85,2.12,2.12c-5-.93-7.81-1.46-7.81-1.46l-.79-.39-2.91,4.1s7,1.45,6.75,4c-2.38-.66-5.56-1.32-5.56-1.32l-2.38-.66-3,3.31,1.19,1.71,2.78.4s4.1,1.72,4,3.44c-.92.79-4.49-.27-6.34-1.19a14.14,14.14,0,0,0-2.78-1.85l-1.19.39L151,500.39l1.72,2.25s5.29,2.12,5.42,4.63c-3.18-.79-9-2.51-9-2.51l-.93,1.72s4.36,3.3,1.06,7.67c5,.26,7.4,1.45,6,2.64l-1.85.4-1.59-.93a44.72,44.72,0,0,1-6.88-1.72l-.79.8-1.45,3.3a6.73,6.73,0,0,1,2.91,5.42c.66,2,.66,1.06,1.45,1.85l.79.8-2.51-.13-5.95-2-.79,1.85s5.68,3.18,5,8.33c1.32.67,3.7,3.31-.39,2.65l-1.72-.13-1.06-.27-1.46-.13-3.43-2.64-1.86,4s6.35,4.76,5.43,8.6l.26.39-1.32.67s0,.13-.8.39l-.79.27-1.32-.27-2.38-.39s6.48,4.49,3.57,9.25l.4.53s-.27,0-1.06.53.26-.53-.8.53l-1.05,1.06-2.12.26s5.82,4,.93,8.73l-.66.92-1.72-.26-1.72-1.06h-.8l-3.43.53-.93,4s3.17.66,4.5,1.06c2.24.13,8.06-.14,5,6.08-2,.92-2.64,3.17-8.73,1.59l-1.58.52,4.89,2.12.13,1.32-3-.39-3.44-2.38-.39,3h2.9a8.29,8.29,0,0,0,1.46,2.91c4,.79,21.29,2.51,18,21.68-.92,3.18-3.7,13.49-10.44,17.19h57v3.84L184,634.08v86s5.55-6.62,6.48-7.41c1.71-1.32,10-10.84,11.1-11.37-.53-7.41.4-13,2.65-15.21,3-4.23,7.67-10.31,10.58-12.43,4.36-6.88,6.08-8.2,6.08-8.2s2.25-10,5.42-14.41c3.31-5.29,10.18-14.81,12.83-18.78A80.45,80.45,0,0,1,253.3,618c4.63-4,6.87-5.29,7.27-5.69a5.23,5.23,0,0,0,.79-1.45,10.1,10.1,0,0,1,2.25-5.16c3.44-7.67,3.7-9.12,3.7-9.12v-.66s-3.17-1.72-1.32-7.8c-1.85-5.69-3.83-10.58-5.68-15.74-2.12-4.76-3.18-6.74-2.65-9-2-.4-4.23-.8-2.78-3.44,2.38-2.25,3.18-1.85,13.49-3.31,11.37-2.64,28.56-6.61,31.34-7.67s15.47-1.45,18.78-1.32c5.42-.13,22.35.4,24.46-.13,6.35-.93,15.87-2.65,21.69-2.78,7.8.27,10.05.13,10.05.13s-1.85-6.74-3-11.76-2.12-8.47-2.25-11.38c-.4-3.3-1.32-2.51-1.32-8.46s-.14-7.4-.14-7.4l-.66-2.12.14-2.38-.27-2.38s-1.59-9.39-1.19-12.17c-.79-4-1.59-6.08-1.06-11.5-.13-12.83-2.11-25.26-2.51-28.7-.4-3.83-.92-4.76,0-7.4a60.7,60.7,0,0,0,2.38-7.41s1.85-2.77,3.44-1.72c1.85,1.19,14.94,7.67,18.38,8.07,4.63,0,14.68,1.72,16.13,2.12a26.26,26.26,0,0,0,4.23.13s9.39-.66,16,1.45c5.56-.92,20.77-1.05,35.58,1.19,6.34-.79,19.3-2.51,24.72-2.77,6.88,0,18.12-1.33,24.2-1.85,10.71-1.59,38.48-3.84,44.7-5.16,13.09-2.91,25.39-5.82,42.71-6.61a93.36,93.36,0,0,0,20.63-5.43c3-1.19,8.86-4.23,11.24.8.92,5.29,1.45,7.4.92,10.58a4.41,4.41,0,0,1-.39,4.49c.39,4.23-.27,4.1-1.59,6.48a15.13,15.13,0,0,0-1.61,3.79v1.5a24.47,24.47,0,0,0-1.56,2.12c-1.19,1.72-.66-.4-1.19,1.72s.53-.27-.53,2.11-.53,0-1.06,2.38,0,2.91-2.51,9c-.4,4.77-1.19,13.1-1.46,15.08-1.45,8.46-3.44,14.28-5,16.13s-4,8.47-4,8.47l22.88-2s-.27-4,0-10.44c1.06-10.58,2.25-14.55,3.3-16.53.93-3.05,4.23-7.15,6.61-8.07-2.11-2.38-4.49-3.17-4.62-6.35-1.46-3.83-4-6.08-2.78-23.8.4-9.52.66-10.84,1.32-12.83.4-3.3-.39-7,.8-6.34s2.77,3.7,2.77,3.7l4.1.66a24.67,24.67,0,0,0,5.82,2.38c3.44.93,5.55,2.91,7.93,2.51,4.24.53,9.53.4,10.45.8,2.65-.67,6.48-1.19,8.46-.27,2.91-.79,3.71-.79,5.56-.4a24.68,24.68,0,0,1,7.8.8c1.32.26,8.2,1.32,12.17,2.51,6.34,1.59,17.71,3.44,29.48,5.16s49.46,5.15,61,5c14.15.27,35.57.13,53.69,1.85,14.28.93,15.74,1.46,20.1,0s14.55-4.49,17.59-4.23,12-.79,9.65,6.61c-.92,3.84-1.85,6.75-3.44,7.41a9.43,9.43,0,0,1-1.05,4.76,43.36,43.36,0,0,0-2.39,9.52c-.52,4.36-.39,14.81-1.58,19.17s-4.23,13.23-5.16,17.19.79,10.72-4.89,22c-4.89,12.95-5.56,16.53-5.56,16.53s-.79,2-1.05,2.77l-.93,2.78s47.61,4.23,53.82,5.55a188.5,188.5,0,0,1,23.93,5c7.67,1.32,29.89.79,32.14,1.19s29,2.25,35.83,11.77c4.63,2.51,11.38,5.68,13,17.32C1034.94,604.07,1042,614,1042,614s1.58,3.71-2.78,3.71a96.56,96.56,0,0,1-9.13,3.7s-.13,1.32-5.42,2.51a66.05,66.05,0,0,0-9.78,1.32s10.18,16.27,13.88,25.52,5.82,14.15,5.82,14.15,14.41,15.21,28.17,39.94a65.26,65.26,0,0,1,4.23,8.59l-.66-79.87-5.29-2v-3.83h23.53s-9.38-6-9.52-20.24c.14-1.32-.26-8.19,6.62-16l-2.65,1.19-.79-.13a10.47,10.47,0,0,1,4.49-11.9l-1.05-2.78,1.32-.92,1.58,2.25a12.68,12.68,0,0,0,4.9-4.37c2.25-2.51,4-5.68,11.77-5.16,5.68.27,6.08.93,10.44,5.56a16.58,16.58,0,0,0,5.29,4.63c3.44-6.35,18.91-43.24,18.91-43.24l9.13-.27v-4.1l-38.35-.92s-14.55.13-16.53-.8c-.13-1.58,12.69-74.18,12.69-74.18s.53-1.46,1.46-1.59,88.46.27,88.46.27a1.8,1.8,0,0,1,1.06,1.32c.53,1.72,12.43,73.52,12.43,73.52s1.19,1.46-2.25,1.72-53.42.93-53.42.93v3.7h8.86l28,67.7-23.67,23.94h21.16l24.86,8.2v3.7h-5.55v113h42.45L1243.9,0H0C.06,89.45.67,255.88,4,367.18Z"/><rect class="cls-1" x="54.55" y="692.13" width="13.22" height="60.65"/><polygon class="cls-1" points="54.55 680.5 67.77 675.21 67.77 647.17 54.55 647.17 54.55 680.5"/><path class="cls-1" d="M75.71,671.24h3.83V667l-1.49-1.49,12.6-6.44h61.29s2.78,4.95,0,8.33a3.81,3.81,0,0,1,3.17,3.83h3.18V647.17H75.71Z"/><polygon class="cls-1" points="167.41 671.24 176.73 671.24 176.73 641.82 167.41 645.39 167.41 671.24"/><path class="cls-1" d="M167.41,752.78h1.39s.2-10.2,1.59-14c1.78-4.76,4.36-6.54,4.36-7.34s.4-3.57,2-5V682.88h-9.32Z"/><rect class="cls-1" x="75.71" y="692.13" width="82.58" height="60.65"/><path class="cls-1" d="M1073.88,727.71s8.13,14.08,9.32,17.25V683.08h-9.32Z"/><polygon class="cls-1" points="1073.88 670.98 1083.2 670.98 1083.2 644.99 1073.88 641.22 1073.88 670.98"/><polygon class="cls-1" points="1091.93 752.78 1174.05 752.78 1174.05 692.2 1091.93 691.41 1091.93 752.78"/><rect class="cls-1" x="1182.58" y="692.2" width="13.29" height="60.58"/><polygon class="cls-1" points="1182.58 674.94 1195.87 680.3 1195.87 647.17 1182.58 647.17 1182.58 674.94"/><path class="cls-1" d="M1091.93,665.55l1.59.14.26-1.06.79.13-.39-2.25-.66-1.72,2.11-.13.4-1.06v-4.49l-1.06-2.65h63.34l6,6.62a7.36,7.36,0,0,1-.26,8.06l-1.46.4a3.67,3.67,0,0,1,1.06,3.44h10.45V647.17h-82.12Z"/><path class="cls-1" d="M99.13,533.55s8.58-5,10.4-7.93c1.16,1.65,3.8,7.1,7.43,6.44v5.12l-1,1-.82-1.49s-.33-2.64-3.47-2a62,62,0,0,1-8.92-.16,19.6,19.6,0,0,0,2.15,3.63c-.83.33-5.78-3-5.78-3Z"/><path class="cls-1" d="M105.07,545.77l5.12-4.13s4,4.46,5.78,2.06v8l-3.3-2s.49-2.64-.66-2.15a20.11,20.11,0,0,1-5,.66S107.88,546.43,105.07,545.77Z"/><path class="cls-1" d="M118.45,541.64v10.07a8.59,8.59,0,0,1,9.08-6.44c-.16-2-4.54-3.63-4.54-3.63Z"/><path class="cls-1" d="M119.77,531.91l-1.32,7.25h3.8s-1-3.8,2-4.29a10.17,10.17,0,0,1,7.6,2c1.65-3.3,2-4.13,2-4.13l-5.62-1.49-2.06-.66Z"/><path class="cls-1" d="M106.06,556l4.46-3.31,5.45,2.48v2.64l-5,2S109.2,556.5,106.06,556Z"/><path class="cls-1" d="M106.89,568.06a10.47,10.47,0,0,1,7.27-1.65v5.12L111,570.21Z"/><path class="cls-1" d="M116,565.42v6.11s3.56-1.33,5.45,0l1.16-4.63-4.13-1.48Z"/><polygon class="cls-1" points="109.7 577.8 110.52 584.24 114.16 584.24 114.16 578.63 109.7 577.8"/><rect class="cls-1" x="115.97" y="581.77" width="3.3" height="3.14"/></g></g></svg>