<svg xmlns="http://www.w3.org/2000/svg" viewBox="0 0 1440.5 956"><defs><style>.cls-1{fill:none;}.cls-2{stroke:#000;stroke-miterlimit:10;}</style></defs><title>03_Solid</title><g id="Layer_2" data-name="Layer 2"><g id="Layer_1-2" data-name="Layer 1"><rect class="cls-1" width="1440" height="956"/><path class="cls-2" d="M123.11,107.49l-2.43.13s105.2,174.51,107,177.57C239.79,303.45,261,318.64,261,318.64s14.43-1,17.24,0c9.83-11.36,13.61-5.19,13.61-5.19l24.26-6.13,6.13,6.13L512.17,86.64l4.6,4.57h2.47l-9.45-15.12Z"/><path class="cls-2" d="M756.43,319.07l-129.36,6.29-1.7.17s34.55,70.64,34.63,71.66c.94,3.66,6,3.28,6.68,3.66-1.4,7.28,4.47,9.83,4.47,9.83l.51,13.15,3.83.13.13,7.79,11.49-.13,5.74,7,67.49-109.4H763C763.45,319.15,756.43,319.07,756.43,319.07Z"/><path class="cls-2" d="M1170.3,355.66,782.81,372.51l-1.7.43L800.94,421h13.53l-12.91.45,12.7,30.7h4.08v5.36h-2.87L820.85,469,818,484.6l-10.28-23.36h-3.44l-29.56,32.1v11.43l172.79-3.9.23,2.94h3.79L996.15,421h.5l37.89,99.26h64.53v5.23h5.1l66.71-163.08,3.95,4,1.22-.07A10.92,10.92,0,0,0,1170.3,355.66Z"/><polygon class="cls-2" points="1192.86 418.13 1230.81 548.55 1253.28 548.55 1253.28 551.41 1258.9 551.41 1309.79 418.13 1305.19 414.05 1192.86 418.13"/><path class="cls-2" d="M1334.73,510.39l13.66,52.21,12.64,6.25v13s-1-.76-6.13-3.7c-.26,20.17-4.85,23.36-4.85,23.36s-1.66-5.36-3.19-9.32c-6.52,2.56-5.49,11.62-5.49,11.62h72.76l5.24-4,15.19-48.46,5.44,24.34V510.39Z"/></g></g></svg>