<?xml version="1.0" encoding="utf-8"?>
<!-- Generator: Adobe Illustrator 23.1.1, SVG Export Plug-In . SVG Version: 6.00 Build 0)  -->
<svg version="1.1" id="Layer_1" xmlns="http://www.w3.org/2000/svg" xmlns:xlink="http://www.w3.org/1999/xlink" x="0px" y="0px"
	 viewBox="0 0 32 32" style="enable-background:new 0 0 32 32;" xml:space="preserve">
<style type="text/css">
	.st0{fill:none;}
	.st1{fill-rule:evenodd;clip-rule:evenodd;fill:#0068FF;}
</style>
<rect id="bound" class="st0" width="32" height="32"/>
<path class="st1" d="M16.6,13.8v-0.6h1.7v8h-1c-0.4,0-0.7-0.3-0.7-0.7c0,0,0,0,0,0c-0.7,0.5-1.5,0.8-2.4,0.8c-2.3,0-4.1-1.9-4.1-4.1
	s1.9-4.1,4.1-4.1C15.1,13,15.9,13.3,16.6,13.8C16.6,13.8,16.6,13.8,16.6,13.8z M9.6,10.7V11c0,0.5-0.1,0.9-0.4,1.3l0,0
	c-0.1,0.1-0.2,0.3-0.3,0.4l-5.4,6.8h6.2v1c0,0.4-0.3,0.7-0.7,0.7h-8v-0.5c0-0.6,0.1-0.8,0.3-1.1L7,12.5H1.1v-1.8
	C1.1,10.7,9.6,10.7,9.6,10.7z M20.4,21.2c-0.3,0-0.6-0.3-0.6-0.6v-9.9h1.8v10.5C21.6,21.2,20.4,21.2,20.4,21.2z M26.9,13
	c2.3,0,4.2,1.9,4.2,4.2c0,2.3-1.9,4.2-4.2,4.2c-2.3,0-4.2-1.9-4.2-4.2C22.8,14.8,24.6,13,26.9,13z M14.2,19.6c1.3,0,2.4-1.1,2.4-2.4
	c0-1.3-1.1-2.4-2.4-2.4s-2.4,1.1-2.4,2.4C11.7,18.5,12.8,19.6,14.2,19.6z M26.9,19.6c1.4,0,2.4-1.1,2.4-2.4c0-1.4-1.1-2.4-2.4-2.4
	c-1.4,0-2.4,1.1-2.4,2.4C24.5,18.5,25.6,19.6,26.9,19.6z"/>
</svg>
