<?xml version="1.0" encoding="UTF-8"?>
<svg width="18px" height="16px" viewBox="0 0 18 16" version="1.1" xmlns="http://www.w3.org/2000/svg" xmlns:xlink="http://www.w3.org/1999/xlink">
    <title>Combined Shape Copy 2</title>
    <g id="Symbols" stroke="none" stroke-width="1" fill="none" fill-rule="evenodd">
        <g id="Header_chưa-đăng-nhập" transform="translate(-1066.000000, -27.000000)" fill="#555555" fill-rule="nonzero">
            <g id="Group-12" transform="translate(1063.000000, 23.000000)">
                <path d="M9.99738562,16.8 C10.8623094,16.8 11.5660131,17.5177778 11.5660131,18.4 C11.5660131,19.2822222 10.8623094,20 9.99738562,20 C9.13246187,20 8.42875817,19.2822222 8.42875817,18.4 C8.42875817,17.5177778 9.13246187,16.8 9.99738562,16.8 Z M17.3176471,16.8 C18.1825708,16.8 18.8862745,17.5177778 18.8862745,18.4 C18.8862745,19.2822222 18.1825708,20 17.3176471,20 C16.4527233,20 15.7490196,19.2822222 15.7490196,18.4 C15.7490196,17.5177778 16.4527233,16.8 17.3176471,16.8 Z M9.99738562,17.8666667 C9.7091231,17.8666667 9.4745098,18.1059722 9.4745098,18.4 C9.4745098,18.6940278 9.7091231,18.9333333 9.99738562,18.9333333 C10.2856481,18.9333333 10.5202614,18.6940278 10.5202614,18.4 C10.5202614,18.1059722 10.2856481,17.8666667 9.99738562,17.8666667 Z M17.3176471,17.8666667 C17.0293845,17.8666667 16.7947712,18.1059722 16.7947712,18.4 C16.7947712,18.6940278 17.0293845,18.9333333 17.3176471,18.9333333 C17.6059096,18.9333333 17.8405229,18.6940278 17.8405229,18.4 C17.8405229,18.1059722 17.6059096,17.8666667 17.3176471,17.8666667 Z M6.84583944,4 C7.08998048,4 7.30129812,4.17361109 7.35433095,4.4176389 L7.35433095,4.4176389 L7.72664606,6.13333333 L20.4569734,6.13333333 C20.6204122,6.13333333 20.7743567,6.21194446 20.8728269,6.34555556 C20.9711615,6.47916665 21.0026286,6.65222222 20.9577337,6.81319445 L20.9577337,6.81319445 L18.8743969,14.2798611 C18.8105133,14.50875 18.606113,14.6666667 18.3736365,14.6666667 L18.3736365,14.6666667 L8.92781994,14.6668055 C8.64122547,14.6675 8.40834206,14.9063889 8.40834206,15.2 C8.40834206,15.4940278 8.64203929,15.7333333 8.92917627,15.7333333 L8.92917627,15.7333333 L18.3736365,15.7333333 C18.661316,15.7333333 18.8944707,15.9720833 18.8944707,16.2666667 C18.8944707,16.56125 18.661316,16.8 18.3736365,16.8 L18.3736365,16.8 L8.92917627,16.8 C8.06762968,16.8 7.36667365,16.0822222 7.36667365,15.2 C7.36667365,14.5434722 7.75499353,13.9783333 8.3085155,13.7319445 C8.30616452,13.7211144 8.30289685,13.7060602 8.29875659,13.6869849 L8.26379675,13.5259063 C7.97308178,12.1863868 6.48929667,5.34897817 6.42808701,5.06666667 L6.42808701,5.06666667 L3.72083421,5.06666667 C3.4331547,5.06666667 3.2,4.82791666 3.2,4.53333333 C3.2,4.23875001 3.4331547,4 3.72083421,4 L3.72083421,4 Z M19.7664611,7.2 L7.95803749,7.2 L9.3469287,13.6 L17.9807051,13.6 L19.7664611,7.2 Z" id="Combined-Shape-Copy-2"></path>
            </g>
        </g>
    </g>
</svg>