<?xml version="1.0" encoding="UTF-8"?>
<svg width="20px" height="20px" viewBox="0 0 20 20" version="1.1" xmlns="http://www.w3.org/2000/svg" xmlns:xlink="http://www.w3.org/1999/xlink">
    <title>Question</title>
    <g id="Symbols" stroke="none" stroke-width="1" fill="none" fill-rule="evenodd">
        <g id="FAQ" transform="translate(-32.000000, -73.000000)" fill="#999999" fill-rule="nonzero">
            <g id="Question" transform="translate(32.000000, 73.000000)">
                <path d="M10,0 C15.5274609,0 20,4.47328125 20,10 C20,15.5274609 15.5267188,20 10,20 C4.47253906,20 0,15.5267188 0,10 C0,4.47253906 4.47328125,0 10,0 Z M10,1.5625 C5.33621094,1.5625 1.5625,5.33683594 1.5625,10 C1.5625,14.6637891 5.33683594,18.4375 10,18.4375 C14.6637891,18.4375 18.4375,14.6631641 18.4375,10 C18.4375,5.33621094 14.6631641,1.5625 10,1.5625 Z M10,13.8085938 C10.5393406,13.8085938 10.9765625,14.2458157 10.9765625,14.7851562 C10.9765625,15.3244968 10.5393406,15.7617188 10,15.7617188 C9.46065942,15.7617188 9.0234375,15.3244968 9.0234375,14.7851562 C9.0234375,14.2458157 9.46065942,13.8085938 10,13.8085938 Z M10,5.01953125 C11.723125,5.01953125 13.125,6.42140625 13.125,8.14453125 C13.125,9.59800781 12.1275781,10.8228906 10.78125,11.1706641 L10.78125,11.1706641 L10.78125,12.4414062 C10.78125,12.8728906 10.4314844,13.2226562 10,13.2226562 C9.56851562,13.2226562 9.21875,12.8728906 9.21875,12.4414062 L9.21875,12.4414062 L9.21875,10.4882812 C9.21875,10.0567969 9.56851562,9.70703125 10,9.70703125 C10.8615625,9.70703125 11.5625,9.00609375 11.5625,8.14453125 C11.5625,7.28296875 10.8615625,6.58203125 10,6.58203125 C9.1384375,6.58203125 8.4375,7.28296875 8.4375,8.14453125 C8.4375,8.57601563 8.08773438,8.92578125 7.65625,8.92578125 C7.22476562,8.92578125 6.875,8.57601563 6.875,8.14453125 C6.875,6.42140625 8.276875,5.01953125 10,5.01953125 Z"></path>
            </g>
        </g>
    </g>
</svg>