<?xml version="1.0" encoding="UTF-8"?>
<svg width="25px" height="25px" viewBox="0 0 25 25" version="1.1" xmlns="http://www.w3.org/2000/svg" xmlns:xlink="http://www.w3.org/1999/xlink">
    <title>Shape</title>
    <g id="Home" stroke="none" stroke-width="1" fill="none" fill-rule="evenodd">
        <g transform="translate(-28.000000, -762.000000)" fill="#8C110A" fill-rule="nonzero" id="MB-Action-Bar">
            <g transform="translate(-54.000000, 492.000000)">
                <path d="M106.326159,280.873795 C106.325396,280.873222 106.324824,280.872459 106.324252,280.871887 L96.1262311,270.674248 C95.6915464,270.239372 95.1136197,270 94.4988812,270 C93.8841428,270 93.3062162,270.239372 92.8713407,270.674248 L82.6786603,280.866737 C82.6752271,280.870171 82.6716031,280.873795 82.6683606,280.877228 C81.7757215,281.775017 81.7772474,283.231659 82.6727475,284.127159 C83.0818738,284.536476 83.622035,284.773369 84.1997708,284.798355 C84.223422,284.800644 84.2470731,284.801788 84.2709149,284.801788 L84.6771802,284.801788 L84.6771802,292.306442 C84.6771802,293.791695 85.8856763,295 87.3709287,295 L91.3607205,295 C91.7652692,295 92.0931424,294.671936 92.0931424,294.267578 L92.0931424,288.383789 C92.0931424,287.706108 92.6445569,287.154884 93.3222379,287.154884 L95.6755246,287.154884 C96.3532056,287.154884 96.9044294,287.706108 96.9044294,288.383789 L96.9044294,294.267578 C96.9044294,294.671936 97.2323026,295 97.6368513,295 L101.626643,295 C103.112086,295 104.320392,293.791695 104.320392,292.306442 L104.320392,284.801788 L104.697284,284.801788 C105.311831,284.801788 105.889758,284.562416 106.324824,284.12735 C107.221278,283.230515 107.22166,281.771202 106.326159,280.873795 L106.326159,280.873795 Z M105.288943,283.09166 C105.130824,283.249779 104.920634,283.336945 104.697284,283.336945 L103.58797,283.336945 C103.183421,283.336945 102.855548,283.664818 102.855548,284.069366 L102.855548,292.306442 C102.855548,292.983933 102.304324,293.535156 101.626643,293.535156 L98.3692731,293.535156 L98.3692731,288.383789 C98.3692731,286.898537 97.1609678,285.690041 95.6755246,285.690041 L93.3222379,285.690041 C91.8367948,285.690041 90.6282987,286.898537 90.6282987,288.383789 L90.6282987,293.535156 L87.3709287,293.535156 C86.6934385,293.535156 86.142024,292.983933 86.142024,292.306442 L86.142024,284.069366 C86.142024,283.664818 85.8141507,283.336945 85.4096021,283.336945 L84.3193616,283.336945 C84.3079175,283.336182 84.2966641,283.335609 84.2850293,283.335419 C84.0668287,283.331604 83.8621702,283.24501 83.7088193,283.091469 C83.3826627,282.765312 83.3826627,282.234497 83.7088193,281.90815 C83.70901,281.90815 83.70901,281.907959 83.7092008,281.907768 L83.709773,281.907196 L93.9074124,271.709938 C94.0653409,271.551819 94.27534,271.464844 94.4988812,271.464844 C94.7222318,271.464844 94.9322308,271.551819 95.0903501,271.709938 L105.285701,281.905098 C105.287227,281.906624 105.288943,281.90815 105.290469,281.909676 C105.614909,282.236404 105.614337,282.766075 105.288943,283.09166 Z" id="Shape"></path>
            </g>
        </g>
    </g>
</svg>