<?xml version="1.0" encoding="UTF-8"?>
<svg width="15px" height="15px" viewBox="0 0 15 15" version="1.1" xmlns="http://www.w3.org/2000/svg" xmlns:xlink="http://www.w3.org/1999/xlink">
    <title>Shape</title>
    <g id="Symbols" stroke="none" stroke-width="1" fill="none" fill-rule="evenodd">
        <g id="Template-Product-01" transform="translate(-167.000000, -208.000000)" fill="#C0C0C0" fill-rule="nonzero">
            <path d="M180.773327,209.339565 C179.997465,208.48699 178.910286,208.001888 177.771246,208 C176.631296,208.001438 175.542986,208.486284 174.765931,209.339019 L174.501101,209.625116 L174.236272,209.339019 C172.694381,207.642444 170.09911,207.545012 168.439647,209.121356 C168.366113,209.191234 168.295091,209.26381 168.22674,209.339019 C166.591087,211.142693 166.591087,213.930188 168.22674,215.733861 L174.111914,222.07883 C174.315523,222.298581 174.654829,222.307991 174.869777,222.099833 C174.876813,222.093025 174.883661,222.086024 174.89032,222.07883 L180.773358,215.733861 C182.408886,213.93038 182.408886,211.143046 180.773327,209.339565 Z M179.997622,214.979167 L179.997088,214.979167 L174.501101,220.905412 L169.004612,214.979167 C167.755067,213.600995 167.755067,211.47134 169.004612,210.093167 C170.139348,208.835805 172.056291,208.756967 173.286172,209.917058 C173.345885,209.973385 173.403336,210.03212 173.458432,210.093167 L174.111914,210.797989 C174.327271,211.016744 174.674963,211.016744 174.89032,210.797989 L175.543802,210.093713 C176.678539,208.836351 178.595481,208.757512 179.825362,209.917604 C179.885075,209.973931 179.942527,210.032666 179.997622,210.093713 C181.258036,211.474069 181.267271,213.60761 179.997622,214.979167 Z" id="Shape"></path>
        </g>
    </g>
</svg>