<?xml version="1.0" encoding="UTF-8"?>
<svg width="20px" height="20px" viewBox="0 0 20 20" version="1.1" xmlns="http://www.w3.org/2000/svg" xmlns:xlink="http://www.w3.org/1999/xlink">
    <title>Shape</title>
    <g id="Symbols" stroke="none" stroke-width="1" fill="none" fill-rule="evenodd">
        <g id="Ưu-đãi" transform="translate(-22.000000, -62.000000)" fill="#848484" fill-rule="nonzero">
            <g id="Shape">
                <path d="M39.0710938,74.9289062 C37.9819141,73.8397656 36.6855078,73.0334766 35.2710547,72.5453906 C36.7859766,71.5019922 37.78125,69.7557812 37.78125,67.78125 C37.78125,64.5934766 35.1877734,62 32,62 C28.8122266,62 26.21875,64.5934766 26.21875,67.78125 C26.21875,69.7557812 27.2140234,71.5019922 28.7289844,72.5453906 C27.3145313,73.0334766 26.018125,73.8397656 24.9289453,74.9289062 C23.0401953,76.8176953 22,79.3289063 22,82 L23.5625,82 C23.5625,77.3475391 27.3475391,73.5625 32,73.5625 C36.6524609,73.5625 40.4375,77.3475391 40.4375,82 L42,82 C42,79.3289063 40.9598047,76.8176953 39.0710938,74.9289062 Z M32,72 C29.6737891,72 27.78125,70.1075 27.78125,67.78125 C27.78125,65.455 29.6737891,63.5625 32,63.5625 C34.3262109,63.5625 36.21875,65.455 36.21875,67.78125 C36.21875,70.1075 34.3262109,72 32,72 Z"></path>
            </g>
        </g>
    </g>
</svg>