<?xml version="1.0" encoding="UTF-8"?>
<svg width="16px" height="16px" viewBox="0 0 16 16" version="1.1" xmlns="http://www.w3.org/2000/svg" xmlns:xlink="http://www.w3.org/1999/xlink">
    <title>magnifiying-glass copy</title>
    <g id="Symbols" stroke="none" stroke-width="1" fill="none" fill-rule="evenodd">
        <g id="Header_chưa-đăng-nhập" transform="translate(-894.000000, -28.000000)" fill="#999999" fill-rule="nonzero">
            <g id="Group-16-Copy" transform="translate(892.000000, 26.000000)">
                <g id="magnifiying-glass-copy" transform="translate(2.333333, 2.333333)">
                    <path d="M14.8291157,14.0044076 L11.1683947,10.3437644 C12.0783263,9.24954495 12.6265246,7.84444645 12.6265246,6.31345671 C12.6265246,2.8322027 9.79439969,0 6.3133012,0 C2.83212494,0 0,2.8322027 0,6.31345671 C0,9.79447745 2.83212494,12.6264469 6.3133012,12.6264469 C7.84421317,12.6264469 9.24938943,12.0783263 10.3436089,11.1683947 L14.0044076,14.8291157 C14.1182463,14.9430321 14.2675428,14.9999514 14.4167616,14.9999514 C14.5659805,14.9999514 14.715277,14.9430321 14.8291934,14.8291157 C15.0569485,14.6013606 15.0569485,14.2321627 14.8291157,14.0044076 Z M1.1663795,6.31345671 C1.1663795,3.47534436 3.4752666,1.1663795 6.3133012,1.1663795 C9.15125804,1.1663795 11.4600674,3.47534436 11.4600674,6.31345671 C11.4600674,9.1513358 9.15125804,11.4600674 6.3133012,11.4600674 C3.4752666,11.4600674 1.1663795,9.1513358 1.1663795,6.31345671 Z" id="Shape"></path>
                </g>
            </g>
        </g>
    </g>
</svg>