<?xml version="1.0" encoding="UTF-8"?>
<svg width="14px" height="14px" viewBox="0 0 14 14" version="1.1" xmlns="http://www.w3.org/2000/svg" xmlns:xlink="http://www.w3.org/1999/xlink">
    <title>Combined Shape</title>
    <g id="Desktop" stroke="none" stroke-width="1" fill="none" fill-rule="evenodd">
        <g id="PC/Adress/-Edit-thanh-toán/-Khi-xoá-tên-cũ-nhập-tên-mới" transform="translate(-105.000000, -393.000000)" fill="#555555" fill-rule="nonzero">
            <g id="Group-2" transform="translate(102.000000, 390.000000)">
                <path d="M11.1541073,3.33333333 C11.9529939,3.33333333 12.6024168,3.98332654 12.6024168,4.78161575 L12.6024168,4.78161575 L12.6024168,8.25751527 C12.6024168,8.41740665 12.4726409,8.54718262 12.3127495,8.54718262 C12.1528581,8.54718262 12.0230821,8.41740665 12.0230821,8.25751527 L12.0230821,8.25751527 L12.0230821,4.78161575 C12.0230821,4.30251188 11.6332111,3.91264087 11.1541073,3.91264087 L11.1541073,3.91264087 L4.78161575,3.91264087 C4.30251188,3.91264087 3.91264087,4.30251188 3.91264087,4.78161575 L3.91264087,4.78161575 L3.91264087,15.2093143 C3.91264087,15.6884182 4.30251188,16.0782892 4.78161575,16.0782892 L4.78161575,16.0782892 L11.1541073,16.0782892 C11.6332111,16.0782892 12.0230821,15.6884182 12.0230821,15.2093143 L12.0230821,15.2093143 L12.0230821,11.7334148 C12.0230821,11.5735234 12.152831,11.4437475 12.3127223,11.4437475 C12.4726137,11.4437475 12.6024168,11.5735234 12.6024168,11.7334148 L12.6024168,11.7334148 L12.6024168,15.2093143 C12.6024168,16.0076035 11.9529939,16.6575967 11.1541073,16.6575967 L11.1541073,16.6575967 L4.78161575,16.6575967 C3.98275628,16.6575967 3.33333333,16.0076035 3.33333333,15.2093143 L3.33333333,15.2093143 L3.33333333,4.78161575 C3.33333333,3.98332654 3.98275628,3.33333333 4.78161575,3.33333333 L4.78161575,3.33333333 Z M14.4249287,8.05360489 C14.5378955,7.94063815 14.7215479,7.94063815 14.8345146,8.05360489 L14.8345146,8.05360489 L16.5724644,9.79155465 C16.5752575,9.79434778 16.5779816,9.79718413 16.5806366,9.80006155 C16.5906727,9.80978118 16.5995276,9.82092331 16.6075391,9.83268519 C16.6111268,9.83923229 16.6149494,9.84531926 16.6185242,9.85151103 C16.6263003,9.86358956 16.6326208,9.87672179 16.6379378,9.89035482 C16.6399857,9.89740604 16.6425433,9.9047899 16.6447944,9.91224718 C16.6534038,9.93877947 16.6576239,9.96663217 16.6576239,9.99546504 L16.6532149,9.94834525 C16.6548936,9.95840765 16.6560406,9.96854218 16.6566557,9.97870317 L16.6576239,9.99546504 C16.6576239,10.0013485 16.6574482,10.0071912 16.6571017,10.0129881 C16.6560769,10.0241727 16.654795,10.0353239 16.6528694,10.0463843 C16.6515012,10.0557419 16.6493438,10.0651296 16.6467428,10.0743317 C16.6432968,10.08608 16.6393408,10.0974922 16.6346537,10.1086687 C16.6309694,10.1173215 16.6267616,10.1259926 16.6221477,10.13441 C16.6093197,10.1584075 16.5927054,10.1809218 16.5724644,10.2011677 L16.6032349,10.1644012 C16.5974925,10.1723817 16.5913542,10.1800586 16.584849,10.1874031 L16.5724644,10.2011677 L14.8345146,11.9391174 C14.7783028,11.9947318 14.7041684,12.0231093 14.6300068,12.0231093 C14.5558452,12.0231093 14.4817108,11.9947047 14.4249287,11.93852 C14.311962,11.8255533 14.311962,11.6419009 14.4249287,11.5289341 L14.4249287,11.5289341 L15.6683333,10.2843333 L7.0989002,10.2851324 C6.96185045,10.2851324 6.84692631,10.1898067 6.81688777,10.0618812 L6.80923286,9.99549219 C6.80923286,9.83560081 6.93900883,9.70582485 7.0989002,9.70582485 L7.0989002,9.70582485 L15.6673333,9.70533333 L14.4249287,8.46319077 C14.3281001,8.36636214 14.3142674,8.21760117 14.3834307,8.10593474 Z" id="Combined-Shape"></path>
            </g>
        </g>
    </g>
</svg>