<?xml version="1.0" encoding="UTF-8"?>
<svg width="20px" height="14px" viewBox="0 0 20 14" version="1.1" xmlns="http://www.w3.org/2000/svg" xmlns:xlink="http://www.w3.org/1999/xlink">
    <title>Combined Shape</title>
    <g id="Account/-View-&amp;-Edit" stroke="none" stroke-width="1" fill="none" fill-rule="evenodd">
        <g id="PC/Login/Quản-lý-đơn-hàng/-Xem-chi-tiết-đơn" transform="translate(-433.000000, -1334.000000)" fill="#555555" fill-rule="nonzero">
            <g id="Group-4-Copy-2" transform="translate(428.000000, 1326.000000)">
                <path d="M22.9166797,8 C24.065,8 24.9999609,8.935 24.9999609,10.0833594 L24.9999609,10.0833594 L24.999,10.905 L25.0000391,10.9166797 L25.0000391,13.4166797 C25.0000391,13.4204278 24.9999895,13.4241645 24.999891,13.427889 L24.9999609,19.2500391 C24.9999609,20.3983594 24.0649609,21.3333594 22.9166406,21.3333594 L22.9166406,21.3333594 L7.08332031,21.3333594 C5.935,21.3333594 5,20.3983594 5,19.2500391 L5,19.2500391 L5,10.0833594 C5,8.935 5.935,8 7.08332031,8 L7.08332031,8 Z M24.166,13.833 L5.833,13.833 L5.83332031,19.25 C5.83332031,19.896106 6.32622879,20.4293961 6.95570891,20.4935335 L7.08332031,20.5 L22.9166797,20.5 C23.6058594,20.5 24.1666797,19.9391797 24.1666797,19.25 L24.1666797,19.25 L24.166,13.833 Z M12.9166797,18 C13.1466797,18 13.3333594,18.1866797 13.3333594,18.4166797 C13.3333594,18.6466797 13.1466797,18.8333594 12.9166797,18.8333594 L12.9166797,18.8333594 L7.91667969,18.8333594 C7.68667969,18.8333594 7.5,18.6466797 7.5,18.4166797 C7.5,18.1866797 7.68667969,18 7.91667969,18 L7.91667969,18 Z M21.25,15.5 C21.9391797,15.5 22.5,16.0608594 22.5,16.75 L22.5,16.75 L22.5,17.5833203 C22.5,18.2725 21.9391797,18.8333203 21.25,18.8333203 L21.25,18.8333203 L20.4166797,18.8333203 C19.7275,18.8333203 19.1666797,18.2725 19.1666797,17.5833203 L19.1666797,17.5833203 L19.1666797,16.75 C19.1666797,16.0608203 19.7275,15.5 20.4166797,15.5 L20.4166797,15.5 Z M21.25,16.3333594 L20.4166797,16.3333594 C20.1866797,16.3333594 20,16.5200391 20,16.7500391 L20,16.7500391 L20,17.5833594 C20,17.8133594 20.1866797,18.0000391 20.4166797,18.0000391 L20.4166797,18.0000391 L21.25,18.0000391 C21.48,18.0000391 21.6666797,17.8133594 21.6666797,17.5833594 L21.6666797,17.5833594 L21.6666797,16.7500391 C21.6666797,16.5200391 21.48,16.3333594 21.25,16.3333594 L21.25,16.3333594 Z M12.9166797,16.3333594 C13.1466797,16.3333594 13.3333594,16.52 13.3333594,16.75 C13.3333594,16.98 13.1466797,17.1666797 12.9166797,17.1666797 L12.9166797,17.1666797 L7.91667969,17.1666797 C7.68667969,17.1666797 7.5,16.9800391 7.5,16.7500391 C7.5,16.5200391 7.68667969,16.3333594 7.91667969,16.3333594 L7.91667969,16.3333594 Z M24.1666797,11.3333203 L5.83332031,11.3333203 L5.83332031,13 L24.1666797,13 L24.1666797,11.3333203 Z M22.9166406,8.83335938 L7.08332031,8.83335938 C6.39414063,8.83335938 5.83332031,9.39417969 5.83332031,10.0833594 L5.83332031,10.0833594 L5.833,10.5 L24.166,10.5 L24.1666797,10.0833594 C24.1666797,9.43725342 23.6737369,8.90396332 23.0442525,8.83982591 L22.9166406,8.83335938 Z" id="Combined-Shape"></path>
            </g>
        </g>
    </g>
</svg>