<?xml version="1.0" encoding="UTF-8"?>
<svg width="20px" height="21px" viewBox="0 0 20 21" version="1.1" xmlns="http://www.w3.org/2000/svg" xmlns:xlink="http://www.w3.org/1999/xlink">
    <title>Shape</title>
    <g id="Category" stroke="none" stroke-width="1" fill="none" fill-rule="evenodd">
        <g id="Category_Order" transform="translate(-293.000000, -354.000000)" fill="#999999" fill-rule="nonzero">
            <g id="Group-3" transform="translate(281.000000, 344.000000)">
                <g id="Group" transform="translate(12.000000, 10.000000)">
                    <path d="M19.1073835,1.53333431e-06 L0.860021493,1.53333431e-06 C0.538187104,-0.000605694382 0.243138376,0.179183282 0.096019883,0.465506347 C-0.0531278573,0.755684893 -0.0269508963,1.10511674 0.163592922,1.37013294 L6.84865786,10.7873407 C6.85089001,10.7905875 6.85332508,10.7936313 6.85555723,10.7968781 C7.09845495,11.1248002 7.22974555,11.5219187 7.23055723,11.9301979 L7.23055723,19.6079576 C7.22913677,19.8354333 7.31842248,20.0537774 7.47873095,20.2151005 C7.63903936,20.3764235 7.8569777,20.4669268 8.08425043,20.4669268 C8.19991599,20.4669268 8.31416113,20.4437937 8.42089812,20.3995566 L12.1773916,18.9671297 C12.5140394,18.8644511 12.7374566,18.5468781 12.7374566,18.1643699 L12.7374566,11.9301979 C12.7380653,11.5221216 12.8695588,11.1248002 13.1122536,10.7968781 C13.1144858,10.7936313 13.1169209,10.7905875 13.119153,10.7873407 L19.804015,1.36972713 C19.9945588,1.10491378 20.0207358,0.755684893 19.8715881,0.465506347 C19.7244695,0.179183282 19.4294209,-0.000605694382 19.1073835,1.53333431e-06 Z M12.2745913,10.1814154 C11.9012147,10.6881119 11.6993072,11.3007336 11.6980897,11.9301979 L11.6980897,18.0381524 L8.26951827,19.3453765 L8.26951827,11.9301979 C8.26830071,11.3007336 8.06639329,10.6881119 7.6928137,10.1814154 L1.20275692,1.03896411 L18.7648511,1.03896411 L12.2745913,10.1814154 Z" id="Shape"></path>
                </g>
            </g>
        </g>
    </g>
</svg>