<?xml version="1.0" encoding="UTF-8"?>
<svg width="27px" height="27px" viewBox="0 0 27 27" version="1.1" xmlns="http://www.w3.org/2000/svg" xmlns:xlink="http://www.w3.org/1999/xlink">
    <title>Combined-Shape</title>
    <g id="Symbols" stroke="none" stroke-width="1" fill="none" fill-rule="evenodd">
        <g id="MB-Action-Bar" transform="translate(-212.000000, -9.000000)" fill="#555555" fill-rule="nonzero">
            <g id="ddddd" transform="translate(213.000000, 10.000000)">
                <path d="M-0.0192434911,13.906114 L11.0938856,13.6171201 L11.3828795,24.7302496 L0.269750418,25.0192435 L-0.0192434911,13.906114 Z M13.6171205,13.906114 L24.7302496,13.6171201 L25.0192435,24.7302496 L13.9061144,25.0192435 L13.6171205,13.906114 Z M9.633,15.156 L1.519,15.367 L1.73,23.481 L9.844,23.27 L9.633,15.156 Z M23.27,15.155 L15.156,15.366 L15.367,23.48 L23.481,23.269 L23.27,15.155 Z M-0.0192434911,0.269750419 L11.0938856,-0.0192434919 L11.3828795,11.093886 L0.269750418,11.3828799 L-0.0192434911,0.269750419 Z M13.6171205,0.269750419 L24.7302496,-0.0192434919 L25.0192435,11.093886 L13.9061144,11.3828799 L13.6171205,0.269750419 Z M9.632,1.519 L1.518,1.73 L1.729,9.844 L9.843,9.633 L9.632,1.519 Z M23.269,1.518 L15.155,1.729 L15.366,9.843 L23.48,9.632 L23.269,1.518 Z" id="Combined-Shape"></path>
            </g>
        </g>
    </g>
</svg>