<?xml version="1.0" encoding="UTF-8"?>
<svg width="37px" height="25px" viewBox="0 0 37 25" version="1.1" xmlns="http://www.w3.org/2000/svg" xmlns:xlink="http://www.w3.org/1999/xlink">
    <title>Combined Shape</title>
    <g id="Account/-Login" stroke="none" stroke-width="1" fill="none" fill-rule="evenodd">
        <g id="Menu" transform="translate(-320.000000, -1224.000000)" fill="#8C110A" fill-rule="nonzero">
            <g id="MB-Action-Bar" transform="translate(0.000000, 1214.000000)">
                <path d="M354.982665,32.6851852 C355.605609,32.6851852 356.111111,33.2036614 356.111111,33.8425926 C356.111111,34.4814276 355.605609,35 354.982665,35 L354.982665,35 L321.128446,35 C320.505596,35 320,34.4815238 320,33.8425926 C320,33.2037576 320.505502,32.6851852 321.128446,32.6851852 L321.128446,32.6851852 Z M354.982665,21.1111111 C355.605609,21.1111111 356.111111,21.6296835 356.111111,22.2685185 C356.111111,22.9073535 355.605609,23.4259259 354.982665,23.4259259 L354.982665,23.4259259 L321.128446,23.4259259 C320.505596,23.4259259 320,22.9073535 320,22.2685185 C320,21.6296835 320.505502,21.1111111 321.128446,21.1111111 L321.128446,21.1111111 Z M354.982665,10 C355.605515,10 356.111111,10.5184762 356.111111,11.1574074 C356.111111,11.7962424 355.605609,12.3148148 354.982665,12.3148148 L354.982665,12.3148148 L321.128446,12.3148148 C320.505596,12.3148148 320,11.7963386 320,11.1574074 C320,10.5184762 320.505596,10 321.128446,10 L321.128446,10 Z" id="Combined-Shape"></path>
            </g>
        </g>
    </g>
</svg>