<?xml version="1.0" encoding="UTF-8"?>
<svg width="20px" height="20px" viewBox="0 0 20 20" version="1.1" xmlns="http://www.w3.org/2000/svg" xmlns:xlink="http://www.w3.org/1999/xlink">
    <title>news-paper</title>
    <g id="Account/-Login" stroke="none" stroke-width="1" fill="none" fill-rule="evenodd">
        <g id="Menu" transform="translate(-26.000000, -633.000000)" fill="#000000" fill-rule="nonzero">
            <g id="Group-8" transform="translate(21.000000, 628.000000)">
                <g id="news-paper" transform="translate(5.000000, 5.000000)">
                    <path d="M19,0 L4.33332031,0 C3.76664062,0 3.33332031,0.433320313 3.33332031,1 L3.33332031,10.6666797 L0.333320313,10.6666797 C0.133320312,10.6666797 0,10.8 0,11 L0,18 C0,19.1 0.9,20 2,20 L18,20 C19.1,20 20,19.1 20,18 L20,1 C20,0.433320313 19.5666797,0 19,0 Z M0.666679688,18 L0.666679688,11.3333203 L3.33335937,11.3333203 L3.33335937,18 C3.33335937,18.7333203 2.73335938,19.3333203 2.00003906,19.3333203 C1.26671875,19.3333203 0.666679688,18.7333203 0.666679688,18 Z M19.3333203,18 C19.3333203,18.7333203 18.7333203,19.3333203 18,19.3333203 L3.5,19.3333203 C3.56414062,19.2549219 3.62335938,19.1717188 3.67738281,19.0848438 C3.86484375,18.7966406 3.98046875,18.4580469 3.99761719,18.0945703 C3.99917969,18.0631641 4.00003906,18.0316406 4.00003906,17.9999609 L4.00003906,11 L4.00003906,1 C4.00003906,0.8 4.13335938,0.666679688 4.33335938,0.666679688 L19,0.666679688 C19.2,0.666679688 19.3333203,0.8 19.3333203,1 L19.3333203,18 Z" id="Shape"></path>
                    <path d="M10.6666797,1.66667969 L5.33332031,1.66667969 C5.13332031,1.66667969 5,1.8 5,2 L5,8.33332031 C5,8.53332031 5.13332031,8.66664063 5.33332031,8.66664063 L10.6666406,8.66664063 C10.8666406,8.66664063 10.9999609,8.53332031 10.9999609,8.33332031 L10.9999609,2 C10.9999609,1.8 10.8666797,1.66667969 10.6666797,1.66667969 Z M10.3333594,8 L5.66667969,8 L5.66667969,2.33332031 L10.3333594,2.33332031 L10.3333594,8 L10.3333594,8 Z" id="Shape"></path>
                    <path d="M18,1.66667969 L12.6666797,1.66667969 C12.4666797,1.66667969 12.3333594,1.8 12.3333594,2 L12.3333594,8.33332031 C12.3333594,8.53332031 12.4666797,8.66664063 12.6666797,8.66664063 L18,8.66664063 C18.2,8.66664063 18.3333203,8.53332031 18.3333203,8.33332031 L18.3333203,2 C18.3333203,1.8 18.2,1.66667969 18,1.66667969 Z M17.6666797,8 L13,8 L13,2.33332031 L17.6666797,2.33332031 L17.6666797,8 Z" id="Shape"></path>
                    <path d="M10.6666797,9.66667969 L5.33332031,9.66667969 C5.13332031,9.66667969 5,9.8 5,10 C5,10.2 5.13332031,10.3333203 5.33332031,10.3333203 L10.6666406,10.3333203 C10.8666406,10.3333203 10.9999609,10.2 10.9999609,10 C10.9999609,9.8 10.8666797,9.66667969 10.6666797,9.66667969 Z" id="Path"></path>
                    <path d="M10.6666797,11.3333203 L5.33332031,11.3333203 C5.13332031,11.3333203 5,11.4666406 5,11.6666406 C5,11.8666406 5.13332031,11.9999609 5.33332031,11.9999609 L10.6666406,11.9999609 C10.8666406,11.9999609 10.9999609,11.8666406 10.9999609,11.6666406 C10.9999609,11.4666406 10.8666797,11.3333203 10.6666797,11.3333203 Z" id="Path"></path>
                    <path d="M10.6666797,13 L5.33332031,13 C5.13332031,13 5,13.1333203 5,13.3333203 C5,13.5333203 5.13332031,13.6666406 5.33332031,13.6666406 L10.6666406,13.6666406 C10.8666406,13.6666406 10.9999609,13.5333203 10.9999609,13.3333203 C10.9999609,13.1333203 10.8666797,13 10.6666797,13 Z" id="Path"></path>
                    <path d="M10.6666797,14.6666797 L5.33332031,14.6666797 C5.13332031,14.6666797 5,14.8 5,15 C5,15.2 5.13332031,15.3333203 5.33332031,15.3333203 L10.6666406,15.3333203 C10.8666406,15.3333203 10.9999609,15.2 10.9999609,15 C10.9999609,14.8 10.8666797,14.6666797 10.6666797,14.6666797 Z" id="Path"></path>
                    <path d="M10.6666797,16.3333203 L5.33332031,16.3333203 C5.13332031,16.3333203 5,16.4666406 5,16.6666406 C5,16.8666406 5.13332031,16.9999609 5.33332031,16.9999609 L10.6666406,16.9999609 C10.8666406,16.9999609 10.9999609,16.8666406 10.9999609,16.6666406 C10.9999609,16.4666406 10.8666797,16.3333203 10.6666797,16.3333203 Z" id="Path"></path>
                    <path d="M18,9.66667969 L12.6666797,9.66667969 C12.4666797,9.66667969 12.3333594,9.8 12.3333594,10 C12.3333594,10.2 12.4666797,10.3333203 12.6666797,10.3333203 L18,10.3333203 C18.2,10.3333203 18.3333203,10.2 18.3333203,10 C18.3333203,9.8 18.2,9.66667969 18,9.66667969 Z" id="Path"></path>
                    <path d="M18,11.3333203 L12.6666797,11.3333203 C12.4666797,11.3333203 12.3333594,11.4666406 12.3333594,11.6666406 C12.3333594,11.8666406 12.4666797,11.9999609 12.6666797,11.9999609 L18,11.9999609 C18.2,11.9999609 18.3333203,11.8666406 18.3333203,11.6666406 C18.3333203,11.4666406 18.2,11.3333203 18,11.3333203 Z" id="Path"></path>
                    <path d="M18,13 L12.6666797,13 C12.4666797,13 12.3333594,13.1333203 12.3333594,13.3333203 C12.3333594,13.5333203 12.4666797,13.6666406 12.6666797,13.6666406 L18,13.6666406 C18.2,13.6666406 18.3333203,13.5333203 18.3333203,13.3333203 C18.3333203,13.1333203 18.2,13 18,13 Z" id="Path"></path>
                    <path d="M18,14.6666797 L12.6666797,14.6666797 C12.4666797,14.6666797 12.3333594,14.8 12.3333594,15 C12.3333594,15.2 12.4666797,15.3333203 12.6666797,15.3333203 L18,15.3333203 C18.2,15.3333203 18.3333203,15.2 18.3333203,15 C18.3333203,14.8 18.2,14.6666797 18,14.6666797 Z" id="Path"></path>
                    <path d="M18,16.3333203 L12.6666797,16.3333203 C12.4666797,16.3333203 12.3333594,16.4666406 12.3333594,16.6666406 C12.3333594,16.8666406 12.4666797,16.9999609 12.6666797,16.9999609 L18,16.9999609 C18.2,16.9999609 18.3333203,16.8666406 18.3333203,16.6666406 C18.3333203,16.4666406 18.2,16.3333203 18,16.3333203 Z" id="Path"></path>
                    <path d="M7.33332031,18 L5.33332031,18 C5.13332031,18 5,18.1333203 5,18.3333203 C5,18.5333203 5.13332031,18.6666406 5.33332031,18.6666406 L7.33332031,18.6666406 C7.53332031,18.6666406 7.66664062,18.5333203 7.66664062,18.3333203 C7.66664062,18.1333203 7.53332031,18 7.33332031,18 Z" id="Path"></path>
                    <path d="M16,18 L12.6666797,18 C12.4666797,18 12.3333594,18.1333203 12.3333594,18.3333203 C12.3333594,18.5333203 12.4666797,18.6666406 12.6666797,18.6666406 L16,18.6666406 C16.2,18.6666406 16.3333203,18.5333203 16.3333203,18.3333203 C16.3333203,18.1333203 16.2,18 16,18 Z" id="Path"></path>
                </g>
            </g>
        </g>
    </g>
</svg>