<?xml version="1.0" encoding="UTF-8"?>
<svg width="20px" height="20px" viewBox="0 0 20 20" version="1.1" xmlns="http://www.w3.org/2000/svg" xmlns:xlink="http://www.w3.org/1999/xlink">
    <title>Shape Copy 8</title>
    <g id="Account/-Login" stroke="none" stroke-width="1" fill="none" fill-rule="evenodd">
        <g id="Menu" transform="translate(-25.000000, -387.000000)" fill="#555555" fill-rule="nonzero">
            <g id="Group-22" transform="translate(20.000000, 382.000000)">
                <path d="M24.9473528,9.50159108 L22.8420913,5.29106806 C22.7524988,5.11176854 22.5688418,4.99892155 22.3684075,5.00000777 L7.63157689,5.00000777 C7.4320897,5.00000777 7.24969539,5.11261996 7.16052462,5.29106806 L5.05526311,9.50159108 C5.02676222,9.57729728 5.00818667,9.65637605 5,9.73685405 L5,24.4736846 C5,24.7643606 5.23563942,25.0000078 5.52631538,25.0000078 L24.473669,25.0000078 C24.7643449,25.0000078 24.9999843,24.7643606 24.9999843,24.4736846 L24.9999843,9.73685405 C24.9926459,9.65649363 24.9749556,9.57741809 24.9473528,9.50159108 L24.9473528,9.50159108 Z M23.6220907,9.21053868 L17.5157797,9.21053868 L16.7263066,6.05264641 L22.0420919,6.05264641 L23.6220907,9.21053868 Z M13.421046,10.2631694 L16.5789383,10.2631694 L16.5789383,15.2010603 L15.2352551,14.5289556 C15.0871443,14.4549444 14.91284,14.4549444 14.7647292,14.5289556 L13.421046,15.2010603 L13.421046,10.2631694 Z M15.6415706,6.05264641 L16.4310437,9.21053868 L13.5689407,9.21053868 L14.3584137,6.05264641 L15.6415706,6.05264641 Z M7.95683979,6.05264641 L13.2726251,6.05264641 L12.483152,9.21053868 L6.37789366,9.21053868 L7.95683979,6.05264641 Z M23.9473536,23.9473692 L6.05263075,23.9473692 L6.05263075,10.2631694 L12.3684153,10.2631694 L12.3684153,16.0526386 C12.3683303,16.235069 12.4627217,16.4045329 12.6178725,16.500497 C12.7730233,16.596461 12.9668034,16.6052373 13.1299936,16.5236908 L14.9999922,15.5884284 L16.8699907,16.5263224 C17.0336005,16.6080819 17.2279254,16.5990396 17.3832358,16.5024402 C17.5385462,16.4058408 17.6325702,16.2355368 17.6315691,16.0526386 L17.6315691,10.2631694 L23.9473536,10.2631694 L23.9473536,23.9473692 Z" id="Shape-Copy-8"></path>
            </g>
        </g>
    </g>
</svg>