<?xml version="1.0" encoding="UTF-8"?>
<svg width="20px" height="20px" viewBox="0 0 20 20" version="1.1" xmlns="http://www.w3.org/2000/svg" xmlns:xlink="http://www.w3.org/1999/xlink">
    <title>Combined Shape</title>
    <g id="Account/-Login" stroke="none" stroke-width="1" fill="none" fill-rule="evenodd">
        <g id="Menu" transform="translate(-26.000000, -437.000000)" fill="#555555" fill-rule="nonzero">
            <path d="M41.727151,452.384615 L41.7977849,452.417582 C42.5468474,452.784835 43.4275116,452.784835 44.1765741,452.417582 L44.1765741,452.417582 L44.247208,452.384615 L44.3262108,452.384615 C45.2501425,452.385687 45.998912,453.123077 46,454.032967 L46,454.032967 L46,456.010989 C46,456.557212 45.5503784,457 44.9957265,457 L44.9957265,457 L40.9786325,457 C40.4239806,457 39.974359,456.557212 39.974359,456.010989 L39.974359,456.010989 L39.974359,454.032967 C39.9754469,453.123077 40.7242165,452.385687 41.6481481,452.384615 L41.6481481,452.384615 L41.727151,452.384615 Z M27.752792,452.384615 L27.8234259,452.417582 C28.5724884,452.784835 29.4531526,452.784835 30.2022151,452.417582 L30.2022151,452.417582 L30.272849,452.384615 L30.3518519,452.384615 C31.2757835,452.385687 32.0245531,453.123077 32.025641,454.032967 L32.025641,454.032967 L32.025641,456.010989 C32.025641,456.557212 31.5760194,457 31.0213675,457 L31.0213675,457 L27.0042735,457 C26.4496216,457 26,456.557212 26,456.010989 L26,456.010989 L26,454.032967 C26.001088,453.123077 26.7498575,452.385687 27.6737892,452.384615 L27.6737892,452.384615 L27.752792,452.384615 Z M44.3975142,453.046593 C43.5030832,453.455385 42.4712758,453.455385 41.5768447,453.046593 C41.0512331,453.083434 40.6439583,453.514066 40.6438746,454.032967 L40.6438746,454.032967 L40.6438746,456.010989 C40.6438746,456.193049 40.7937625,456.340659 40.9786325,456.340659 L40.9786325,456.340659 L44.9957265,456.340659 C45.1805965,456.340659 45.3304843,456.193049 45.3304843,456.010989 L45.3304843,456.010989 L45.3304843,454.032967 C45.3304006,453.514066 44.9231259,453.083434 44.3975142,453.046593 Z M30.4231553,453.046593 C29.5287242,453.455385 28.4969168,453.455385 27.6024858,453.046593 C27.0768741,453.083434 26.6695994,453.514066 26.6695157,454.032967 L26.6695157,454.032967 L26.6695157,456.010989 C26.6695157,456.193049 26.8194035,456.340659 27.0042735,456.340659 L27.0042735,456.340659 L31.0213675,456.340659 C31.2062375,456.340659 31.3561254,456.193049 31.3561254,456.010989 L31.3561254,456.010989 L31.3561254,454.032967 C31.3560417,453.514066 30.9487669,453.083434 30.4231553,453.046593 Z M34.2397271,453.423623 C34.4164679,453.372467 34.601625,453.472638 34.6533723,453.647362 C34.7051196,453.822086 34.6037915,454.00513 34.4270507,454.056287 L34.4270507,454.056287 L34.1150669,454.146903 C35.6924434,454.560688 37.3640234,454.446924 38.8691536,453.823322 L38.8691536,453.823322 L38.9429036,453.80171 C39.0918929,453.776064 39.2445687,453.85379 39.3064226,453.997304 L39.3064226,453.997304 C39.3786272,454.166056 39.299298,454.359397 39.1298068,454.430283 C37.4066878,455.151956 35.4825793,455.255464 33.6904222,454.72289 L33.6904222,454.72289 L33.9617415,455.235611 C34.0469871,455.397031 33.9836987,455.59618 33.8204155,455.680453 C33.6571323,455.764726 33.4556844,455.702159 33.3704388,455.54074 L33.3704388,455.54074 L32.7038067,454.279696 C32.7001402,454.275083 32.7021401,454.269811 32.7001402,454.265198 C32.6860576,454.222032 32.6749332,454.178001 32.6668086,454.133393 C32.6654337,454.086767 32.6740583,454.040388 32.6921407,453.997304 C32.7107647,453.954509 32.7386382,453.916285 32.7738031,453.88527 C32.7844275,453.877609 32.795552,453.870689 32.8071347,453.864511 C32.8332583,453.844658 32.8622568,453.828759 32.8931302,453.817391 C32.8977967,453.815743 32.9014631,453.810141 32.9064629,453.810141 L32.9064629,453.810141 Z M42.9871795,448.025641 C44.0842268,448.026717 44.9732826,448.915773 44.974359,450.012821 C44.974359,451.110323 44.0846822,452 42.9871795,452 C41.8896768,452 41,451.110323 41,450.012821 C41,448.915318 41.8896768,448.025641 42.9871795,448.025641 Z M29.0128205,448.025641 C30.1098678,448.026717 30.9989236,448.915773 31,450.012821 C31,451.110323 30.1103232,452 29.0128205,452 C27.9153178,452 27.025641,451.110323 27.025641,450.012821 C27.025641,448.915318 27.9153178,448.025641 29.0128205,448.025641 Z M42.9871795,448.688034 C42.2555248,448.688034 41.6623932,449.281166 41.6623932,450.012821 C41.6623932,450.744475 42.2555248,451.337607 42.9871795,451.337607 C43.7188341,451.337607 44.3119658,450.744475 44.3119658,450.012821 C44.3119658,449.281166 43.7188341,448.688034 42.9871795,448.688034 Z M29.0128205,448.688034 C28.2811659,448.688034 27.6880342,449.281166 27.6880342,450.012821 C27.6880342,450.744475 28.2811659,451.337607 29.0128205,451.337607 C29.7444752,451.337607 30.3376068,450.744475 30.3376068,450.012821 C30.3376068,449.281166 29.7444752,448.688034 29.0128205,448.688034 Z M31.3255234,439.258235 C31.3961124,439.087828 31.5927349,439.006399 31.7646639,439.076362 L31.7646639,439.076362 L33.1108174,439.685772 C33.1240686,439.693777 33.1366888,439.702825 33.1485097,439.71279 C33.1721936,439.724798 33.1942368,439.739683 33.2141346,439.757153 C33.228732,439.774207 33.2416046,439.792636 33.2525,439.81219 C33.264363,439.826575 33.274964,439.842002 33.2841346,439.858221 C33.2841346,439.86089 33.2827885,439.863225 33.2841346,439.86656 C33.2854808,439.869896 33.2891827,439.871897 33.2891827,439.874899 C33.2939363,439.893829 33.2968389,439.913133 33.2979327,439.932605 C33.3033173,439.953702 33.3065565,439.975258 33.3076923,439.996981 C33.3049579,440.015661 33.3006671,440.034048 33.2949039,440.052018 C33.2915805,440.076201 33.2854808,440.099926 33.2767308,440.122733 C33.2740385,440.126068 33.2740385,440.129737 33.2740385,440.133073 L33.2740385,440.133073 L32.6009618,441.525009 C32.5450123,441.640461 32.427308,441.713969 32.2980772,441.714136 C32.2475544,441.714178 32.1977467,441.702753 32.1523561,441.68078 C31.9852648,441.600851 31.9149704,441.401968 31.9951927,441.236148 L31.9951927,441.236148 L32.2385099,440.732142 C29.9802113,442.049695 28.5944726,444.45377 28.5961553,447.051058 C28.5961553,447.235265 28.4454702,447.384615 28.2596169,447.384615 C28.0737636,447.384615 27.9230769,447.235265 27.9230769,447.051058 C27.9211855,444.101408 29.5584447,441.39046 32.182308,439.998649 L32.182308,439.998649 L31.4853371,439.68277 C31.328384,439.604342 31.2587626,439.419385 31.3255234,439.258235 Z M38.7188542,439.766026 C38.7904323,439.597354 38.9846272,439.518889 39.1526208,439.590756 C41.8296495,440.73283 43.6681567,443.255899 43.9419057,446.163366 L43.9419057,446.163366 L44.4097255,445.693657 C44.5388306,445.564072 44.7481097,445.564072 44.8772147,445.693657 C45.0064851,445.823117 45.0067744,446.033242 44.877876,446.163034 L44.877876,446.163034 L43.8860318,447.158884 C43.8858665,447.15905 43.8856599,447.159258 43.8854532,447.159465 L43.825616,447.20702 C43.6980065,447.286241 43.5284011,447.270135 43.4178813,447.158884 L43.4178813,447.158884 L42.4260372,446.163034 C42.3023046,446.034362 42.3023046,445.83042 42.4260372,445.70179 C42.5529106,445.569923 42.7621897,445.566271 42.8935264,445.693657 L42.8935264,445.693657 L43.2664598,446.068096 C42.9642779,443.465816 41.2949215,441.226315 38.8934188,440.201544 C38.7254252,440.129677 38.6472762,439.934698 38.7188542,439.766026 Z M34.6758689,441.358974 L34.7465028,441.39359 C35.4955653,441.760884 36.3762295,441.760884 37.125292,441.39359 L37.125292,441.39359 L37.1959259,441.358974 L37.2749288,441.358974 C38.1988604,441.360046 38.94763,442.097436 38.9487179,443.007326 L38.9487179,443.007326 L38.9487179,444.985348 C38.9487179,445.531571 38.4990963,445.974359 37.9444444,445.974359 L37.9444444,445.974359 L33.9273504,445.974359 C33.3726985,445.974359 32.9230769,445.531571 32.9230769,444.985348 L32.9230769,444.985348 L32.9230769,443.007326 C32.9241649,442.097436 33.6729345,441.360046 34.5968661,441.358974 L34.5968661,441.358974 L34.6758689,441.358974 Z M37.3462322,442.020952 C36.4518429,442.429744 35.4199938,442.429744 34.5255627,442.020952 C33.999951,442.057793 33.5926763,442.488425 33.5925926,443.007326 L33.5925926,443.007326 L33.5925926,444.985348 C33.5925926,445.167408 33.7424804,445.315018 33.9273504,445.315018 L33.9273504,445.315018 L37.9444444,445.315018 C38.1293145,445.315018 38.2792023,445.167408 38.2792023,444.985348 L38.2792023,444.985348 L38.2792023,443.007326 C38.2791186,442.488425 37.871802,442.057793 37.3462322,442.020952 Z M35.9358974,437 C37.0334001,437 37.9230769,437.889677 37.9230769,438.987179 C37.9220005,440.084227 37.0329447,440.973283 35.9358974,440.974359 C34.8383948,440.974359 33.9487179,440.084682 33.9487179,438.987179 C33.9487179,437.889677 34.8383948,437 35.9358974,437 Z M35.9358974,437.662393 C35.2042428,437.662393 34.6111111,438.255525 34.6111111,438.987179 C34.6111111,439.718834 35.2042428,440.311966 35.9358974,440.311966 C36.6675521,440.311966 37.2606838,439.718834 37.2606838,438.987179 C37.2606838,438.255525 36.6675521,437.662393 35.9358974,437.662393 Z" id="Combined-Shape"></path>
        </g>
    </g>
</svg>