<?xml version="1.0" encoding="UTF-8"?>
<svg width="20px" height="16px" viewBox="0 0 20 16" version="1.1" xmlns="http://www.w3.org/2000/svg" xmlns:xlink="http://www.w3.org/1999/xlink">
    <title>Shape</title>
    <g id="Comment-(MỚI-CẬP-NHẬT)" stroke="none" stroke-width="1" fill="none" fill-rule="evenodd">
        <g id="PC/Detail/Cmt-Step4" transform="translate(-431.000000, -390.000000)" fill="#555555" fill-rule="nonzero">
            <g id="Group-11" transform="translate(431.000000, 389.000000)">
                <path d="M7.55580429,1 C6.80803571,1 6.16071429,1.49665143 5.85937571,2.17187571 L5.74776857,2.42857143 L2.14285714,2.42857143 C0.965401429,2.42857143 0,3.39397286 0,4.57142857 L0,14.5714286 C0,15.7488843 0.965401429,16.7142857 2.14285714,16.7142857 L17.8571429,16.7142857 C19.0345986,16.7142857 20,15.7488843 20,14.5714286 L20,4.57142857 C20,3.39397286 19.0345986,2.42857143 17.8571429,2.42857143 L14.2578129,2.42857143 L14.1406257,2.17187571 C13.8337057,1.49665143 13.1919643,1 12.4441971,1 L7.55580429,1 Z M7.55580429,2.42857143 L12.4441971,2.42857143 C12.5669643,2.42857143 12.7232143,2.51227714 12.8348214,2.75781286 L13.3314729,3.85714286 L17.8571429,3.85714286 C18.2589286,3.85714286 18.5714286,4.16964286 18.5714286,4.57142857 L18.5714286,14.5714286 C18.5714286,14.9732143 18.2589286,15.2857143 17.8571429,15.2857143 L2.14285714,15.2857143 C1.74107143,15.2857143 1.42857143,14.9732143 1.42857143,14.5714286 L1.42857143,4.57142857 C1.42857143,4.16964286 1.74107143,3.85714286 2.14285714,3.85714286 L6.66852714,3.85714286 L7.16517857,2.75781286 C7.27120571,2.51227714 7.43303571,2.42857143 7.55580429,2.42857143 Z M2.85714286,5.28571429 L2.85714286,6.71428571 L4.28571429,6.71428571 L4.28571429,5.28571429 L2.85714286,5.28571429 Z M10,5.28571429 C7.63950857,5.28571429 5.71428571,7.21093714 5.71428571,9.57142857 C5.71428571,11.93192 7.63950857,13.8571429 10,13.8571429 C12.3604914,13.8571429 14.2857143,11.93192 14.2857143,9.57142857 C14.2857143,7.21093714 12.3604914,5.28571429 10,5.28571429 Z M10,6.71428571 C11.5848214,6.71428571 12.8571429,7.98660714 12.8571429,9.57142857 C12.8571429,11.15625 11.5848214,12.4285714 10,12.4285714 C8.41517857,12.4285714 7.14285714,11.15625 7.14285714,9.57142857 C7.14285714,7.98660714 8.41517857,6.71428571 10,6.71428571 Z" id="Shape"></path>
            </g>
        </g>
    </g>
</svg>