<?xml version="1.0" encoding="UTF-8"?>
<svg width="20px" height="20px" viewBox="0 0 20 20" version="1.1" xmlns="http://www.w3.org/2000/svg" xmlns:xlink="http://www.w3.org/1999/xlink">
    <title>Combined Shape</title>
    <g id="Product-Detail-(MỚI-CẬP-NHẬT)" stroke="none" stroke-width="1" fill="none" fill-rule="evenodd">
        <g id="More-action" transform="translate(-18.000000, -164.000000)" fill="#555555" fill-rule="nonzero">
            <g id="Group-8" transform="translate(0.000000, 60.000000)">
                <g id="Group-4" transform="translate(18.000000, 22.000000)">
                    <path d="M10,82 C12.6711328,82 15.1823438,83.0401563 17.0710937,84.9289063 C18.9598437,86.8176563 20,89.3288672 20,92 C20,94.3573438 19.1641797,96.6462891 17.6464453,98.4452344 C17.2866406,98.87125 16.8896875,99.2691797 16.4664063,99.6282031 C14.6642969,101.157656 12.3677734,102 10,102 C7.63222656,102 5.33570313,101.157656 3.53347656,99.6280859 C3.1103125,99.2691797 2.71335937,98.87125 2.35375,98.4454688 C0.835820312,96.64625 0,94.3573047 0,92 C0,89.3288672 1.04015625,86.8176563 2.92890625,84.9289063 C4.81765625,83.0401563 7.32886719,82 10,82 Z M10.0823047,92.0003906 L9.91769531,92.0003906 C6.86117187,92.0442969 4.375,94.5669922 4.375,97.625 C4.375,98.0224889 4.41658758,98.4180939 4.49873798,98.8037877 L4.3421875,98.6749609 C5.91890625,100.013086 7.92816406,100.75 10,100.75 C12.0037231,100.75 13.9489151,100.060742 15.5008106,98.8050523 L15.4558984,98.9994141 C15.5680859,98.5524219 15.625,98.09 15.625,97.625 C15.625,94.5669922 13.1388281,92.0442969 10.0823047,92.0003906 Z M10,83.25 C5.17523437,83.25 1.25,87.1752344 1.25,92 C1.25,93.9674148 1.91521857,95.8802446 3.12878389,97.4183799 L3.125,97.625 C3.125,95.8055469 3.82878906,94.0905078 5.10671875,92.7957031 C5.83333421,92.0595056 6.69811156,91.5070346 7.64320767,91.1629485 C6.79377514,90.4766315 6.25,89.4256293 6.25,88.25 C6.25,86.1822266 7.93222656,84.5 10,84.5 C12.0677734,84.5 13.75,86.1822266 13.75,88.25 C13.75,89.4256293 13.2062249,90.4766315 12.3569806,91.1647008 C13.3018884,91.5069829 14.1666658,92.0594665 14.8932812,92.7956641 C16.12224,94.0408888 16.8202178,95.6747216 16.8719068,97.4163107 L16.69125,97.6389063 C18.0187891,96.0654297 18.75,94.0627344 18.75,92 C18.75,87.1752344 14.8247656,83.25 10,83.25 Z M10,85.75 C8.62148438,85.75 7.5,86.8714844 7.5,88.25 C7.5,89.6285156 8.62148438,90.75 10,90.75 C11.3785156,90.75 12.5,89.6285156 12.5,88.25 C12.5,86.8714844 11.3785156,85.75 10,85.75 Z" id="Combined-Shape"></path>
                </g>
            </g>
        </g>
    </g>
</svg>