<?xml version="1.0" encoding="UTF-8"?>
<svg width="20px" height="22px" viewBox="0 0 20 22" version="1.1" xmlns="http://www.w3.org/2000/svg" xmlns:xlink="http://www.w3.org/1999/xlink">
    <title>Combined Shape</title>
    <g id="Product-Detail-(MỚI-CẬP-NHẬT)" stroke="none" stroke-width="1" fill="none" fill-rule="evenodd">
        <g id="More-action" transform="translate(-18.000000, -242.000000)" fill="#555555" fill-rule="nonzero">
            <g id="Group-8" transform="translate(0.000000, 60.000000)">
                <g id="Group-4" transform="translate(18.000000, 22.000000)">
                    <path d="M16.5800866,160 C18.4652137,160 20,161.533951 20,163.419913 C20,165.305875 18.4652137,166.839827 16.5800866,166.839827 C15.548319,166.839827 14.6214176,166.380236 13.9937117,165.654891 L6.65034471,169.829172 C6.7730859,170.181122 6.83982684,170.559098 6.83982684,170.952381 C6.83982684,171.318974 6.7818372,171.672267 6.67455692,172.003579 L13.993346,176.163713 C14.6210575,175.438124 15.5481185,174.978355 16.5800866,174.978355 C18.4652137,174.978355 20,176.512306 20,178.398268 C20,180.28423 18.4652137,181.818182 16.5800866,181.818182 C14.6951265,181.818182 13.1601732,180.28423 13.1601732,178.398268 C13.1601732,178.031675 13.2181691,177.678383 13.3254583,177.347071 L6.00720645,173.186362 C5.37951391,173.912283 4.45224491,174.372294 3.41991342,174.372294 C1.53478635,174.372294 1.33226763e-14,172.838343 1.33226763e-14,170.952381 C1.33226763e-14,169.066419 1.53478635,167.532468 3.41991342,167.532468 C4.42481974,167.532468 5.33017165,167.968362 5.95654951,168.661111 L13.3257268,164.47194 C13.2182659,164.140388 13.1601732,163.786812 13.1601732,163.419913 C13.1601732,161.533951 14.6951265,160 16.5800866,160 Z M16.5800866,176.34632 C15.8554447,176.34632 15.2169255,176.724135 14.8517087,177.293377 C14.8403426,177.331604 14.823247,177.369276 14.8023818,177.405831 C14.7825942,177.440559 14.7601836,177.472873 14.7355426,177.50267 C14.6022485,177.773208 14.5281385,178.07722 14.5281385,178.398268 C14.5281385,179.530113 15.4492441,180.450216 16.5800866,180.450216 C17.710929,180.450216 18.6320346,179.530113 18.6320346,178.398268 C18.6320346,177.266424 17.710929,176.34632 16.5800866,176.34632 Z M3.41991342,168.900433 C2.28907096,168.900433 1.36796537,169.820537 1.36796537,170.952381 C1.36796537,172.084225 2.28907096,173.004329 3.41991342,173.004329 C4.14451482,173.004329 4.78300319,172.626556 5.14823018,172.057368 C5.15969672,172.019184 5.17679449,171.981511 5.19765967,171.944955 C5.21702851,171.910782 5.23892182,171.878945 5.26297356,171.849543 C5.39719814,171.579707 5.47186147,171.274626 5.47186147,170.952381 C5.47186147,169.820537 4.55075588,168.900433 3.41991342,168.900433 Z M16.5800866,161.367965 C15.4492441,161.367965 14.5281385,162.288069 14.5281385,163.419913 C14.5281385,163.742158 14.6028019,164.047239 14.7357116,164.31881 C14.7609956,164.346985 14.7828979,164.378849 14.8022667,164.413042 C14.8227904,164.44897 14.8396715,164.485976 14.8530257,164.523634 C15.2161891,165.09361 15.8550268,165.471861 16.5800866,165.471861 C17.710929,165.471861 18.6320346,164.551758 18.6320346,163.419913 C18.6320346,162.288069 17.710929,161.367965 16.5800866,161.367965 Z" id="Combined-Shape"></path>
                </g>
            </g>
        </g>
    </g>
</svg>