<?xml version="1.0" encoding="UTF-8"?>
<svg width="25px" height="25px" viewBox="0 0 25 25" version="1.1" xmlns="http://www.w3.org/2000/svg" xmlns:xlink="http://www.w3.org/1999/xlink">
    <title>Group 5</title>
    <g id="Symbols" stroke="none" stroke-width="1" fill="none" fill-rule="evenodd">
        <g id="CTA_MUA-NGAY-MB" transform="translate(-45.000000, -9.000000)" fill="#2A2A2A" fill-rule="nonzero">
            <g transform="translate(30.000000, 0.000000)" id="Group-5">
                <g transform="translate(15.000000, 9.000000)">
                    <circle id="Oval" cx="7.52041128" cy="12.5" r="1"></circle>
                    <circle id="Oval" cx="12.500491" cy="12.5" r="1"></circle>
                    <path d="M21.3401324,3.66035857 C18.9795746,1.2998008 15.8421244,0 12.500491,0 C9.1588575,0 6.0214073,1.2998008 3.66084953,3.66035857 C1.30029176,6.02091633 0.000490965871,9.15836653 0.000490965871,12.5 C0.000490965871,14.686255 0.573200129,16.8376494 1.6588575,18.7201195 L1.71363838,18.814741 L0.0353515236,24.0239044 C-0.0493098309,24.2928287 0.0204112846,24.5816733 0.219614472,24.7808765 C0.359056703,24.9203187 0.55327981,25 0.747502918,25 C0.827184193,25 0.901885388,24.9900398 0.976586583,24.9651394 L6.18076985,23.2868526 L6.27539136,23.3416335 C8.16284156,24.4272908 10.314236,25 12.500491,25 C15.8421244,25 18.9795746,23.7001992 21.3401324,21.3396414 C23.7006902,18.9790837 25.000491,15.8416335 25.000491,12.5 C25.000491,9.15836653 23.7006902,6.02091633 21.3401324,3.66035857 Z M12.500491,23.5059761 C10.4337579,23.5059761 8.42180571,22.9282869 6.67379774,21.8376494 C6.55427583,21.7629482 6.41981368,21.7231076 6.27539136,21.7231076 C6.19571009,21.7231076 6.12100889,21.7330677 6.0463077,21.7579681 L1.9028814,23.0926295 L3.23754276,18.9492032 C3.30726387,18.7400398 3.2773834,18.5109562 3.15786148,18.3217131 C2.07220411,16.5786853 1.49451487,14.5667331 1.49451487,12.5 C1.49451487,6.42928287 6.42977383,1.4940239 12.500491,1.4940239 C18.5712081,1.4940239 23.5064671,6.42928287 23.5064671,12.5 C23.5064671,18.5707171 18.5712081,23.5059761 12.500491,23.5059761 Z" id="Shape"></path>
                    <circle id="Oval" cx="17.4805706" cy="12.5" r="1"></circle>
                </g>
            </g>
        </g>
    </g>
</svg>