<?xml version="1.0" encoding="UTF-8"?>
<svg width="26px" height="30px" viewBox="0 0 26 30" version="1.1" xmlns="http://www.w3.org/2000/svg" xmlns:xlink="http://www.w3.org/1999/xlink">
    <title>Combined Shape</title>
    <g id="Desktop" stroke="none" stroke-width="1" fill="none" fill-rule="evenodd">
        <g id="PC/Home" transform="translate(-834.000000, -543.000000)" fill="#696969" fill-rule="nonzero">
            <g id="Group-4" transform="translate(834.000000, 543.000000)">
                <path d="M12.5352273,2.30926389e-14 C12.7049101,2.30926389e-14 12.8653741,0.0652515233 12.9870905,0.183510906 C16.0049375,3.11781285 19.6182586,4.48449376 24.3582848,4.48449376 C24.7156557,4.48449376 25.0064787,4.77531677 25.0064787,5.1326877 C25.0064787,5.88286415 25.0211711,6.65464707 25.0365837,7.47194761 L25.037592,7.52293886 C25.1126385,11.4554595 25.197768,15.912585 23.6786894,20.0211263 C21.922516,24.7710915 18.3467901,28.0234406 12.7472588,29.9641333 C12.6786942,29.9880444 12.6072489,30 12.5350833,30 C12.4629177,30 12.3914723,29.9879004 12.3224757,29.9641333 C6.72380855,28.0234406 3.14851482,24.7710915 1.39248541,20.0214144 C-0.126305008,15.9131612 -0.0413195807,11.4561797 0.0338709163,7.52365908 C0.0491394846,6.7292614 0.0649842254,5.90792765 0.0649842254,5.13283174 C0.0649842254,4.77546082 0.35580724,4.4846378 0.713178165,4.4846378 C5.45262821,4.4846378 9.06566123,3.11795689 12.0832201,0.18365495 C12.2049365,0.0652515233 12.3655446,2.30926389e-14 12.5352273,2.30926389e-14 Z M12.5349392,1.54342179 L12.2513184,1.79074379 C9.34942613,4.31870016 6.01814141,5.57965343 1.76757364,5.75913113 L1.3593555,5.7764163 L1.35373782,6.18492253 C1.34768801,6.62871931 1.33904542,7.08130273 1.33011475,7.54843449 C1.25377191,11.5463507 1.17498034,15.6803876 2.52768907,19.4399124 C4.08465091,23.766823 7.30977587,26.7668086 12.3875831,28.6114245 L12.5350833,28.6650086 L12.6825834,28.6114245 C17.7606788,26.7668086 20.9860918,23.766679 22.5433417,19.4396243 C23.8963386,15.6798114 23.817547,11.5457745 23.7410601,7.54771428 L23.7397637,7.47482847 C23.7312652,7.0337685 23.7231988,6.60538433 23.7175811,6.18492253 L23.7119634,5.77627226 L23.3036012,5.75898709 C19.0528894,5.57965343 15.7211726,4.31870016 12.8188482,1.79059975 L12.5349392,1.54342179 Z M17.019289,11.3631278 C17.1925728,11.3631278 17.3551975,11.43054 17.4777781,11.5529767 C17.6002148,11.6754133 17.6674829,11.8380379 17.6674829,12.0111777 C17.6674829,12.1843175 17.5999267,12.3470862 17.47749,12.4695229 L11.4997015,18.4474555 C11.3772649,18.569604 11.2143521,18.6370162 11.0412123,18.6370162 C10.8679285,18.6370162 10.7051598,18.569604 10.5828672,18.4474555 L7.5939729,15.4585612 C7.34132131,15.2057656 7.34132131,14.7945225 7.5939729,14.5417269 C7.71626549,14.4192903 7.87903419,14.3520221 8.05217399,14.3520221 C8.2253138,14.3520221 8.38822654,14.4194343 8.51066317,14.5418709 L11.0412123,17.0724201 L16.5609438,11.5529767 C16.6833804,11.43054 16.8460051,11.3631278 17.019289,11.3631278 Z" id="Combined-Shape"></path>
            </g>
        </g>
    </g>
</svg>