<?xml version="1.0" encoding="UTF-8"?>
<svg width="20px" height="14px" viewBox="0 0 20 14" version="1.1" xmlns="http://www.w3.org/2000/svg" xmlns:xlink="http://www.w3.org/1999/xlink">
    <title>Shape</title>
    <g id="Symbols" stroke="none" stroke-width="1" fill="none" fill-rule="evenodd">
        <g id="Ưu-đãi" transform="translate(-22.000000, -169.000000)" fill="#848484" fill-rule="nonzero">
            <g id="Shape">
                <path d="M41.3210758,175.239554 L39.9591954,174.650833 L38.8027133,172.402988 C38.4901506,171.787506 37.8560948,171.403945 37.1639916,171.408405 L35.1725206,171.408405 L35.1725206,170.846444 C35.1725206,169.829562 34.3598575,169 33.3417961,169 L23.8220286,169 C22.8039672,169 22.0001157,169.834022 22.0001157,170.846444 L22.0001157,179.454263 C21.9913041,180.074205 22.4869393,180.582646 23.1075996,180.591566 C23.1120647,180.591566 23.1165299,180.591566 23.1254603,180.591566 L23.3621149,180.591566 C23.3621149,180.636166 23.3576497,180.654006 23.3576497,180.680766 C23.3531846,181.956329 24.3846415,182.995511 25.6616835,182.999986 C26.9387255,183.004431 27.9791128,181.974169 27.983578,180.698606 C27.983578,180.689686 27.983578,180.685226 27.983578,180.676306 C27.983578,180.645086 27.983578,180.631706 27.9791128,180.587106 L35.6726209,180.587106 C35.6726209,180.631706 35.6726209,180.649546 35.6726209,180.676306 C35.6681557,181.951869 36.6996127,182.991051 37.9766547,182.995511 C39.2536967,182.999986 40.294084,181.969709 40.2985492,180.694146 C40.2985492,180.685226 40.2985492,180.680766 40.2985492,180.671846 C40.2985492,180.640626 40.2985492,180.627246 40.2985492,180.582646 L40.8745576,180.582646 C41.4952179,180.582646 41.9997834,180.078665 41.9997834,179.458723 C41.9997834,179.454263 41.9997834,179.449803 41.9997834,179.440883 L41.9997834,176.274276 C42.0087138,175.837195 41.7408029,175.422414 41.3210758,175.239554 Z M25.6750791,182.112429 C24.8892071,182.112429 24.2551513,181.479108 24.2551513,180.694146 C24.2551513,179.909184 24.8892071,179.275863 25.6750791,179.275863 C26.460951,179.275863 27.0950068,179.909184 27.0950068,180.694146 C27.0950068,181.474648 26.4564859,182.112429 25.6750791,182.112429 Z M34.2794842,179.708484 L27.7692493,179.708484 C27.394174,178.892302 26.5725806,178.370481 25.6750791,178.374941 C24.7731123,178.370481 23.9559841,178.887842 23.5809088,179.708484 L23.1254603,179.708484 C22.9870397,179.708484 22.8932708,179.601444 22.8932708,179.463183 L22.8932708,177.166278 L34.2794842,177.166278 L34.2794842,179.708484 Z M34.2795543,176.274276 L22.8932708,176.274276 L22.8932708,170.850904 C22.8932708,170.329083 23.2996024,169.896462 23.8220286,169.896462 L33.3417961,169.896462 C33.8642223,169.900922 34.2839494,170.329083 34.2795543,170.846444 L34.2795543,176.274276 Z M37.1639916,172.304867 C37.516741,172.300407 37.8471644,172.492188 38.0123761,172.808848 L38.9054125,174.534872 L35.1725206,174.534872 L35.1725206,172.304867 L37.1639916,172.304867 Z M37.9900502,182.112429 C37.2041783,182.112429 36.5701224,181.479108 36.5701224,180.694146 C36.5701224,179.909184 37.2041783,179.275863 37.9900502,179.275863 C38.7759222,179.275863 39.409978,179.909184 39.409978,180.694146 C39.409978,181.474648 38.7759222,182.112429 37.9900502,182.112429 Z M41.1112123,179.463183 C41.1112123,179.601444 41.0174434,179.708484 40.8790228,179.708484 L40.0842205,179.708484 C39.5439335,178.553341 38.1686575,178.05382 37.0121754,178.593481 C36.5210054,178.820942 36.1236043,179.217883 35.89588,179.708484 L35.1725206,179.708484 L35.1725206,175.426874 L39.5483987,175.426874 L40.9683264,176.051276 C41.0576301,176.095876 41.1156774,176.193996 41.1112123,176.292116 L41.1112123,179.463183 Z"></path>
            </g>
        </g>
    </g>
</svg>