<?xml version="1.0" encoding="UTF-8"?>
<svg width="11px" height="14px" viewBox="0 0 11 14" version="1.1" xmlns="http://www.w3.org/2000/svg" xmlns:xlink="http://www.w3.org/1999/xlink">
    <title>Combined Shape 2</title>
    <g id="Desktop" stroke="none" stroke-width="1" fill="none" fill-rule="evenodd">
        <g id="PC/Adress/-Edit-thanh-toán/-Khi-xoá-tên-cũ-nhập-tên-mới" transform="translate(-107.000000, -247.000000)" fill="#555555" fill-rule="nonzero">
            <g id="Group-24" transform="translate(102.000000, 244.000000)">
                <g id="Combined-Shape-2" transform="translate(5.333333, 3.333333)">
                    <path d="M2.97809309,0.153947219 C3.20727722,-0.0513157398 3.55419458,-0.0513157398 3.7833787,0.153947219 L3.7833787,0.153947219 L4.92319824,1.17316419 L6.06274594,0.153947219 C6.29186966,-0.0513157398 6.63875681,-0.0513157398 6.86788053,0.153947219 L6.86788053,0.153947219 L8.00836455,1.17413071 L8.84663238,0.43187979 C9.02323222,0.27282818 9.27757586,0.234167705 9.49347045,0.333597614 L9.49347045,0.333597614 L9.58153465,0.38203909 C9.74733365,0.492461839 9.84893784,0.680661672 9.84641547,0.884328161 L9.84641547,0.884328161 L9.84641547,12.0141956 C9.84739501,12.1625854 9.79342137,12.3061124 9.69480695,12.4169895 C9.47471408,12.6645373 9.09559979,12.6867671 8.84805194,12.466644 L8.84805194,12.466644 L8.00899882,11.7244233 L6.86821277,12.7445766 C6.63902864,12.9498093 6.29211129,12.9498093 6.06292716,12.7445766 L6.06292716,12.7445766 L4.92319824,11.7253596 L3.78365053,12.7446974 C3.55452681,12.9499604 3.20763966,12.9499604 2.97851594,12.7446974 L2.97851594,12.7446974 L1.83803193,11.7245139 L0.9997641,12.4667648 C0.888887066,12.5653188 0.745450663,12.6193831 0.597121294,12.6185072 C0.265396297,12.616544 -0.00193484658,12.3460415 1.39919053e-05,12.0143165 L1.39919053e-05,12.0143165 L1.39919053e-05,0.884328161 C-0.000998538199,0.736028995 0.0529751093,0.592592593 0.151498913,0.481745762 C0.371561586,0.234167705 0.750675868,0.211847321 0.998253925,0.431909994 L0.998253925,0.431909994 L1.83730705,1.17413071 Z M6.46553976,0.604251142 L5.32584104,1.62346812 C5.09668712,1.82873108 4.74976976,1.82873108 4.52061584,1.62346812 L4.52061584,1.62346812 L3.38103793,0.604251142 L2.24058412,1.62440442 C2.01251753,1.82864047 1.6675936,1.82954657 1.43843968,1.62654887 L1.43843968,1.62654887 L0.601077952,0.884479178 L0.604098302,10.4039869 L0.604098302,12.0139842 L1.44010087,11.2719447 C1.6684091,11.0689772 2.01272895,11.0699135 2.23991965,11.2741194 L2.23991965,11.2741194 L3.38085671,12.2942727 L4.52055543,11.2750557 C4.74970936,11.0697927 5.09662671,11.0697927 5.32578064,11.2750557 L5.32578064,11.2750557 L6.46535854,12.2942727 L7.60581235,11.2741194 C7.83387895,11.0698833 8.17880287,11.0689772 8.4079568,11.2719749 L8.4079568,11.2719749 L9.24531852,12.0140446 L9.24229817,8.53523615 L9.24229817,0.884328161 L8.40629561,1.62657908 C8.17798738,1.82954657 7.83366752,1.82861026 7.60647683,1.62440442 L7.60647683,1.62440442 L6.46553976,0.604251142 Z M7.78627824,7.9594367 C7.95306194,7.9594367 8.0883132,8.09465776 8.0883132,8.26147167 C8.0883132,8.42828557 7.95309215,8.56350663 7.78627824,8.56350663 L7.78627824,8.56350663 L2.06011824,8.56350663 C1.89330433,8.56350663 1.75808328,8.42828557 1.75808328,8.26147167 C1.75808328,8.09465776 1.89330433,7.9594367 2.06011824,7.9594367 L2.06011824,7.9594367 Z M7.78627824,6.14722694 C7.95306194,6.14722694 8.0883132,6.28244799 8.0883132,6.4492619 C8.0883132,6.61607581 7.95309215,6.75129686 7.78627824,6.75129686 L7.78627824,6.75129686 L2.06011824,6.75129686 C1.89330433,6.75129686 1.75808328,6.61607581 1.75808328,6.4492619 C1.75808328,6.28244799 1.89330433,6.14722694 2.06011824,6.14722694 L2.06011824,6.14722694 Z M5.06796359,4.33501718 C5.2347473,4.33501718 5.36999855,4.47023823 5.36999855,4.63705214 C5.36999855,4.80386605 5.2347775,4.9390871 5.06796359,4.9390871 L5.06796359,4.9390871 L2.06011824,4.9390871 C1.89330433,4.9390871 1.75808328,4.80386605 1.75808328,4.63705214 C1.75808328,4.47023823 1.89330433,4.33501718 2.06011824,4.33501718 L2.06011824,4.33501718 Z" id="Combined-Shape"></path>
                </g>
            </g>
        </g>
    </g>
</svg>