<?xml version="1.0" encoding="UTF-8"?>
<svg width="21px" height="17px" viewBox="0 0 21 17" version="1.1" xmlns="http://www.w3.org/2000/svg" xmlns:xlink="http://www.w3.org/1999/xlink">
    <title>Icon/logo-twitter</title>
    <defs>
        <path d="M84,4.01546392 C83.2125,4.36597938 82.425,4.62886598 81.55,4.71649485 C82.425,4.19072165 83.125,3.31443299 83.475,2.35051546 C82.6,2.87628866 81.725,3.22680412 80.7625,3.40206186 C79.975,2.5257732 78.8375,2 77.6125,2 C75.25,2 73.325,3.92783505 73.325,6.29381443 C73.325,6.6443299 73.325,6.99484536 73.4125,7.25773196 C69.7375,7.08247423 66.5875,5.32989691 64.4875,2.70103093 C64.05,3.40206186 63.875,4.10309278 63.875,4.89175258 C63.875,6.3814433 64.6625,7.69587629 65.8,8.48453608 C65.1,8.48453608 64.4,8.30927835 63.875,7.95876289 C63.875,7.95876289 63.875,7.95876289 63.875,8.04639175 C63.875,10.1494845 65.3625,11.9020619 67.2875,12.2525773 C66.9375,12.3402062 66.5875,12.4278351 66.15,12.4278351 C65.8875,12.4278351 65.625,12.4278351 65.3625,12.3402062 C65.8875,14.0927835 67.4625,15.3195876 69.3875,15.3195876 C67.9,16.4587629 66.0625,17.1597938 64.05,17.1597938 C63.7,17.1597938 63.35,17.1597938 63,17.0721649 C64.925,18.2989691 67.2,19 69.5625,19 C77.525,19 81.8125,12.4278351 81.8125,6.73195876 C81.8125,6.55670103 81.8125,6.3814433 81.8125,6.20618557 C82.6875,5.59278351 83.3875,4.80412371 84,4.01546392 Z" id="path-1"></path>
    </defs>
    <g id="Symbols" stroke="none" stroke-width="1" fill="none" fill-rule="evenodd">
        <g id="MB-Footer" transform="translate(-81.000000, -489.000000)">
            <g id="Group-7" transform="translate(18.000000, 487.000000)">
                <mask id="mask-2" fill="white">
                    <use xlink:href="#path-1"></use>
                </mask>
                <use id="Icon/logo-twitter" fill="#C5C5C5" xlink:href="#path-1"></use>
            </g>
        </g>
    </g>
</svg>