<svg width="18" height="19" viewBox="0 0 18 19" fill="none" xmlns="http://www.w3.org/2000/svg">
<path d="M9.01494 3.14697C6.53244 3.14697 4.51494 5.16447 4.51494 7.64697V9.81447C4.51494 10.272 4.31994 10.9695 4.08744 11.3595L3.22494 12.792C2.69244 13.677 3.05994 14.6595 4.03494 14.9895C7.26744 16.0695 10.7549 16.0695 13.9874 14.9895C14.8949 14.6895 15.2924 13.617 14.7974 12.792L13.9349 11.3595C13.7099 10.9695 13.5149 10.272 13.5149 9.81447V7.64697C13.5149 5.17197 11.4899 3.14697 9.01494 3.14697Z" stroke="#696969" stroke-miterlimit="10" stroke-linecap="round"/>
<path d="M10.4024 3.36443C10.1699 3.29693 9.92994 3.24443 9.68244 3.21443C8.96244 3.12443 8.27244 3.17693 7.62744 3.36443C7.84494 2.80943 8.38494 2.41943 9.01494 2.41943C9.64494 2.41943 10.1849 2.80943 10.4024 3.36443Z" stroke="#696969" stroke-miterlimit="10" stroke-linecap="round" stroke-linejoin="round"/>
<path d="M11.2651 15.2593C11.2651 16.4968 10.2526 17.5093 9.01514 17.5093C8.40014 17.5093 7.83014 17.2543 7.42514 16.8493C7.02014 16.4443 6.76514 15.8743 6.76514 15.2593" stroke="#696969" stroke-miterlimit="10"/>
</svg>
