<?xml version="1.0" encoding="UTF-8"?>
<svg width="23px" height="20px" viewBox="0 0 23 20" version="1.1" xmlns="http://www.w3.org/2000/svg" xmlns:xlink="http://www.w3.org/1999/xlink">
    <title>Combined Shape</title>
    <g id="Symbols" stroke="none" stroke-width="1" fill="none" fill-rule="evenodd">
        <g id="CTA" transform="translate(-17.000000, -10.000000)" fill="#555555" fill-rule="nonzero">
            <path d="M25.3928571,26.0714286 C26.4759425,26.0714286 27.3571429,26.952629 27.3571429,28.0357143 C27.3571429,29.1187996 26.4759425,30 25.3928571,30 C24.3097718,30 23.4285714,29.1187996 23.4285714,28.0357143 C23.4285714,26.952629 24.3097718,26.0714286 25.3928571,26.0714286 Z M34.5,26.0714286 C35.5830853,26.0714286 36.4642857,26.952629 36.4642857,28.0357143 C36.4642857,29.1187996 35.5830853,30 34.5,30 C33.4169147,30 32.5357143,29.1187996 32.5357143,28.0357143 C32.5357143,26.952629 33.4169147,26.0714286 34.5,26.0714286 Z M25.3928571,27.3809524 C25.0318856,27.3809524 24.7380952,27.6747427 24.7380952,28.0357143 C24.7380952,28.3966859 25.0318856,28.6904762 25.3928571,28.6904762 C25.7538287,28.6904762 26.047619,28.3966859 26.047619,28.0357143 C26.047619,27.6747427 25.7538287,27.3809524 25.3928571,27.3809524 Z M34.5,27.3809524 C34.1390284,27.3809524 33.8452381,27.6747427 33.8452381,28.0357143 C33.8452381,28.3966859 34.1390284,28.6904762 34.5,28.6904762 C34.8609716,28.6904762 35.1547619,28.3966859 35.1547619,28.0357143 C35.1547619,27.6747427 34.8609716,27.3809524 34.5,27.3809524 Z M21.5410232,10 C21.8113222,10 22.0493189,10.1722332 22.145262,10.4256993 L22.1743676,10.5243792 L22.6380993,12.6785714 L38.4941766,12.6785714 C38.6977456,12.6785714 38.8894889,12.777274 39.0121371,12.9450335 C39.1142031,13.084833 39.1584318,13.2590254 39.1379794,13.4301701 L39.1178916,13.5321917 L36.5230212,22.9071917 C36.4522929,23.162648 36.2432784,23.3476954 35.9943382,23.3856633 L35.8993062,23.3928571 L24.1363582,23.3929443 C23.7772407,23.3939035 23.487176,23.6938477 23.487176,24.0625 C23.487176,24.3981141 23.7277366,24.6769446 24.0401746,24.7248674 L24.1358937,24.7321429 L35.8993062,24.7321429 C36.2576213,24.7321429 36.5480238,25.0319127 36.5480238,25.4017857 C36.5480238,25.7380339 36.3080218,26.0163456 35.9951776,26.0641688 L35.8993062,26.0714286 L24.1358937,26.0714286 C23.0628066,26.0714286 22.1897408,25.1702009 22.1897408,24.0625 C22.1897408,23.2381766 22.6734071,22.5285993 23.3628385,22.2192383 C23.2423624,21.659779 21.1891887,12.1223083 21.0282574,11.3744231 L21.0206977,11.3392857 L17.6487176,11.3392857 C17.2904025,11.3392857 17,11.0395159 17,10.6696429 C17,10.3333946 17.2400021,10.055083 17.5528462,10.0072598 L17.6487176,10 L21.5410232,10 Z M37.634119,14.0178571 L22.9263056,14.0178571 L24.6562192,22.0535714 L35.4098961,22.0535714 L37.634119,14.0178571 Z M30.125,15.3571429 C30.470178,15.3571429 30.75,15.6369649 30.75,15.9821429 L30.7497143,17.3211429 L32.0892857,17.3214286 C32.4344637,17.3214286 32.7142857,17.6012506 32.7142857,17.9464286 C32.7142857,18.2916065 32.4344637,18.5714286 32.0892857,18.5714286 L30.7497143,18.5711429 L30.75,19.9107143 C30.75,20.2558923 30.470178,20.5357143 30.125,20.5357143 C29.779822,20.5357143 29.5,20.2558923 29.5,19.9107143 L29.4997143,18.5711429 L28.1607143,18.5714286 C27.8155363,18.5714286 27.5357143,18.2916065 27.5357143,17.9464286 C27.5357143,17.6012506 27.8155363,17.3214286 28.1607143,17.3214286 L29.4997143,17.3211429 L29.5,15.9821429 C29.5,15.6369649 29.779822,15.3571429 30.125,15.3571429 Z" id="Combined-Shape"></path>
        </g>
    </g>
</svg>