<?xml version="1.0" encoding="UTF-8"?>
<svg width="21px" height="21px" viewBox="0 0 21 21" version="1.1" xmlns="http://www.w3.org/2000/svg" xmlns:xlink="http://www.w3.org/1999/xlink">
    <title>Combined Shape</title>
    <g id="Symbols" stroke="none" stroke-width="1" fill="none" fill-rule="evenodd">
        <g id="MB-Footer" transform="translate(-47.000000, -487.000000)" fill="#C5C5C5">
            <g id="Group-7" transform="translate(18.000000, 487.000000)">
                <path d="M43.0812124,0.0295270991 L43.2835821,0.0371280982 C43.45354,0.0438856315 43.6292613,0.0517215158 43.8292885,0.0607852453 C45.5357699,0.13867081 47.0348483,0.55697755 48.2381365,1.76026577 C49.4414247,2.96355398 49.8597315,4.46263232 49.937617,6.16911379 C49.9466808,6.36914093 49.9545166,6.5448623 49.9612742,6.71482019 L49.9688752,6.91718987 C49.988999,7.48945695 49.9973483,8.08083739 49.9997989,9.42011599 L50.0005775,10.2030238 L50.0005775,10.7953785 L49.9997989,11.5782863 C49.9973483,12.9175649 49.988999,13.5089453 49.9688752,14.0812124 L49.9612742,14.2835821 C49.9545166,14.45354 49.9466808,14.6292613 49.937617,14.8292885 C49.8597315,16.5357699 49.4414247,18.0348483 48.2381365,19.2381365 C47.0348483,20.4414247 45.5357699,20.8597315 43.8292885,20.937617 C43.6292613,20.9466808 43.45354,20.9545166 43.2835821,20.9612742 L43.0812124,20.9688752 C42.5089453,20.988999 41.9175649,20.9973483 40.5782863,20.9997989 L39.7953785,21.0005775 L39.2030238,21.0005775 L38.420116,20.9997989 C37.0808374,20.9973483 36.4894569,20.988999 35.9171899,20.9688752 L35.7148202,20.9612742 C35.5448623,20.9545166 35.3691409,20.9466808 35.1691138,20.937617 C33.4626323,20.8597315 31.963554,20.4414247 30.7602658,19.2381365 C29.5569775,18.0348483 29.1386708,16.5357699 29.0607852,14.8292885 C29.0517215,14.6292613 29.0438856,14.45354 29.0371281,14.2835821 L29.0295271,14.0812124 C29.012044,13.5840392 29.0034479,13.0724397 28.999886,12.0685258 L28.9990982,9.19138802 C29.0020769,8.01132936 29.010587,7.45579418 29.0295271,6.91718987 L29.0371281,6.71482019 C29.0438856,6.5448623 29.0517215,6.36914093 29.0607852,6.16911379 C29.1386708,4.46263232 29.5569775,2.96355398 30.7602658,1.76026577 C31.963554,0.55697755 33.4626323,0.13867081 35.1691138,0.0607852453 C35.3691409,0.0517215158 35.5448623,0.0438856315 35.7148202,0.0371280982 L35.9171899,0.0295270991 C36.4143631,0.0120439584 36.9259626,0.00344790653 37.9298764,-0.000113956692 L40.8070143,-0.000901773255 C41.9870729,0.00207694711 42.5426081,0.01058703 43.0812124,0.0295270991 Z M40.1934468,1.89005566 L38.9350133,1.88995491 C38.8468922,1.89001391 38.7616275,1.89008902 38.6790714,1.89018159 L38.2150559,1.89095736 C37.0580489,1.89364268 36.518748,1.90149195 35.9915203,1.92005697 L35.7931929,1.927532 C35.6264202,1.93419784 35.4534336,1.94197791 35.2557505,1.95104164 C34.0603384,2.005299 32.951563,2.24508153 32.0983223,3.09832226 C31.2450815,3.951563 31.005299,5.0603384 30.9510416,6.25575054 C30.9419779,6.45343361 30.9341978,6.62642024 30.927532,6.7931929 L30.920057,6.99152027 C30.901492,7.51874803 30.8936427,8.05804886 30.8909574,9.21505593 L30.8901816,9.67907144 L30.8900557,9.80495546 L30.8900557,9.80495546 L30.8899549,11.063389 C30.8900139,11.1515101 30.890089,11.2367748 30.8901816,11.3193308 L30.8909574,11.7833463 C30.8948175,13.446544 30.9093485,13.8333096 30.9510416,14.7426517 C31.005299,15.9380639 31.2450815,17.0468393 32.0983223,17.90008 C32.951563,18.7533207 34.0603384,18.9931033 35.2557505,19.0473606 C35.4534336,19.0564244 35.6264202,19.0642044 35.7931929,19.0708703 L35.9915203,19.0783453 C36.5846515,19.0992309 37.1930627,19.1065545 38.6790714,19.1082207 L40.3193308,19.1082207 C42.3832318,19.1059065 42.7542364,19.0926793 43.7426517,19.0473606 C44.9380639,18.9931033 46.0468393,18.7533207 46.90008,17.90008 C47.7533207,17.0468393 47.9931033,15.9380639 48.0473606,14.7426517 C48.0926793,13.7542364 48.1059065,13.3832318 48.1082207,11.3193308 L48.1082207,9.67907144 C48.1065545,8.19306271 48.0992309,7.5846515 48.0783453,6.99152027 L48.0708703,6.7931929 C48.0642044,6.62642024 48.0564244,6.45343361 48.0473606,6.25575054 C47.9931033,5.0603384 47.7533207,3.951563 46.90008,3.09832226 C46.0468393,2.24508153 44.9380639,2.005299 43.7426517,1.95104164 C42.8333096,1.90934849 42.446544,1.8948175 40.7833463,1.89095736 L40.3193308,1.89018159 L40.1934468,1.89005566 L40.1934468,1.89005566 Z M39.4992011,5.10671969 C42.4772301,5.10671969 44.8916826,7.52117219 44.8916826,10.4992011 C44.8916826,13.4772301 42.4772301,15.8916826 39.4992011,15.8916826 C36.5211722,15.8916826 34.1067197,13.4772301 34.1067197,10.4992011 C34.1067197,7.52117219 36.5211722,5.10671969 39.4992011,5.10671969 Z M39.4992011,6.99872632 C37.5660639,6.99872632 35.9987263,8.56606392 35.9987263,10.4992011 C35.9987263,12.4323384 37.5660639,13.9996759 39.4992011,13.9996759 C41.4323384,13.9996759 42.9996759,12.4323384 42.9996759,10.4992011 C42.9996759,8.56606392 41.4323384,6.99872632 39.4992011,6.99872632 Z M45.1052115,3.63301979 C45.8011847,3.63301979 46.3653825,4.19721754 46.3653825,4.89319072 C46.3653825,5.58916391 45.8011847,6.15336166 45.1052115,6.15336166 C44.4092384,6.15336166 43.8450406,5.58916391 43.8450406,4.89319072 C43.8450406,4.19721754 44.4092384,3.63301979 45.1052115,3.63301979 Z" id="Combined-Shape"></path>
            </g>
        </g>
    </g>
</svg>