<?xml version="1.0" encoding="UTF-8"?>
<svg width="15px" height="15px" viewBox="0 0 15 15" version="1.1" xmlns="http://www.w3.org/2000/svg" xmlns:xlink="http://www.w3.org/1999/xlink">
    <title>Combined Shape</title>
    <g id="Symbols" stroke="none" stroke-width="1" fill="none" fill-rule="evenodd">
        <g id="Template-Product-02" transform="translate(-167.000000, -208.000000)" fill="#8C110A" fill-rule="nonzero">
            <path d="M177.771246,208 C178.910286,208.001888 179.997465,208.48699 180.773327,209.339565 C182.408886,211.143046 182.408886,213.93038 180.773358,215.733861 L180.773358,215.733861 L174.89032,222.07883 C174.883661,222.086024 174.876813,222.093025 174.869777,222.099833 C174.654829,222.307991 174.315523,222.298581 174.111914,222.07883 L174.111914,222.07883 L168.22674,215.733861 C166.591087,213.930188 166.591087,211.142693 168.22674,209.339019 C168.295091,209.26381 168.366113,209.191234 168.439647,209.121356 C170.09911,207.545012 172.694381,207.642444 174.236272,209.339019 L174.236272,209.339019 L174.501101,209.625116 L174.765931,209.339019 C175.542986,208.486284 176.631296,208.001438 177.771246,208 Z" id="Combined-Shape"></path>
        </g>
    </g>
</svg>