<?xml version="1.0" encoding="UTF-8"?>
<svg width="16px" height="16px" viewBox="0 0 16 16" version="1.1" xmlns="http://www.w3.org/2000/svg" xmlns:xlink="http://www.w3.org/1999/xlink">
    <title>Combined Shape</title>
    <g id="Symbols" stroke="none" stroke-width="1" fill="none" fill-rule="evenodd">
        <g id="Header_chưa-đăng-nhập" transform="translate(-1184.000000, -27.000000)" fill="#555555" fill-rule="nonzero">
            <g id="Group-11" transform="translate(1180.000000, 23.000000)">
                <path d="M12.26875,13.0121563 C17.0761563,13.0121563 19.7237188,15.286625 19.7237188,19.4160625 C19.7237188,19.7385938 19.4623125,20 19.1397813,20 L19.1397813,20 L5.3976875,20 C5.07515625,20 4.81375,19.7385938 4.81375,19.4160625 C4.81375,15.2864063 7.46134375,13.0121563 12.26875,13.0121563 Z M12.26875,14.1800625 C8.33765625,14.1800625 6.2325625,15.7444375 6.002875,18.832125 L6.002875,18.832125 L18.5348438,18.832125 C18.3049688,15.7444375 16.1998438,14.1800625 12.26875,14.1800625 Z M12.26875,4 C14.4770313,4 16.1422188,5.6986875 16.1422188,7.95134375 C16.1422188,10.2695937 14.4045938,12.1555312 12.26875,12.1555312 C10.1329063,12.1555312 8.39528125,10.2695937 8.39528125,7.95115625 C8.39528125,5.6986875 10.0604688,4 12.26875,4 Z M12.26875,5.167875 C10.7010625,5.167875 9.56315625,6.3385 9.56315625,7.95134375 C9.56315625,9.6256875 10.7767813,10.9878437 12.26875,10.9878437 C13.7607188,10.9878437 14.9743438,9.6256875 14.9743438,7.95134375 C14.9743438,6.364375 13.8113438,5.167875 12.26875,5.167875 Z" id="Combined-Shape"></path>
            </g>
        </g>
    </g>
</svg>