<?xml version="1.0" encoding="UTF-8"?>
<svg width="16px" height="16px" viewBox="0 0 16 16" version="1.1" xmlns="http://www.w3.org/2000/svg" xmlns:xlink="http://www.w3.org/1999/xlink">
    <title>Shape</title>
    <g id="Symbols" stroke="none" stroke-width="1" fill="none" fill-rule="evenodd">
        <g id="Header_chưa-đăng-nhập" transform="translate(-950.000000, -27.000000)" fill="#555555" fill-rule="nonzero">
            <g id="Group-9" transform="translate(946.000000, 23.000000)">
                <path d="M18.7368411,14.5347455 C17.7498797,14.5347455 16.7831684,14.3806401 15.866115,14.077482 C15.4189568,13.9233766 14.9119958,14.0421135 14.617285,14.3419164 L12.8008625,15.713707 C10.7174792,14.6021271 9.38358337,13.2690603 8.28550352,11.199177 L9.62022831,9.42570183 C9.95622858,9.08887261 10.0766629,8.59789852 9.93266277,8.13727972 C9.62863621,7.21600264 9.47370187,6.2484229 9.47370187,5.26315893 C9.47370187,4.56672415 8.90697772,4 8.21054294,4 L5.26315893,4 C4.56672415,4 4,4.56672415 4,5.26315893 C4,13.3886261 10.6113739,20 18.7368411,20 C19.4332758,20 20,19.4332758 20,18.7368411 L20,15.7979044 C20,15.1014697 19.4332758,14.5347455 18.7368411,14.5347455 Z M19.1579861,18.7368411 C19.1579861,18.9692623 18.9684334,19.1579072 18.7368411,19.1579072 C11.0753479,19.1579072 4.8420928,12.9246521 4.8420928,5.26315893 C4.8420928,5.03073769 5.03156664,4.8420928 5.26315893,4.8420928 L8.21054294,4.8420928 C8.44213523,4.8420928 8.63160907,5.03073769 8.63160907,5.26315893 C8.63160907,6.3385414 8.80004342,7.39454227 9.13012264,8.39579309 C9.17895163,8.55325374 9.13939896,8.71580651 8.98529357,8.87579348 L7.45264758,10.9052557 C7.35581855,11.0340979 7.34066064,11.2067165 7.41392386,11.3498876 C8.66275383,13.8029423 10.179413,15.3204304 12.6501519,16.5861156 C12.7924546,16.6602078 12.9667705,16.6450499 13.0956127,16.5473919 L15.1688908,14.9760222 C15.2817461,14.8648642 15.4476147,14.8261405 15.5975359,14.8757984 C16.6047077,15.2084434 17.6607086,15.3768383 18.73692,15.3768383 C18.9685123,15.3768383 19.1579861,15.5654832 19.1579861,15.7979044 L19.1579861,18.7368411 L19.1579861,18.7368411 Z" id="Shape"></path>
            </g>
        </g>
    </g>
</svg>