<?xml version="1.0" encoding="UTF-8"?>
<svg width="21px" height="21px" viewBox="0 0 21 21" version="1.1" xmlns="http://www.w3.org/2000/svg" xmlns:xlink="http://www.w3.org/1999/xlink">
    <title>Icon/logo-pinterest</title>
    <defs>
        <path d="M106.5,0 C100.725,0 96,4.725 96,10.5 C96,14.9625 98.8,18.725 102.65,20.3 C102.5625,19.5125 102.475,18.2 102.65,17.325 C102.825,16.5375 103.875,12.075 103.875,12.075 C103.875,12.075 103.6125,11.375 103.6125,10.5 C103.6125,9.0125 104.4875,7.9625 105.5375,7.9625 C106.4125,7.9625 106.85,8.6625 106.85,9.45 C106.85,10.325 106.2375,11.725 105.975,12.95 C105.7125,14 106.5,14.875 107.55,14.875 C109.3875,14.875 110.875,12.95 110.875,10.0625 C110.875,7.525 109.0375,5.775 106.5,5.775 C103.525,5.775 101.775,8.05 101.775,10.325 C101.775,11.2 102.125,12.1625 102.5625,12.6875 C102.65,12.775 102.65,12.8625 102.65,12.95 C102.5625,13.3 102.3875,14 102.3875,14.175 C102.3,14.35 102.2125,14.4375 102.0375,14.35 C100.725,13.7375 99.9375,11.8125 99.9375,10.325 C99.9375,7 102.3875,3.9375 106.85,3.9375 C110.525,3.9375 113.325,6.5625 113.325,9.975 C113.325,13.5625 111.05,16.5375 107.9,16.5375 C106.85,16.5375 105.8,16.0125 105.45,15.3125 C105.45,15.3125 104.925,17.325 104.8375,17.85 C104.575,18.725 103.9625,19.8625 103.525,20.5625 C104.4,20.825 105.45,21 106.5,21 C112.275,21 117,16.275 117,10.5 C117,4.725 112.275,0 106.5,0 Z" id="path-1"></path>
    </defs>
    <g id="Symbols" stroke="none" stroke-width="1" fill="none" fill-rule="evenodd">
        <g id="MB-Footer" transform="translate(-114.000000, -487.000000)">
            <g id="Group-7" transform="translate(18.000000, 487.000000)">
                <mask id="mask-2" fill="white">
                    <use xlink:href="#path-1"></use>
                </mask>
                <use id="Icon/logo-pinterest" fill="#C5C5C5" xlink:href="#path-1"></use>
            </g>
        </g>
    </g>
</svg>