<svg width="24" height="24" viewBox="0 0 24 24" fill="none" xmlns="http://www.w3.org/2000/svg">
<g clip-path="url(#clip0_137_69)">
<path d="M18.6667 19.9998H10.6667V14.6665H9.33333V19.9998H5.33333V14.6665H4V19.9998C4 20.3535 4.14048 20.6926 4.39052 20.9426C4.64057 21.1927 4.97971 21.3332 5.33333 21.3332H18.6667C19.0203 21.3332 19.3594 21.1927 19.6095 20.9426C19.8595 20.6926 20 20.3535 20 19.9998V14.6665H18.6667V19.9998Z" fill="#802015"/>
<path d="M22.5264 8.8465L19.8063 3.4065C19.696 3.18436 19.5258 2.99742 19.315 2.86669C19.1042 2.73596 18.8611 2.66664 18.613 2.6665H5.38635C5.13829 2.66664 4.89519 2.73596 4.68438 2.86669C4.47357 2.99742 4.3034 3.18436 4.19302 3.4065L1.47302 8.8465C1.38015 9.03283 1.3322 9.23832 1.33302 9.4465V11.4998C1.33241 11.8114 1.44091 12.1133 1.63968 12.3532C1.93346 12.6899 2.29628 12.9595 2.70351 13.1435C3.11073 13.3276 3.5528 13.4218 3.99968 13.4198C4.72886 13.421 5.43581 13.1688 5.99968 12.7065C6.56356 13.1691 7.27035 13.4219 7.99968 13.4219C8.72902 13.4219 9.43581 13.1691 9.99968 12.7065C10.5636 13.1691 11.2703 13.4219 11.9997 13.4219C12.729 13.4219 13.4358 13.1691 13.9997 12.7065C14.5636 13.1691 15.2703 13.4219 15.9997 13.4219C16.729 13.4219 17.4358 13.1691 17.9997 12.7065C18.6291 13.2233 19.4344 13.476 20.2463 13.4113C21.0581 13.3467 21.8133 12.9698 22.353 12.3598C22.5542 12.1209 22.6651 11.8189 22.6663 11.5065V9.4465C22.6672 9.23832 22.6192 9.03283 22.5264 8.8465ZM19.9997 12.0865C19.7149 12.0858 19.4345 12.0171 19.1817 11.8861C18.9289 11.755 18.711 11.5655 18.5464 11.3332L17.9997 10.5865L17.4597 11.3332C17.2919 11.5619 17.0725 11.7479 16.8195 11.8761C16.5664 12.0043 16.2867 12.0711 16.003 12.0711C15.7193 12.0711 15.4396 12.0043 15.1866 11.8761C14.9335 11.7479 14.7142 11.5619 14.5464 11.3332L13.9997 10.5865L13.4597 11.3332C13.2919 11.5619 13.0725 11.7479 12.8195 11.8761C12.5664 12.0043 12.2867 12.0711 12.003 12.0711C11.7193 12.0711 11.4396 12.0043 11.1866 11.8761C10.9335 11.7479 10.7142 11.5619 10.5464 11.3332L9.99968 10.5865L9.45968 11.3332C9.29187 11.5619 9.07255 11.7479 8.81948 11.8761C8.56641 12.0043 8.28671 12.0711 8.00302 12.0711C7.71933 12.0711 7.43962 12.0043 7.18656 11.8761C6.93349 11.7479 6.71417 11.5619 6.54635 11.3332L5.99968 10.5865L5.45302 11.3332C5.28833 11.5655 5.07051 11.755 4.8177 11.8861C4.5649 12.0171 4.28443 12.0858 3.99968 12.0865C3.74844 12.0896 3.49946 12.0388 3.26947 11.9376C3.03949 11.8364 2.83384 11.6871 2.66635 11.4998V9.4465L5.38635 3.99984H18.613L21.333 9.43984V11.4798C21.1665 11.6698 20.9615 11.8221 20.7316 11.9267C20.5018 12.0313 20.2522 12.0858 19.9997 12.0865Z" fill="#802015"/>
</g>
<defs>
<clipPath id="clip0_137_69">
<rect width="24" height="24" fill="white"/>
</clipPath>
</defs>
</svg>
