<?xml version="1.0" encoding="UTF-8"?>
<svg width="30px" height="21px" viewBox="0 0 30 21" version="1.1" xmlns="http://www.w3.org/2000/svg" xmlns:xlink="http://www.w3.org/1999/xlink">
    <title>Shape</title>
    <g id="Desktop" stroke="none" stroke-width="1" fill="none" fill-rule="evenodd">
        <g id="PC/Home" transform="translate(-320.000000, -547.000000)" fill="#696969" fill-rule="nonzero">
            <g id="Group-6" transform="translate(320.000000, 547.000000)">
                <path d="M28.9816137,9.37018383 L26.9387931,8.48607785 L25.20407,5.11040048 C24.7352259,4.18610786 23.7841422,3.61009942 22.7459874,3.61679719 L19.7587809,3.61679719 L19.7587809,2.77287785 C19.7587809,1.2457857 18.5397862,-3.16191517e-13 17.0126941,-3.16191517e-13 L2.73304296,-3.16191517e-13 C1.20595082,-3.16191517e-13 0.000173538936,1.25248347 0.000173538936,2.77287785 L0.000173538936,15.6995789 C-0.0130437927,16.6305693 0.730408963,17.3941154 1.66139935,17.4075109 C1.66809712,17.4075109 1.6747949,17.4075109 1.68819044,17.4075109 L2.04317239,17.4075109 C2.04317239,17.4744887 2.03647462,17.5012797 2.03647462,17.5414664 C2.02977684,19.4570293 3.57696231,21.0176103 5.49252527,21.0243298 C7.40808822,21.0310059 8.96866923,19.4838204 8.97536701,17.5682575 C8.97536701,17.5548619 8.97536701,17.5481642 8.97536701,17.5347686 C8.97536701,17.4878842 8.97536701,17.4677909 8.96866923,17.4008132 L20.5089314,17.4008132 C20.5089314,17.4677909 20.5089314,17.494582 20.5089314,17.5347686 C20.5022336,19.4503316 22.0494191,21.0109126 23.964982,21.0176103 C25.880545,21.0243298 27.441126,19.4771227 27.4478238,17.5615597 C27.4478238,17.5481642 27.4478238,17.5414664 27.4478238,17.5280708 C27.4478238,17.4811864 27.4478238,17.4610931 27.4478238,17.3941154 L28.3118364,17.3941154 C29.2428268,17.3941154 29.9996751,16.6372671 29.9996751,15.7062767 C29.9996751,15.6995789 29.9996751,15.6928811 29.9996751,15.6794856 L29.9996751,10.9240671 C30.0130707,10.2676854 29.6112043,9.64479251 28.9816137,9.37018383 Z M5.51261858,19.6914514 C4.33381061,19.6914514 3.3827269,18.7403677 3.3827269,17.5615597 C3.3827269,16.3827517 4.33381061,15.431668 5.51261858,15.431668 C6.69142656,15.431668 7.64251026,16.3827517 7.64251026,17.5615597 C7.64251026,18.7336699 6.68472878,19.6914514 5.51261858,19.6914514 Z M18.4192263,16.081352 L8.65387392,16.081352 C8.09126102,14.8556596 6.85887087,14.0720202 5.51261858,14.078718 C4.15966852,14.0720202 2.93397614,14.8489618 2.37136324,16.081352 L1.68819044,16.081352 C1.48055949,16.081352 1.33990627,15.9206054 1.33990627,15.7129745 L1.33990627,12.2636216 L18.4192263,12.2636216 L18.4192263,16.081352 Z M18.4192793,2.77957562 L18.4192793,10.9240671 L1.33990627,10.9240671 L1.33990627,2.77957562 C1.33990627,1.99593623 1.94940357,1.34625229 2.73304296,1.34625229 L17.0126941,1.34625229 C17.7963335,1.35295006 18.4259241,1.99593623 18.4192793,2.77287785 L18.4192793,2.77957562 Z M19.7587809,4.96304948 L22.7459874,4.96304948 C23.2751115,4.95635171 23.7707466,5.24435593 24.0185642,5.71989778 L25.3581187,8.31193577 L19.7587809,8.31193577 L19.7587809,4.96304948 L19.7587809,4.96304948 Z M23.9850753,19.6914514 C22.8062674,19.6914514 21.8551837,18.7403677 21.8551837,17.5615597 C21.8551837,16.3827517 22.8062674,15.431668 23.9850753,15.431668 C25.1638833,15.431668 26.114967,16.3827517 26.114967,17.5615597 C26.114967,18.7336699 25.1638833,19.6914514 23.9850753,19.6914514 Z M28.6668184,15.7129745 C28.6668184,15.9206054 28.5261652,16.081352 28.3185342,16.081352 L27.1263307,16.081352 C26.3159002,14.3466289 24.2529863,13.5964783 22.5182632,14.4069088 C21.7815082,14.7484952 21.1854064,15.344597 20.84382,16.081352 L19.7587809,16.081352 L19.7587809,9.65149028 L26.322598,9.65149028 L28.4524897,10.5891784 C28.5864451,10.6561562 28.6735162,10.8035072 28.6668184,10.9508582 L28.6668184,15.7129745 Z" id="Shape"></path>
            </g>
        </g>
    </g>
</svg>