<?xml version="1.0" encoding="UTF-8"?>
<svg width="20px" height="20px" viewBox="0 0 20 20" version="1.1" xmlns="http://www.w3.org/2000/svg" xmlns:xlink="http://www.w3.org/1999/xlink">
    <title>Group 2</title>
    <g id="Account/Login" stroke="none" stroke-width="1" fill="none" fill-rule="evenodd">
        <g id="Login-Screen" transform="translate(-832.000000, -480.000000)" fill="#FFFFFF" fill-rule="nonzero">
            <g id="Group-4" transform="translate(730.000000, 470.000000)">
                <g id="Group-2" transform="translate(102.000000, 10.000000)">
                    <path d="M4.39724392,11.9903274 L3.70659722,14.5686074 L1.18229942,14.6220083 C0.427904886,13.2227725 2.46716228e-16,11.6218688 2.46716228e-16,9.92063492 C2.46716228e-16,8.27555339 0.400080605,6.7242141 1.10925099,5.35822793 L1.10979353,5.35822793 L3.35712736,5.7702443 L4.34159536,8.00409226 C4.13554843,8.60479446 4.02324374,9.24963573 4.02324374,9.92063492 C4.02332124,10.6488715 4.15523469,11.3466099 4.39724392,11.9903274 Z" id="Path"></path>
                    <path d="M19.66793,8.06733631 C19.7818623,8.66745722 19.8412698,9.28722563 19.8412698,9.92063492 C19.8412698,10.6308904 19.7665938,11.3237072 19.6243335,11.9919937 C19.1414,14.2661055 17.879503,16.2518601 16.1314174,17.6571026 L16.1308749,17.65656 L13.3002387,17.5121295 L12.8996156,15.0112382 C14.0595548,14.3309772 14.9660528,13.2664078 15.4435609,11.9919937 L10.1387339,11.9919937 L10.1387339,8.06733631 L15.5209496,8.06733631 L19.66793,8.06733631 L19.66793,8.06733631 Z" id="Path"></path>
                    <path d="M16.1308361,17.65656 L16.1313787,17.6571026 C14.4312686,19.0236313 12.2715929,19.8412698 9.92063492,19.8412698 C6.14261688,19.8412698 2.85791791,17.7296084 1.18229942,14.6220471 L4.39724392,11.9903661 C5.23503379,14.2263067 7.39195809,15.8179874 9.92063492,15.8179874 C11.0075257,15.8179874 12.0257859,15.524166 12.8995381,15.0112382 L16.1308361,17.65656 Z" id="Path"></path>
                    <path d="M16.2529452,2.28391617 L13.0390858,4.91505456 C12.1347966,4.34981089 11.0658482,4.02328249 9.92063492,4.02328249 C7.33472067,4.02328249 5.13745505,5.68797278 4.34163411,8.00409226 L1.10979353,5.35822793 L1.10925099,5.35822793 C2.76033916,2.17490544 6.08646453,9.07915718e-14 9.92063492,9.07915718e-14 C12.3277452,9.07915718e-14 14.5348152,0.857437376 16.2529452,2.28391617 Z" id="Path"></path>
                </g>
            </g>
        </g>
    </g>
</svg>