<?xml version="1.0" encoding="UTF-8"?>
<svg width="34px" height="30px" viewBox="0 0 34 30" version="1.1" xmlns="http://www.w3.org/2000/svg" xmlns:xlink="http://www.w3.org/1999/xlink">
    <title>Combined Shape</title>
    <g id="Symbols" stroke="none" stroke-width="1" fill="none" fill-rule="evenodd">
        <g id="Trang-mua-hàng" transform="translate(-15.000000, -23.000000)" fill="#8C110A" fill-rule="nonzero">
            <g id="Combined-Shape">
                <path d="M42.9020229,23 C43.1985595,23 43.4744074,23.1684999 43.6192276,23.4282705 L43.6192276,23.4282705 L48.6396608,32.414931 C48.715519,32.5413059 48.75,32.6817224 48.75,32.8291598 C48.75,34.8511584 47.5500613,36.5853031 45.8398038,37.3505734 C45.8467,37.3786567 45.8467,37.40674 45.8467,37.4418441 L45.8467,37.4418441 L45.8467,52.1575006 C45.8467,52.6208753 45.4743053,53 45.0191561,53 L45.0191561,53 L18.7239477,53 C18.2687985,53 17.8964038,52.6208753 17.8964038,52.1575006 L17.8964038,52.1575006 L17.8964038,37.3365317 C16.1930425,36.5712614 15,34.8441376 15,32.8291598 C15,32.6817224 15.0413772,32.5413059 15.1103392,32.414931 L15.1103392,32.414931 L20.1238762,23.4282705 C20.2686964,23.1614791 20.5445443,23 20.8410809,23 L20.8410809,23 Z M39.8952799,35.5813246 C39.0263588,36.8942195 37.5574683,37.7577814 35.8885881,37.7577814 C34.226604,37.7577814 32.7508173,36.8942195 31.8818962,35.5813246 C31.0060789,36.8942195 29.5371884,37.7577814 27.8683081,37.7577814 C26.1994279,37.7577814 24.7236412,36.8942195 23.8547201,35.5813246 C22.9857989,36.8942195 21.5100123,37.7577814 19.841132,37.7577814 C19.7445852,37.7577814 19.6480384,37.7577814 19.5514916,37.7507606 L19.5514916,37.7507606 L19.5514916,51.322022 L22.4823764,51.322022 L22.4823764,42.2230283 C22.4823764,40.6293003 23.7581733,39.3374678 25.3167143,39.3374678 L25.3167143,39.3374678 L27.7234879,39.3374678 C29.2889252,39.3374678 30.5578259,40.6363211 30.5578259,42.2230283 L30.5578259,42.2230283 L30.5578259,51.3150012 L44.1916122,51.3150012 L44.1916122,37.7507606 C44.0950654,37.7507606 44.0054148,37.7577814 43.908868,37.7577814 C42.2399877,37.7577814 40.7642011,36.8942195 39.8952799,35.5813246 Z M27.7303841,41.0224667 L25.3236105,41.0224667 C24.6684716,41.0224667 24.1443604,41.5630704 24.1443604,42.2230283 L24.1443604,42.2230283 L24.1443604,51.3150012 L28.9096342,51.3150012 L28.9096342,42.2230283 C28.9096342,41.5560496 28.3786269,41.0224667 27.7303841,41.0224667 L27.7303841,41.0224667 Z M39.2984563,39.5517241 C40.5627787,39.5517241 41.5909091,40.5985853 41.5909091,41.8859416 L41.5909091,41.8859416 L41.5909091,45.4933687 C41.5909091,46.780725 40.5627787,47.8275862 39.2984563,47.8275862 L39.2984563,47.8275862 L34.6788165,47.8275862 C33.414494,47.8275862 32.3863636,46.780725 32.3863636,45.4933687 L32.3863636,45.4933687 L32.3863636,41.8859416 C32.3863636,40.5985853 33.414494,39.5517241 34.6788165,39.5517241 L34.6788165,39.5517241 Z M39.2984563,41.2493369 L34.6788165,41.2493369 C34.338422,41.2493369 34.0536021,41.5322723 34.0536021,41.8859416 L34.0536021,41.8859416 L34.0536021,45.4933687 C34.0536021,45.8399646 34.3314751,46.1299735 34.6788165,46.1299735 L34.6788165,46.1299735 L39.2984563,46.1299735 C39.6388508,46.1299735 39.9236707,45.847038 39.9236707,45.4933687 L39.9236707,45.4933687 L39.9236707,41.8859416 C39.9236707,41.5393457 39.6457976,41.2493369 39.2984563,41.2493369 L39.2984563,41.2493369 Z M47.0466387,33.4048678 L40.7779935,33.4048678 C41.040049,34.9213667 42.3434307,36.0727826 43.908868,36.0727826 C45.4743053,36.0727826 46.777687,34.9143459 47.0466387,33.4048678 L47.0466387,33.4048678 Z M39.0194626,33.3978469 L32.7577135,33.3978469 C33.0197691,34.9143459 34.3231508,36.0657618 35.8885881,36.0657618 C37.4540253,36.0657618 38.757407,34.9143459 39.0194626,33.3978469 L39.0194626,33.3978469 Z M30.9991827,33.3978469 L24.7305374,33.3978469 C24.9994892,34.9143459 26.3028709,36.0657618 27.8683081,36.0657618 C29.4337454,36.0657618 30.7371271,34.9143459 30.9991827,33.3978469 L30.9991827,33.3978469 Z M22.9789027,33.3978469 L16.7102575,33.3978469 C16.972313,34.9143459 18.2756947,36.0727826 19.841132,36.0657618 C21.4065693,36.0657618 22.7168472,34.9143459 22.9789027,33.3978469 L22.9789027,33.3978469 Z M42.4192889,24.6920197 L21.3238149,24.6920197 L17.4067736,31.7198689 L46.3432264,31.7198689 L42.4192889,24.6920197 Z"></path>
            </g>
        </g>
    </g>
</svg>