<?xml version="1.0" encoding="UTF-8"?>
<svg width="31px" height="30px" viewBox="0 0 31 30" version="1.1" xmlns="http://www.w3.org/2000/svg" xmlns:xlink="http://www.w3.org/1999/xlink">
    <title>Shape</title>
    <g id="Symbols" stroke="none" stroke-width="1" fill="none" fill-rule="evenodd">
        <g id="trang-chủ" transform="translate(-16.000000, -23.000000)" fill="#696969" fill-rule="nonzero">
            <g id="Shape">
                <path d="M46.2335355,36.1201353 L43.6358221,33.7285658 L43.6358221,25.7983566 C43.6358221,25.2937792 43.2309673,24.8846558 42.7315202,24.8846558 L36.4785221,24.8846558 C35.9791351,24.8846558 35.5742202,25.2937185 35.5742202,25.7983566 L35.5742202,26.3065143 L32.4370007,23.4181955 C31.8314301,22.8605813 30.9182396,22.860642 30.3129092,23.4181348 L16.5163744,36.1201959 C16.0313414,36.5668213 15.8710451,37.2549641 16.1080362,37.8732611 C16.3450874,38.4915581 16.9222503,38.8910329 17.5785103,38.8910329 L19.7819992,38.8910329 L19.7819992,51.6174885 C19.7819992,52.1220659 20.186854,52.53125 20.6863011,52.53125 L28.2484559,52.53125 C28.7478429,52.53125 29.1527578,52.1221266 29.1527578,51.6174885 L29.1527578,43.8903846 L33.5971521,43.8903846 L33.5971521,51.6175492 C33.5971521,52.1221266 34.0020069,52.53125 34.501454,52.53125 L42.0633085,52.53125 C42.5626956,52.53125 42.9676104,52.1221873 42.9675504,51.6175492 L42.9675504,38.8910936 L45.1715198,38.8910936 C45.8277197,38.8910936 46.4049426,38.4915581 46.6419938,37.8733218 C46.8789249,37.2549641 46.7186886,36.5668213 46.2335355,36.1201353 Z M42.0633085,37.063692 C41.5639215,37.063692 41.1590066,37.4727547 41.1590066,37.9773928 L41.1590066,50.7038484 L35.405816,50.7038484 L35.405816,42.9766838 C35.405816,42.4721064 35.0009011,42.0629831 34.5015141,42.0629831 L28.2484559,42.0629831 C27.7490689,42.0629831 27.344154,42.4720457 27.344154,42.9766838 L27.344154,50.7038484 L21.5905429,50.7038484 L21.5905429,37.9773928 C21.5905429,37.4728154 21.1856881,37.063692 20.686241,37.063692 L18.1768138,37.063692 L31.375045,24.9125699 L35.8695883,29.0505901 C36.1343264,29.2942922 36.5164791,29.3570989 36.8439785,29.2110354 C37.171538,29.0647899 37.3828841,28.7369814 37.3828841,28.3751906 L37.3828841,26.7120574 L41.8273384,26.7120574 L41.8273384,34.1321063 C41.8273384,34.3892193 41.9344829,34.6343171 42.1225864,34.8075058 L44.5731562,37.063692 L42.0633085,37.063692 Z"></path>
            </g>
        </g>
    </g>
</svg>