<?xml version="1.0" encoding="UTF-8"?>
<svg width="30px" height="30px" viewBox="0 0 30 30" version="1.1" xmlns="http://www.w3.org/2000/svg" xmlns:xlink="http://www.w3.org/1999/xlink">
    <title>Combined Shape</title>
    <g id="Symbols" stroke="none" stroke-width="1" fill="none" fill-rule="evenodd">
        <g id="trang-chủ" transform="translate(-293.000000, -23.000000)" fill="#696969" fill-rule="nonzero">
            <g id="Combined-Shape">
                <path d="M307.952933,23.000043 C311.920318,22.9905023 315.726733,24.5681772 318.524204,27.3815484 C324.36245,33.2200127 324.36245,42.6856261 318.524204,48.5236547 C312.685957,54.3621188 303.220344,54.3621188 297.38188,48.5236547 C293.104101,44.2484891 291.824186,37.8171171 294.138095,32.2293644 C296.452439,26.6418296 301.905143,22.9989973 307.952933,23.000043 Z M307.952933,24.391089 C300.476675,24.391089 294.39142,30.476344 294.39142,37.9526016 C294.39142,45.4288591 300.476675,51.5143319 307.952933,51.5143319 C315.429191,51.5143319 321.514663,45.4288591 321.514663,37.9526016 C321.514663,30.476344 315.429191,24.391089 307.952933,24.391089 Z M307.612262,31.0259055 C307.88323,30.7551544 308.322139,30.7551544 308.592672,31.0259055 L308.592672,31.0259055 L315.025787,37.45902 C315.154083,37.5916727 315.2264,37.7681075 315.227745,37.9526016 C315.229667,38.1375313 315.156697,38.3154907 315.025787,38.4466187 L315.025787,38.4466187 L308.592672,44.8795155 C308.460673,45.0080296 308.283585,45.0803461 308.099091,45.0812747 C307.913943,45.0836134 307.735548,45.0108613 307.605291,44.8795155 C307.475035,44.7494766 307.401847,44.5732597 307.401847,44.3892012 C307.401847,44.2053606 307.475035,44.028708 307.605291,43.898887 L307.605291,43.898887 L312.856075,38.6481028 L298.911852,38.6481028 C298.527834,38.6481028 298.216351,38.3368371 298.216351,37.9526016 C298.216351,37.5685838 298.527834,37.2571002 298.911852,37.2571002 L298.911852,37.2571002 L312.863046,37.2571002 L307.612262,32.0063161 C307.34151,31.735565 307.34151,31.2964387 307.612262,31.0259055 Z"></path>
            </g>
        </g>
    </g>
</svg>