<?xml version="1.0" encoding="UTF-8"?>
<svg width="30px" height="21px" viewBox="0 0 30 21" version="1.1" xmlns="http://www.w3.org/2000/svg" xmlns:xlink="http://www.w3.org/1999/xlink">
    <title>Combined Shape</title>
    <g id="Desktop" stroke="none" stroke-width="1" fill="none" fill-rule="evenodd">
        <g id="PC/Home" transform="translate(-569.000000, -547.000000)" fill="#696969" fill-rule="nonzero">
            <g id="Group-2" transform="translate(569.000000, 547.000000)">
                <path d="M27.0481928,-3.48165941e-13 C28.6758434,-3.48165941e-13 30,1.32415663 30,2.95180723 L30,17.4096386 C30,19.0372892 28.6758434,20.3614458 27.0481928,20.3614458 L2.95180723,20.3614458 C1.32415663,20.3614458 3.55271368e-15,19.0372892 3.55271368e-15,17.4096386 L3.55271368e-15,2.95180723 C3.55271368e-15,1.32415663 1.32415663,-3.48165941e-13 2.95180723,-3.48165941e-13 L27.0481928,-3.48165941e-13 Z M28.9156627,6.38554217 L1.08433735,6.38554217 L1.08433735,17.4096386 C1.08433735,18.4393976 1.92210843,19.2771084 2.95180723,19.2771084 L27.0481928,19.2771084 C28.0779518,19.2771084 28.9156627,18.4393976 28.9156627,17.4096386 L28.9156627,6.38554217 Z M6.3253012,13.4939759 C6.62421687,13.4939759 6.86746988,13.7371687 6.86746988,14.0361446 L6.86746988,15 C6.86746988,15.2989759 6.62421687,15.5421687 6.3253012,15.5421687 L5.36144578,15.5421687 C5.06253012,15.5421687 4.81927711,15.2989759 4.81927711,15 L4.81927711,14.0361446 C4.81927711,13.7371687 5.06253012,13.4939759 5.36144578,13.4939759 L6.3253012,13.4939759 Z M27.0481928,1.08433735 L2.95180723,1.08433735 C1.92210843,1.08433735 1.08433735,1.92210843 1.08433735,2.95180723 L1.08433735,5.30120482 L28.9156627,5.30120482 L28.9156627,2.95180723 C28.9156627,1.92210843 28.0779518,1.08433735 27.0481928,1.08433735 Z" id="Combined-Shape"></path>
            </g>
        </g>
    </g>
</svg>