<?xml version="1.0" encoding="UTF-8"?>
<svg width="15px" height="15px" viewBox="0 0 15 15" version="1.1" xmlns="http://www.w3.org/2000/svg" xmlns:xlink="http://www.w3.org/1999/xlink">
    <title>Combined Shape</title>
    <g id="Symbols" stroke="none" stroke-width="1" fill="none" fill-rule="evenodd">
        <g id="Ưu-đãi" transform="translate(-24.000000, -214.000000)" fill="#848484" fill-rule="nonzero">
            <g id="Group-6" transform="translate(24.000000, 213.000000)">
                <path d="M14.3934563,7.8875 C14.7282684,7.8875 15,8.1675 15,8.5125 C15,12.6409375 11.7519583,16 7.7593841,16 C6.01769375,16 4.38093546,15.369375 3.08808748,14.2353125 L3.08808748,14.2353125 L3.08808748,14.7321875 C3.08808748,15.0771875 2.81635589,15.3571875 2.48154374,15.3571875 C2.1467316,15.3571875 1.875,15.0771875 1.875,14.7321875 L1.875,14.7321875 L1.875,12.6721875 C1.875,12.6590625 1.87772945,12.6465625 1.87863926,12.63375 C1.88015562,12.61125 1.88167198,12.5890625 1.88531124,12.566875 C1.88834396,12.5471875 1.89349958,12.528125 1.89835193,12.5090625 C1.90350756,12.4890625 1.90896645,12.4696875 1.9159417,12.4503125 C1.92291696,12.4315625 1.9311053,12.4134375 1.93990018,12.395625 C1.94869506,12.3775 1.95779322,12.359375 1.96840774,12.341875 C1.97902225,12.325 1.99054658,12.3090625 2.00237419,12.293125 L2.02034304,12.2694922 L2.02034304,12.2694922 L2.03967663,12.2465625 C2.05423368,12.2303125 2.07030708,12.2159375 2.08638049,12.2015625 C2.09608519,12.1928125 2.10397026,12.1828125 2.11428151,12.1746875 C2.11883058,12.1709375 2.12398621,12.1690625 2.12853528,12.165625 C2.14642832,12.1525 2.16523118,12.1415625 2.18433731,12.1303125 C2.20041072,12.1209375 2.21618085,12.1109375 2.23286081,12.103125 C2.25045058,12.095 2.26895016,12.089375 2.28714647,12.0828125 C2.30685914,12.0759375 2.32657181,12.0684375 2.34658776,12.06375 C2.36326771,12.0596875 2.38025094,12.058125 2.39723416,12.055625 C2.42028282,12.0521875 2.44302821,12.0490625 2.46607688,12.0484375 C2.4712325,12.0484375 2.47608485,12.046875 2.48154374,12.046875 L2.48154374,12.046875 L4.47252357,12.046875 C4.80733571,12.046875 5.07906731,12.326875 5.07906731,12.671875 C5.07906731,13.016875 4.80733571,13.296875 4.47252357,13.296875 L4.47252357,13.296875 L3.88993831,13.296875 C4.96352073,14.23125 6.31853944,14.75 7.7593841,14.75 C11.0829405,14.75 13.7869125,11.951875 13.7869125,8.5125 C13.7869125,8.1675 14.0586441,7.8875 14.3934563,7.8875 Z M7.20548587,1 C8.96769873,1 10.6212634,1.6525 11.9177982,2.823125 L11.9177982,2.823125 L11.9177982,2.3021875 C11.9177982,1.9571875 12.1882114,1.6771875 12.5213991,1.6771875 C12.8545868,1.6771875 13.125,1.9571875 13.125,2.3021875 L13.125,2.3021875 L13.125,4.3621875 C13.125,4.7071875 12.8545868,4.9871875 12.5213991,4.9871875 L12.5213991,4.9871875 L10.5403809,4.9871875 C10.2071932,4.9871875 9.93677999,4.7071875 9.93677999,4.3621875 C9.93677999,4.0171875 10.2071932,3.7371875 10.5403809,3.7371875 L10.5403809,3.7371875 L11.0935811,3.7371875 C10.0191715,2.781875 8.65624066,2.25 7.20548587,2.25 C3.89805468,2.25 1.20720182,5.048125 1.20720182,8.4875 C1.20720182,8.8325 0.936788613,9.1125 0.603600911,9.1125 C0.270413208,9.1125 0,8.8325 0,8.4875 C0,4.3590625 3.23228288,1 7.20548587,1 Z" id="Combined-Shape"></path>
            </g>
        </g>
    </g>
</svg>