<?xml version="1.0" encoding="UTF-8"?>
<svg width="20px" height="20px" viewBox="0 0 20 20" version="1.1" xmlns="http://www.w3.org/2000/svg" xmlns:xlink="http://www.w3.org/1999/xlink">
    <title>Combined Shape</title>
    <g id="Symbols" stroke="none" stroke-width="1" fill="none" fill-rule="evenodd">
        <g id="Ưu-đãi" transform="translate(-22.000000, -311.000000)" fill="#848484" fill-rule="nonzero">
            <g id="Combined-Shape">
                <path d="M24.0196649,317.389072 C24.5384054,316.870309 25.382489,316.870309 25.9012295,317.389072 L25.9012295,317.389072 L27.6992068,319.187127 C28.2179094,319.705889 28.2179094,320.550009 27.6992068,321.068772 L27.6992068,321.068772 L26.9092335,321.858779 C27.8540078,323.66304 29.3366315,325.145727 31.1408145,326.090542 L31.1408145,326.090542 L31.93075,325.300573 C32.4494148,324.781848 33.2935741,324.78181 33.8123146,325.300573 L33.8123146,325.300573 L35.6103298,327.098665 C35.8616213,327.349967 36,327.684104 36,328.039431 C36,328.394834 35.8616213,328.72897 35.6102919,328.980273 L35.6102919,328.980273 L34.1719025,330.418724 C33.7846162,330.806027 33.2449883,331 32.5866205,331 C31.9674164,331 31.2431323,330.828467 30.4414287,330.48487 C28.950329,329.845811 27.3082122,328.67289 25.8176044,327.182218 C24.3269966,325.691546 23.1541263,324.049359 22.5150944,322.558195 C21.8062109,320.90405 21.8297092,319.579122 22.5812755,318.827561 L22.5812755,318.827561 Z M25.0983908,318.191945 C25.0222957,318.115847 24.8984852,318.115847 24.8223523,318.191945 L24.8223523,318.191945 L23.3839629,319.630396 C22.9944818,320.019856 23.0597926,320.947189 23.558516,322.11099 C24.1420376,323.472548 25.2294286,324.988422 26.6203296,326.379421 C28.0112684,327.770419 29.5271151,328.857819 30.8886149,329.441366 C32.0524416,329.940148 32.9796584,330.005348 33.3691016,329.615926 L33.3691016,329.615926 L34.807491,328.177475 C34.857212,328.127752 34.8646291,328.069666 34.8646291,328.039431 C34.8646291,328.009234 34.8571742,327.951148 34.8074532,327.901425 L34.8074532,327.901425 L33.0094759,326.10337 C32.9597549,326.053647 32.9016714,326.04623 32.8715134,326.04623 C32.8413554,326.04623 32.783234,326.053685 32.7335131,326.103408 L32.7335131,326.103408 L31.371862,327.465118 L31.0103442,327.293887 C28.6892371,326.194378 26.80544,324.310462 25.7059781,321.989293 L25.7059781,321.989293 L25.534717,321.62776 L26.8963681,320.266012 C26.9724631,320.189952 26.9724631,320.066098 26.8963681,319.99 L26.8963681,319.99 Z M35.9999806,311 C37.586057,311 39.0811752,311.523857 40.2099067,312.475064 C41.3642612,313.447886 42,314.748661 42,316.137874 C42,317.527088 41.3642612,318.827939 40.2099067,319.800685 C39.0811752,320.751892 37.586057,321.275749 35.9999806,321.275749 C35.4482716,321.275749 34.9075937,321.21216 34.3894811,321.089473 C33.3385091,321.583989 32.1846578,321.901059 30.967755,322 C31.5256569,321.486076 32.0216687,320.908372 32.445959,320.279828 C32.2161641,320.134841 31.9969358,319.974974 31.7900546,319.800685 C30.6357388,318.827863 30,317.527088 30,316.137874 C30,314.748661 30.6357388,313.447848 31.7900546,312.475064 C32.9187861,311.523857 34.413943,311 35.9999806,311 Z M35.9999806,312.141746 C33.3319292,312.141746 31.1612828,313.934412 31.1612828,316.137874 C31.1612828,318.341337 33.3319292,320.134003 35.9999806,320.134003 C38.6680321,320.134003 40.8386785,318.341337 40.8386785,316.137874 C40.8386785,313.934412 38.6680321,312.141746 35.9999806,312.141746 Z M36,315 C36.5522847,315 37,315.447715 37,316 C37,316.552285 36.5522847,317 36,317 C35.4477153,317 35,316.552285 35,316 C35,315.447715 35.4477153,315 36,315 Z M33,315 C33.5522847,315 34,315.447715 34,316 C34,316.552285 33.5522847,317 33,317 C32.4477153,317 32,316.552285 32,316 C32,315.447715 32.4477153,315 33,315 Z M39,315 C39.5522847,315 40,315.447715 40,316 C40,316.552285 39.5522847,317 39,317 C38.4477153,317 38,316.552285 38,316 C38,315.447715 38.4477153,315 39,315 Z"></path>
            </g>
        </g>
    </g>
</svg>