<?xml version="1.0" encoding="UTF-8"?>
<svg width="11px" height="14px" viewBox="0 0 11 14" version="1.1" xmlns="http://www.w3.org/2000/svg" xmlns:xlink="http://www.w3.org/1999/xlink">
    <title>Combined Shape</title>
    <g id="Desktop" stroke="none" stroke-width="1" fill="none" fill-rule="evenodd">
        <g id="PC/Adress/-Edit-thanh-toán/-Khi-xoá-tên-cũ-nhập-tên-mới" transform="translate(-107.000000, -363.000000)" fill="#555555" fill-rule="nonzero">
            <g id="Group-3" transform="translate(102.000000, 360.000000)">
                <path d="M10.2475158,3.33333333 C12.9572538,3.33333333 15.1616983,5.53777778 15.1616983,8.24751581 C15.1616983,9.13987353 14.7619151,10.0992954 14.7451491,10.1394761 C14.615935,10.4461789 14.3612647,10.9225655 14.1771274,11.2018067 L14.1771274,11.2018067 L10.8074435,16.3073532 C10.6695574,16.5163505 10.4654743,16.6363144 10.2475158,16.6363144 C10.0295574,16.6363144 9.82547425,16.5163505 9.68758808,16.3070641 L9.68758808,16.3070641 L6.31819332,11.2018067 C6.13434508,10.9225655 5.87938573,10.4461789 5.75017164,10.1394761 C5.7334056,10.0990063 5.33333333,9.13958446 5.33333333,8.24751581 C5.33333333,5.53777778 7.53777778,3.33333333 10.2475158,3.33333333 Z M10.2475158,3.91147245 C7.8566215,3.91147245 5.91147245,5.8566215 5.91147245,8.24751581 C5.91147245,9.01990967 6.27830172,9.90301716 6.2832159,9.91486902 C6.39855465,10.1897742 6.63588076,10.6332069 6.80093948,10.8835411 L6.80093948,10.8835411 L10.1706233,15.9890876 C10.2371093,16.0899729 10.2582114,16.0899729 10.3246974,15.9890876 L10.3246974,15.9890876 L13.6943812,10.8835411 C13.8594399,10.6332069 14.096766,10.1900632 14.2121048,9.91515808 C14.2158627,9.906486 14.5835592,9.02106594 14.5835592,8.24751581 C14.5835592,5.8566215 12.6384101,3.91147245 10.2475158,3.91147245 Z M10.2475158,5.64617886 C11.682168,5.64617886 12.8491418,6.81344173 12.8491418,8.24780488 C12.8491418,9.68216802 11.682168,10.8494309 10.2475158,10.8494309 C8.8128636,10.8494309 7.64588979,9.68216802 7.64588979,8.24780488 C7.64588979,6.81344173 8.8128636,5.64617886 10.2475158,5.64617886 Z M10.2475158,6.22431798 C9.13199639,6.22431798 8.22402891,7.13199639 8.22402891,8.24780488 C8.22402891,9.36361337 9.13199639,10.2712918 10.2475158,10.2712918 C11.3630352,10.2712918 12.2710027,9.36361337 12.2710027,8.24780488 C12.2710027,7.13199639 11.3630352,6.22431798 10.2475158,6.22431798 Z" id="Combined-Shape"></path>
            </g>
        </g>
    </g>
</svg>