<?xml version="1.0" encoding="UTF-8"?>
<svg width="21px" height="15px" viewBox="0 0 21 15" version="1.1" xmlns="http://www.w3.org/2000/svg" xmlns:xlink="http://www.w3.org/1999/xlink">
    <title>Icon/logo-youtube</title>
    <defs>
        <path d="M150.825,6.21428571 C150.825,6.21428571 150.65,4.69642857 149.95,4.07142857 C149.1625,3.17857143 148.2875,3.17857143 147.85,3.17857143 C144.875,3 140.5,3 140.5,3 L140.5,3 C140.5,3 136.125,3 133.15,3.17857143 C132.7125,3.26785714 131.8375,3.26785714 131.05,4.07142857 C130.4375,4.69642857 130.175,6.21428571 130.175,6.21428571 C130.175,6.21428571 130,7.91071429 130,9.69642857 L130,11.3035714 C130,13 130.175,14.7857143 130.175,14.7857143 C130.175,14.7857143 130.35,16.3035714 131.05,16.9285714 C131.8375,17.8214286 132.8875,17.7321429 133.325,17.8214286 C134.9875,18 140.5,18 140.5,18 C140.5,18 144.875,18 147.85,17.7321429 C148.2875,17.6428571 149.1625,17.6428571 149.95,16.8392857 C150.5625,16.2142857 150.825,14.6964286 150.825,14.6964286 C150.825,14.6964286 151,13 151,11.2142857 L151,9.60714286 C151,7.91071429 150.825,6.21428571 150.825,6.21428571 Z M138.3125,13.2678571 L138.3125,7.28571429 L144,10.3214286 L138.3125,13.2678571 Z" id="path-1"></path>
    </defs>
    <g id="Symbols" stroke="none" stroke-width="1" fill="none" fill-rule="evenodd">
        <g id="MB-Footer" transform="translate(-148.000000, -490.000000)">
            <g id="Group-7" transform="translate(18.000000, 487.000000)">
                <mask id="mask-2" fill="white">
                    <use xlink:href="#path-1"></use>
                </mask>
                <use id="Icon/logo-youtube" fill="#C5C5C5" xlink:href="#path-1"></use>
            </g>
        </g>
    </g>
</svg>