<svg xmlns="http://www.w3.org/2000/svg" viewBox="0 0 1440 956"><defs><style>.cls-1{fill:none;}</style></defs><title>Solid3</title><g id="Layer_2" data-name="Layer 2"><g id="Layer_1-2" data-name="Layer 1"><polygon class="cls-1" points="1439.5 626 1439.5 811.92 1440 812.21 1440 626 1439.5 626"/><polygon class="cls-1" points="0.5 795.1 0.5 626 0 626 0 801.46 0.5 801.27 0.5 795.1"/><rect class="cls-1" x="0.5" width="1438.75" height="956"/><path class="cls-1" d="M1439.25,626H.5V801.27l161.17-62V841h13.2l3-2H184s-22.35,83.37-22.35,84.39c-2,7.12,2,8.13,3,8.13,6.1,0,9.15-7.11,9.15-7.11l16.25-62h52.83s-1,9.15-1,10.16c0,5.09,4.06,5.09,5.08,5.09,3.05,0,5.08-6.1,5.08-6.1l1-9.15h52.83s5.08,54.9,5.08,57.95,1,8.13,3.05,10.17c8.12,3,9.14-7.12,9.14-7.12l-5.08-61h52.82s2,9.15,3.05,11.18c3,5.08,5.08,4.07,6.1,4.07,5.08-1,4.06-8.14,4.06-8.14l-2-7.11h32.5s-11.17,53.88-12.19,54.9c-2,7.12-1,12.2,0,13.22,5.08,4.06,9.15-6.1,9.15-6.1l14.22-62h28.44l-1,7.11c-1,8.14,3,8.14,3,8.14,4.07,0,6.1-6.1,6.1-6.1l1-9.15h79.23s8.13,60,8.13,62c0,5.08,4.06,7.11,5.08,7.11,5.08-1,5.08-8.13,5.08-8.13l-7.11-61h29.46s2,8.13,2,9.15c1,6.1,5.08,6.1,6.09,6.1,4.07-1,3-7.12,3-7.12l-2-8.13h59.93l-12.19,63c-1,5.09,3,6.1,3,6.1,3.05,0,5.08-4.06,5.08-4.06l13.21-65.07h5.08s-2,9.15-2,10.16c-1,4.07,2,5.09,2,5.09a4.4,4.4,0,0,0,4.06-2l3-13.21H780.32s10.16,63,10.16,65.07c2,4.06,3,4.06,5.08,4.06a5.47,5.47,0,0,0,3.05-6.1l-9.14-63h5.07l2,10.16c2,6.1,4.06,5.09,5.08,5.09,3-1,2-6.1,2-6.1l-1-9.15h49.78V838.94h3v3h13.2V713.88h396.19"/><path d="M1264.89,713.88H868.7V842H855.5v-3h-3v23.39H802.67l1,9.15s1,5.08-2,6.1c-1,0-3,1-5.08-5.09l-2-10.16h-5.07l9.14,63a5.47,5.47,0,0,1-3.05,6.1c-2,0-3,0-5.08-4.06,0-2-10.16-65.07-10.16-65.07H673.66l-3,13.21a4.4,4.4,0,0,1-4.06,2s-3-1-2-5.09c0-1,2-10.16,2-10.16h-5.08L648.26,927.4s-2,4.06-5.08,4.06c0,0-4.06-1-3-6.1l12.19-63H592.39l2,8.13s1,6.1-3,7.12c-1,0-5.08,0-6.09-6.1,0-1-2-9.15-2-9.15H553.79l7.11,61s0,7.12-5.08,8.13c-1,0-5.08-2-5.08-7.11,0-2-8.13-62-8.13-62H463.38l-1,9.15s-2,6.1-6.1,6.1c0,0-4.06,0-3-8.14l1-7.11H425.79l-14.22,62s-4.07,10.16-9.15,6.1c-1-1-2-6.1,0-13.22,1-1,12.19-54.9,12.19-54.9h-32.5l2,7.11s1,7.12-4.06,8.14c-1,0-3.05,1-6.1-4.07-1-2-3.05-11.18-3.05-11.18H318.11l5.08,61s-1,10.17-9.14,7.12c-2-2-3.05-7.12-3.05-10.17s-5.08-57.95-5.08-57.95H253.09l-1,9.15s-2,6.1-5.08,6.1c-1,0-5.08,0-5.08-5.09,0-1,1-10.16,1-10.16H190.11l-16.25,62s-3.05,7.11-9.15,7.11c-1,0-5.07-1-3-8.13,0-1,22.35-84.39,22.35-84.39h-6.1l-3,2h-13.2V739.3L.5,801.27V956H1439.25V811.93Z"/></g></g></svg>