<svg id="Layer_1" data-name="Layer 1" xmlns="http://www.w3.org/2000/svg" viewBox="0 0 1441 957"><defs><style>.cls-1{fill:none;}</style></defs><title>Thay-mai-ton</title><path d="M1021.17,635.42l182.46-140-.12-3.12s4-2.75-2.12-3.37c-5.87-3.12-114.37-61.37-114.37-61.37v4l-143.25,63s-1.75-4.75-5.25,1.25-1.75,8.38-1.75,8.38l-29.5,43.13L904.63,545s.25-4.25-4.62-3.5c-4.25-4.25-15.37-14.5-15.37-14.5s1.38-5.37-4.75-3.87c-4.75-4.62-15.75-14.88-15.75-14.88L717,572.08,497.63,511.33l-11.37,11.13L417.5,503.21v-3l5.13-4.75V483h-3l-5.37-4.62s-4.87-2.12-4.87,2.88c-3.37,2.38-40,29.25-40,29.25s-4.25-1.75-4.25,1.88,5.13,5.88,5.13,5.88l2.88-.12,88.88,26-4.37,4.13s-2.25-1-2.12,1.88c-2.37,2.5-18.75,17.13-18.75,17.13s-4.5-1.25-3.62,3,6.88,6.38,6.88,6.38l287.5,91.13,196-100.12-.25,4.25L877.5,595.71l131.88,35.63s0,2.63,1.38,3,2.88-2.37,2.88-2.37Z"/><path d="M888,320.83l258.25-65.25-4.58-3v-2.83s1.67-2.17-1.5-2.67-2.5,0-2.5,0l-18-11.17s-.33-4.67-5.17-2.83c-5.17-3.33-18-11.17-18-11.17s1.33-5-4.83-2.83c-6.5-4-17.67-11-17.67-11s.17-4.67-5.17-3.33c-4.83-2.83-17.33-10.83-17.33-10.83s-.17-4.67-4.83-3c-5.5-3-17.83-10.5-17.83-10.5s.83-5.17-5-3.5c-5.83-3.5-17-10.67-17-10.67s.17-4.33-4.67-3.17c-5.33-3.33-17-10.33-17-10.33s.5-4.83-4.5-3c-5.33-3.33-17.33-11-17.33-11s.67-4.83-5-3c-7.5-5-16.5-10.83-16.5-10.83s.33-5.17-5.17-2.83c-6.33-4.5-15.67-10.33-15.67-10.33s.67-5.83-5-3.33c-7.5-5.17-15.67-10.5-15.67-10.5s.33-5.17-5.5-3.17c-6.67-5-17.17-12.67-17.17-12.67h-5.33s-3-4.17-6.83,0h-9s-2.83-3.83-6-.17c-3.17.17-10.67,0-10.67,0s-3.83-2.5-5.83.5c-4,.17-9.67.33-9.67.33s-3.5-3.67-6.67,0H807.33s-2.83-3-5.67.17c-3.17.17-12,0-12,0s-2.17-3.67-6.17.17H765.83a3.6,3.6,0,0,0-1.33,2.67c-2.17,1.67-21.17,13.33-21.17,13.33s-3-1.5-3.33,1.83c-3.5,2.33-20.5,13.17-20.5,13.17s-2.67-1.83-3.67,1.67c-2.83,2-19.5,12.5-19.5,12.5s-3.17-2-4.5,2.33c-3.83,2.17-18.67,11.83-18.67,11.83s-5-2.5-4.83,3c-3,1.5-19.5,11.67-19.5,11.67s-5.17-2.33-4.67,2.33c-4.67,2.67-20,12-20,12s-4.83-1.83-5.17,4.83l-1.17,2-8.67.17s-2.33-4.33-5,.67c.33.17-14.5,1.33-14.5,1.33s-2.5-3.83-5.33.5c-1.83.33-15.67,1.67-15.67,1.67s-2.5-4.67-5.83.33c-3,.33-15.5,1.67-15.5,1.67s-2.5-4.33-5.5.33c-1.33.17-17.33,1.33-17.33,1.33s-2.17-4-5.83.5c-1.33.17-17.17,1.5-17.17,1.5s-1.83-3.33-5.33-.33-1.67,5.5-1.67,5.5l-6,3.83s-4.5-2-4,2.33c-2.33,1.33-22,13.17-22,13.17s-3.83-2.5-4.5,2.67l-21.33,12.5s-4.5-1.67-4.17,2.83c-2.67,1.33-21.83,12.83-21.83,12.83s-4.67-2.83-5,3c-4.17,2.17-21.33,12.83-21.33,12.83s-4.83-3.17-5.33,2.67c-3.17,1.67-20.67,12.67-20.67,12.67s-4-1.83-4.83,1.67,1.33,3.17,1.33,3.17v1.83l-5.17,2.67,190.5,27.83L553,310.08l103-19.25,223,28.5Z"/><rect class="cls-1" width="1441" height="957"/></svg>