<svg xmlns="http://www.w3.org/2000/svg" xmlns:xlink="http://www.w3.org/1999/xlink" viewBox="0 0 55 55"><defs><style>.cls-1{fill:#b11116;}.cls-2{fill:url(#linear-gradient);}.cls-3{fill:url(#linear-gradient-2);}.cls-4{fill:url(#linear-gradient-3);}.cls-5{fill:url(#linear-gradient-4);}.cls-6{fill:#fff200;}.cls-7{fill:url(#linear-gradient-5);}.cls-8{fill:url(#linear-gradient-6);}.cls-9{fill:url(#linear-gradient-7);}.cls-10{fill:url(#linear-gradient-8);}.cls-11{fill:url(#linear-gradient-9);}.cls-12{fill:url(#linear-gradient-10);}.cls-13{fill:url(#linear-gradient-11);}.cls-14{fill:url(#linear-gradient-12);}.cls-15{fill:url(#linear-gradient-13);}.cls-16{fill:url(#linear-gradient-14);}.cls-17{fill:url(#linear-gradient-15);}.cls-18{fill:url(#linear-gradient-16);}</style><linearGradient id="linear-gradient" x1="23.61" y1="16.23" x2="22.14" y2="13.18" gradientUnits="userSpaceOnUse"><stop offset="0" stop-color="#fff200"/><stop offset="0" stop-color="#fae502"/><stop offset="0.02" stop-color="#ecc007"/><stop offset="0.03" stop-color="#df9f0c"/><stop offset="0.05" stop-color="#d4840f"/><stop offset="0.07" stop-color="#cc6d13"/><stop offset="0.09" stop-color="#c55c15"/><stop offset="0.12" stop-color="#c05017"/><stop offset="0.15" stop-color="#be4918"/><stop offset="0.25" stop-color="#bd4718"/><stop offset="0.26" stop-color="#c15216"/><stop offset="0.32" stop-color="#d27c11"/><stop offset="0.38" stop-color="#e0a10b"/><stop offset="0.45" stop-color="#ebbe07"/><stop offset="0.51" stop-color="#f4d504"/><stop offset="0.58" stop-color="#fae502"/><stop offset="0.66" stop-color="#feef00"/><stop offset="0.77" stop-color="#fff200"/></linearGradient><linearGradient id="linear-gradient-2" x1="23.86" y1="14.3" x2="26.19" y2="11.42" gradientUnits="userSpaceOnUse"><stop offset="0" stop-color="#d14e1d"/><stop offset="0.03" stop-color="#d55e1e"/><stop offset="0.14" stop-color="#e28b22"/><stop offset="0.24" stop-color="#ecb125"/><stop offset="0.35" stop-color="#f5ce27"/><stop offset="0.45" stop-color="#fae229"/><stop offset="0.55" stop-color="#feef2a"/><stop offset="0.65" stop-color="#fff32a"/><stop offset="1" stop-color="#fff200"/></linearGradient><linearGradient id="linear-gradient-3" x1="-42.44" y1="154.46" x2="-43.89" y2="151.4" gradientTransform="translate(-59.59 -118.21) rotate(-45)" xlink:href="#linear-gradient"/><linearGradient id="linear-gradient-4" x1="-42.18" y1="152.53" x2="-39.85" y2="149.64" gradientTransform="translate(-59.59 -118.21) rotate(-45)" xlink:href="#linear-gradient-2"/><linearGradient id="linear-gradient-5" x1="-186.98" y1="205.31" x2="-188.4" y2="202.24" gradientTransform="translate(-185.12 -159.74) rotate(-90)" xlink:href="#linear-gradient"/><linearGradient id="linear-gradient-6" x1="-186.7" y1="203.37" x2="-184.37" y2="200.49" gradientTransform="translate(-185.12 -159.74) rotate(-90)" xlink:href="#linear-gradient-2"/><linearGradient id="linear-gradient-7" x1="-325" y1="139.25" x2="-326.5" y2="136.22" gradientTransform="translate(-303.33 -100.15) rotate(-135)" xlink:href="#linear-gradient"/><linearGradient id="linear-gradient-8" x1="-324.77" y1="137.33" x2="-322.43" y2="134.44" gradientTransform="translate(-303.33 -100.15) rotate(-135)" xlink:href="#linear-gradient-2"/><linearGradient id="linear-gradient-9" x1="-376.13" y1="-5.23" x2="-377.38" y2="-8.37" gradientTransform="translate(-344.87 25.38) rotate(180)" xlink:href="#linear-gradient"/><linearGradient id="linear-gradient-10" x1="-375.77" y1="-7.19" x2="-373.44" y2="-10.08" gradientTransform="translate(-344.87 25.38) rotate(180)" xlink:href="#linear-gradient-2"/><linearGradient id="linear-gradient-11" x1="-309.88" y1="-143.31" x2="-311.21" y2="-146.42" gradientTransform="translate(-285.27 143.59) rotate(135)" xlink:href="#linear-gradient"/><linearGradient id="linear-gradient-12" x1="-309.56" y1="-145.26" x2="-307.23" y2="-148.14" gradientTransform="translate(-285.27 143.59) rotate(135)" xlink:href="#linear-gradient-2"/><linearGradient id="linear-gradient-13" x1="-165.48" y1="-194.32" x2="-166.9" y2="-197.4" gradientTransform="translate(-159.74 185.12) rotate(90)" xlink:href="#linear-gradient"/><linearGradient id="linear-gradient-14" x1="-165.21" y1="-196.26" x2="-162.87" y2="-199.14" gradientTransform="translate(-159.74 185.12) rotate(90)" xlink:href="#linear-gradient-2"/><linearGradient id="linear-gradient-15" x1="-27.28" y1="-128.11" x2="-28.64" y2="-131.21" gradientTransform="translate(-41.54 125.53) rotate(45)" xlink:href="#linear-gradient"/><linearGradient id="linear-gradient-16" x1="-26.98" y1="-130.06" x2="-24.64" y2="-132.94" gradientTransform="translate(-41.54 125.53) rotate(45)" xlink:href="#linear-gradient-2"/></defs><title>logo_HOA SEN HOME</title><g id="Layer_2" data-name="Layer 2"><g id="Layer_1-2" data-name="Layer 1"><rect class="cls-1" width="55" height="55"/><path class="cls-2" d="M23.34,13.48l-.1,0h0a4.28,4.28,0,0,0-1.16-.2,6.43,6.43,0,0,0-.64.81s-.06.69-.11.95a3.6,3.6,0,0,1,.56,0,2.69,2.69,0,0,1,1.2.28.85.85,0,0,0,.68,0l.35-.14a.88.88,0,0,0,.44-.41A2.12,2.12,0,0,0,23.34,13.48Z"/><path class="cls-3" d="M25.52,11.2l-.2.14a5.59,5.59,0,0,0-2.08,2.1l.1,0a2.12,2.12,0,0,1,1.22,1.23s0,0,.05-.09a3.63,3.63,0,0,1,1.7-1.87l.57-.4-.66-.71Z"/><path class="cls-4" d="M17.48,19.26l-.1,0h0a4.38,4.38,0,0,0-1,.68,6.6,6.6,0,0,0,.12,1s.44.53.59.75a4,4,0,0,1,.37-.43,2.71,2.71,0,0,1,1.05-.65.89.89,0,0,0,.5-.47l.14-.34a.89.89,0,0,0,0-.6A2.11,2.11,0,0,0,17.48,19.26Z"/><path class="cls-5" d="M17.41,16.1a2.4,2.4,0,0,0,0,.24,5.71,5.71,0,0,0,0,3l.1,0a2.11,2.11,0,0,1,1.74,0,.24.24,0,0,0,0-.1,3.68,3.68,0,0,1-.11-2.53q.06-.32.12-.69l-1,0Z"/><path class="cls-6" d="M17.65,13.69l0,.79c-.06.74-.21,1.62-.21,1.62L19.19,16s0-.15.08-.64l1.32-.19.76-.12h0a3.51,3.51,0,0,1,.75-1.76h-.19a9,9,0,0,0-1.59.18c-.53.09-1.13.19-1.87.25Z"/><path class="cls-7" d="M17.42,27.49l0,.1h0a4.16,4.16,0,0,0-.21,1.16,8.51,8.51,0,0,0,.82.64s.68.06.94.11c0-.2,0-.38,0-.56a2.84,2.84,0,0,1,.28-1.21.85.85,0,0,0,0-.68l-.13-.34a.84.84,0,0,0-.41-.44A2.07,2.07,0,0,0,17.42,27.49Z"/><path class="cls-8" d="M15.14,25.31a1.43,1.43,0,0,1,.14.2,5.77,5.77,0,0,0,2.11,2.08l0-.1a2.07,2.07,0,0,1,1.24-1.22l-.09-.05a3.6,3.6,0,0,1-1.87-1.7c-.13-.19-.26-.38-.41-.58l-.7.67Z"/><path class="cls-6" d="M15.91,23.42c.32-.4.57-.76.79-1.06s.31-.44.45-.62c0,0,0,0,0,0A3.65,3.65,0,0,1,16.42,20a.86.86,0,0,0-.14.13,9.13,9.13,0,0,0-1,1.25,18.6,18.6,0,0,1-1.15,1.49l-.49.57.5.59c.49.56,1,1.3,1,1.3l1.15-1.37Z"/><path class="cls-9" d="M23.2,33.35l.05.09h0a4.09,4.09,0,0,0,.67,1,7.68,7.68,0,0,0,1-.13s.53-.44.75-.59a5.44,5.44,0,0,1-.43-.36,2.76,2.76,0,0,1-.65-1.06.84.84,0,0,0-.47-.49l-.34-.15a.88.88,0,0,0-.6,0A2.11,2.11,0,0,0,23.2,33.35Z"/><path class="cls-10" d="M20.05,33.42l.24,0a5.72,5.72,0,0,0,3,0l-.05-.09a2.11,2.11,0,0,1,0-1.74l-.1,0a3.59,3.59,0,0,1-2.52.12l-.7-.12,0,1Z"/><path class="cls-6" d="M19.06,30.23c0-.28-.09-.53-.12-.76v0a3.6,3.6,0,0,1-1.76-.75c0,.06,0,.12,0,.19a8.94,8.94,0,0,0,.19,1.58,17.74,17.74,0,0,1,.24,1.87l.07.79.75,0c.75,0,1.63.21,1.63.21l-.16-1.78-.61-.07Z"/><path class="cls-11" d="M31.43,33.4l.1,0h0a4.56,4.56,0,0,0,1.16.21,7.12,7.12,0,0,0,.64-.82s.06-.69.11-.95a3.69,3.69,0,0,1-.56,0,2.76,2.76,0,0,1-1.21-.28.89.89,0,0,0-.68,0l-.34.14a.84.84,0,0,0-.44.41A2.12,2.12,0,0,0,31.43,33.4Z"/><path class="cls-12" d="M29.25,35.68l.2-.14a5.66,5.66,0,0,0,2.08-2.1l-.1,0a2.12,2.12,0,0,1-1.22-1.23s0,0-.05.09a3.67,3.67,0,0,1-1.7,1.87l-.58.4.67.71Z"/><path class="cls-6" d="M26.3,34.13l-.62-.45h0a3.59,3.59,0,0,1-1.78.72l.13.14a9.08,9.08,0,0,0,1.25,1,17,17,0,0,1,1.49,1.15l.59.49.57-.5c.57-.48,1.3-1,1.3-1l-1.37-1.15-.5.38Z"/><path class="cls-13" d="M37.29,27.62l.09,0h0a4.45,4.45,0,0,0,1-.68,7.68,7.68,0,0,0-.13-1s-.44-.53-.59-.74l-.36.42a2.79,2.79,0,0,1-1.05.65.89.89,0,0,0-.5.47l-.15.34a.89.89,0,0,0,0,.6A2.11,2.11,0,0,0,37.29,27.62Z"/><path class="cls-14" d="M37.36,30.78c0-.08,0-.16,0-.24a5.61,5.61,0,0,0,0-3l-.09,0a2.11,2.11,0,0,1-1.74,0,.3.3,0,0,0,0,.1,3.62,3.62,0,0,1,.12,2.53q-.06.32-.12.69l1,0Z"/><path class="cls-6" d="M34.17,31.77c-.28,0-.52.09-.75.11h0a3.67,3.67,0,0,1-.75,1.77h.19a9,9,0,0,0,1.59-.18,17.06,17.06,0,0,1,1.87-.24l.78-.07,0-.76c.05-.74.21-1.62.21-1.62l-1.78.15s0,.11-.08.61Z"/><path class="cls-15" d="M37.35,19.39l0-.09h0a4.72,4.72,0,0,0,.21-1.17,8.51,8.51,0,0,0-.82-.64s-.69-.06-1-.11a3.69,3.69,0,0,1,0,.56,2.7,2.7,0,0,1-.28,1.21.89.89,0,0,0,0,.68l.14.34a.9.9,0,0,0,.41.45A2.15,2.15,0,0,0,37.35,19.39Z"/><path class="cls-16" d="M39.63,21.57l-.15-.2a5.57,5.57,0,0,0-2.1-2.07l0,.09a2.15,2.15,0,0,1-1.24,1.23l.09,0a3.66,3.66,0,0,1,1.87,1.71c.12.18.26.37.41.57l.7-.67Z"/><path class="cls-6" d="M38.07,24.53c-.16.23-.31.43-.45.61h0a3.5,3.5,0,0,1,.72,1.77.86.86,0,0,0,.14-.13,9.08,9.08,0,0,0,1-1.25A17,17,0,0,1,40.63,24l.49-.61-.5-.55c-.48-.56-1-1.3-1-1.3l-1.15,1.37s.06.09.37.48Z"/><path class="cls-17" d="M31.57,13.53l-.05-.09h0a4.41,4.41,0,0,0-.67-1,7.89,7.89,0,0,0-1,.13s-.52.44-.74.59a3.92,3.92,0,0,1,.42.36,2.77,2.77,0,0,1,.66,1.06.84.84,0,0,0,.47.49l.34.15a.83.83,0,0,0,.6,0A2.15,2.15,0,0,0,31.57,13.53Z"/><path class="cls-18" d="M34.72,13.46l-.24,0a5.72,5.72,0,0,0-3,0l.05.09a2.15,2.15,0,0,1,0,1.74l.09,0a3.67,3.67,0,0,1,2.53-.12l.69.12,0-1Z"/><path class="cls-6" d="M35.51,15.34c.06.51.13.94.2,1.31s.09.53.12.76a0,0,0,0,1,0,0,3.63,3.63,0,0,1,1.77.75v-.19a9,9,0,0,0-.18-1.58,17.74,17.74,0,0,1-.24-1.87l-.05-.75-.78-.07c-.74-.05-1.62-.21-1.62-.21l.15,1.78Z"/><path class="cls-6" d="M28.47,12.75l.62.45h0a3.68,3.68,0,0,1,1.78-.72l-.14-.14a9,9,0,0,0-1.24-1A17,17,0,0,1,28,10.19l-.59-.49-.57.5c-.56.48-1.29,1-1.29,1l1.36,1.15s.11-.07.5-.37Z"/><path class="cls-6" d="M3.55,44.78v-.44h.22a.55.55,0,0,0,.32-.06s.06-.13.06-.29V41.74a.47.47,0,0,0-.06-.3.55.55,0,0,0-.32-.06H3.55V41H5.6v.43H5.33a.53.53,0,0,0-.32.07s-.06.13-.06.29v.84H6.6v-.84a.47.47,0,0,0-.06-.3.49.49,0,0,0-.31-.06H6V41H8v.43H7.79a.51.51,0,0,0-.32.07s-.06.13-.06.29V44a.46.46,0,0,0,.06.29.53.53,0,0,0,.32.06H8v.44H6v-.44h.27a.49.49,0,0,0,.31-.06s.06-.13.06-.29V43H5v1a.46.46,0,0,0,.06.29.55.55,0,0,0,.32.06H5.6v.44Z"/><path class="cls-6" d="M8.3,42.86a1.93,1.93,0,0,1,.59-1.46,2.09,2.09,0,0,1,1.52-.56,2.13,2.13,0,0,1,1.53.56,2.14,2.14,0,0,1,0,2.93,2.13,2.13,0,0,1-1.53.56,2.09,2.09,0,0,1-1.52-.56A1.94,1.94,0,0,1,8.3,42.86Zm.9,0A1.88,1.88,0,0,0,9.52,44a1.08,1.08,0,0,0,.89.41A1.07,1.07,0,0,0,11.3,44a2.24,2.24,0,0,0,0-2.31,1.07,1.07,0,0,0-.89-.41,1.08,1.08,0,0,0-.89.41A1.87,1.87,0,0,0,9.2,42.86Z"/><path class="cls-6" d="M12.6,44.78v-.44h.12a.56.56,0,0,0,.32-.07.67.67,0,0,0,.19-.3l1.06-3h.8l1.14,3a.75.75,0,0,0,.18.32.54.54,0,0,0,.29.05h.11v.44h-2v-.44h.31a.65.65,0,0,0,.25,0,.11.11,0,0,0,.07-.11s0-.05,0-.07l0-.12-.17-.45H14l-.16.48s0,0,0,.06a.36.36,0,0,0,0,.11.11.11,0,0,0,.06.11,1.07,1.07,0,0,0,.25,0h.3v.44Zm2.49-1.67-.5-1.32-.45,1.32Z"/><path class="cls-6" d="M18.11,44.78V43.2h.45a1.43,1.43,0,0,0,.42.87,1.23,1.23,0,0,0,.86.3,1.18,1.18,0,0,0,.59-.12.43.43,0,0,0,.2-.37.44.44,0,0,0-.16-.36,1.07,1.07,0,0,0-.49-.21l-.62-.15a2.05,2.05,0,0,1-1-.42.9.9,0,0,1-.3-.71,1.11,1.11,0,0,1,.38-.87,1.5,1.5,0,0,1,1-.32,1.63,1.63,0,0,1,.59.1,2,2,0,0,1,.53.29l.2-.28h.34V42.4H20.7a1.37,1.37,0,0,0-.41-.81,1.12,1.12,0,0,0-.78-.28.94.94,0,0,0-.54.13.41.41,0,0,0-.19.36.4.4,0,0,0,.14.31.91.91,0,0,0,.43.18l.77.18a1.85,1.85,0,0,1,.91.44,1,1,0,0,1,.31.75,1.15,1.15,0,0,1-.4.89,1.53,1.53,0,0,1-1,.34,2,2,0,0,1-.63-.11,2.78,2.78,0,0,1-.64-.36l-.12.36Z"/><path class="cls-6" d="M21.62,44.78v-.44h.22a.53.53,0,0,0,.32-.06s.06-.13.06-.29V41.74a.47.47,0,0,0-.06-.3.53.53,0,0,0-.32-.06h-.22V41h3.77v1.53H25a1.45,1.45,0,0,0-.21-.88,1.11,1.11,0,0,0-.8-.22H23v1.18h.22a.65.65,0,0,0,.47-.12,1,1,0,0,0,.14-.57h.44v1.92h-.44a1.27,1.27,0,0,0-.14-.64.58.58,0,0,0-.46-.14H23v1.34h1a.81.81,0,0,0,.68-.23,1.74,1.74,0,0,0,.24-1h.44v1.62Z"/><path class="cls-6" d="M29.77,44.78H29l-1.9-3.12V44c0,.16,0,.25.06.29a.53.53,0,0,0,.32.06h.26v.44H25.82v-.44h.27a.51.51,0,0,0,.31-.06s.06-.13.06-.29V41.74a.47.47,0,0,0-.06-.3.51.51,0,0,0-.31-.06h-.25V41h1.64l1.69,2.78v-2a.47.47,0,0,0-.06-.3.53.53,0,0,0-.32-.06h-.27V41h1.81v.43h-.18a.51.51,0,0,0-.32.07s-.06.13-.06.29Z"/><path class="cls-6" d="M31.65,44.78v-.44h.22a.49.49,0,0,0,.31-.06s.06-.13.06-.29V41.74a.47.47,0,0,0-.06-.3.49.49,0,0,0-.31-.06h-.22V41H33.7v.43h-.27a.51.51,0,0,0-.32.07s-.06.13-.06.29v.84H34.7v-.84a.47.47,0,0,0-.06-.3.49.49,0,0,0-.31-.06h-.27V41h2v.43h-.22a.51.51,0,0,0-.32.07s-.06.13-.06.29V44a.46.46,0,0,0,.06.29.53.53,0,0,0,.32.06h.22v.44h-2v-.44h.27a.49.49,0,0,0,.31-.06s.06-.13.06-.29V43H33.05v1a.46.46,0,0,0,.06.29.53.53,0,0,0,.32.06h.27v.44Z"/><path class="cls-6" d="M45.5,44.78v-.44h.25a.53.53,0,0,0,.32-.06s.06-.13.06-.29V41.52L44.9,44.78h-.38l-1.16-3.33V44c0,.16,0,.25.06.29a.53.53,0,0,0,.32.06H44v.44H42.18v-.44h.21a.51.51,0,0,0,.31-.06s.06-.13.06-.29V41.74a.47.47,0,0,0-.06-.3.51.51,0,0,0-.31-.06h-.21V41H44l.85,2.48L45.76,41h1.71v.43h-.22a.51.51,0,0,0-.32.07s-.06.13-.06.29V44a.46.46,0,0,0,.06.29.53.53,0,0,0,.32.06h.22v.44Z"/><path class="cls-6" d="M47.69,44.78v-.44h.22a.55.55,0,0,0,.32-.06s.06-.13.06-.29V41.74a.47.47,0,0,0-.06-.3.55.55,0,0,0-.32-.06h-.22V41h3.76v1.53H51a1.38,1.38,0,0,0-.22-.88,1.08,1.08,0,0,0-.79-.22h-.92v1.18h.22a.66.66,0,0,0,.47-.12,1.15,1.15,0,0,0,.14-.57h.43v1.92h-.43a1.27,1.27,0,0,0-.14-.64.6.6,0,0,0-.47-.14h-.22v1.34h1a.82.82,0,0,0,.69-.23,1.84,1.84,0,0,0,.24-1h.43v1.62Z"/><path class="cls-6" d="M39.17,40.33a2.49,2.49,0,1,0,2.49,2.49A2.48,2.48,0,0,0,39.17,40.33Zm1.3,1.89v2.11h-.86V43.27h-.87v1.06h-.86V42.22h-.6l1.89-1.08,1.9,1.08Z"/></g></g></svg>