<?xml version="1.0" encoding="UTF-8"?>
<svg width="14px" height="8px" viewBox="0 0 14 8" version="1.1" xmlns="http://www.w3.org/2000/svg" xmlns:xlink="http://www.w3.org/1999/xlink">
    <title>Arrow-down - simple-line-icons</title>
    <g id="04.-Air-Ticket" stroke="none" stroke-width="1" fill="none" fill-rule="evenodd">
        <g id="04.1-Air-Ticket" transform="translate(-804.000000, -916.000000)" fill="#A6A6A6">
            <g id="--Air-Ticket-Booking" transform="translate(150.000000, 601.000000)">
                <g id="Group-6" transform="translate(66.000000, 292.000000)">
                    <g id="Group-3" transform="translate(324.000000, 0.000000)">
                        <path d="M264,23.4511719 C264,23.3964841 264.011393,23.3395185 264.03418,23.2802734 C264.056966,23.2210283 264.091146,23.16862 264.136719,23.1230469 C264.227865,23.0410152 264.337239,23 264.464844,23 C264.592449,23 264.701822,23.0410152 264.792969,23.1230469 L270.972656,29.3027344 L277.056641,23.21875 C277.147787,23.1276037 277.257161,23.0820312 277.384766,23.0820312 C277.51237,23.0820312 277.621744,23.1276037 277.712891,23.21875 C277.804037,23.3098963 277.849609,23.4192702 277.849609,23.546875 C277.849609,23.6744798 277.804037,23.7838537 277.712891,23.875 L271.300781,30.2871094 C271.209635,30.3782557 271.100261,30.4238281 270.972656,30.4238281 C270.845051,30.4238281 270.735678,30.3782557 270.644531,30.2871094 L264.136719,23.7929688 C264.091146,23.7473956 264.056966,23.6949873 264.03418,23.6357422 C264.011393,23.5764971 264,23.5149743 264,23.4511719 Z" id="Arrow-down---simple-line-icons"></path>
                    </g>
                </g>
            </g>
        </g>
    </g>
</svg>