<?xml version="1.0" encoding="UTF-8"?>
<svg width="52px" height="78px" viewBox="0 0 52 78" version="1.1" xmlns="http://www.w3.org/2000/svg" xmlns:xlink="http://www.w3.org/1999/xlink">
    <!-- Generator: Sketch 63.1 (92452) - https://sketch.com -->
    <title>Shape</title>
    <desc>Created with Sketch.</desc>
    <g id="#-Cá-nhân-Cao-cấp" stroke="none" stroke-width="1" fill="none" fill-rule="evenodd">
        <g id="#PC---CaNhan-CC" transform="translate(-736.000000, -1355.000000)" fill="#0B1C2B" fill-rule="nonzero">
            <g id="Group-40" transform="translate(0.000000, 807.000000)">
                <g id="Group-35" transform="translate(122.000000, 50.000000)">
                    <g id="Group-34" transform="translate(0.000000, 69.000000)">
                        <g id="Group-33" transform="translate(0.000000, 393.886544)">
                            <g id="Group-31-Copy">
                                <g id="Group-28-Copy-2" transform="translate(583.535620, 0.000000)">
                                    <g id="icon/bank/money-1" transform="translate(19.000000, 36.000000)">
                                        <g id="icon/money-1">
                                            <g id="profit-copy">
                                                <g id="profit" transform="translate(11.717391, 0.000000)">
                                                    <path d="M0.0309154176,72.9761652 C0.031881545,75.1862955 1.82368762,76.9781016 4.03413998,76.979069 L47.346318,76.979069 C48.9651909,76.9803558 50.4256223,76.0039439 51.0455408,74.5080886 C51.6654593,73.0119111 51.3228135,71.2893427 50.1773329,70.1445062 L46.2182272,66.1844344 L46.2182272,54.1184046 C46.2214476,45.8224454 40.6908082,38.5441189 32.6982066,36.3240055 L35.8261384,30.0826335 C36.0251564,29.6836314 36.003258,29.210239 35.76785,28.8318472 C35.5321199,28.4524893 35.117016,28.2231999 34.6716408,28.2257762 L26.9733798,28.2257762 L26.9733798,24.3771288 L28.2566916,24.3771288 C34.6310643,24.370044 39.7958713,19.2042709 39.8029561,12.8298983 C39.8029561,12.12142 39.2287666,11.5469085 38.5202883,11.5469085 L35.9546306,11.5469085 C32.4631207,11.5481966 29.1603236,13.1306796 26.9733798,15.8512363 L26.9733798,10.2635966 C31.9307958,10.2577999 35.9481899,6.24104992 35.9546306,1.28298983 C35.9546306,0.57451151 35.3801191,0 34.6716408,0 L33.3883289,0 C30.2307698,0.00483053812 27.3079748,1.66782239 25.69039,4.37871803 C24.0724831,1.66782239 21.15001,0.00483053812 17.992451,0 L16.7094612,0 C16.0013049,0 15.4267934,0.57451151 15.4267934,1.28298983 C15.4329121,6.24104992 19.4496621,10.2577999 24.4070781,10.2635966 L24.4070781,15.8512363 C22.2201344,13.1306796 18.9173372,11.5481966 15.4267934,11.5469085 L12.8604917,11.5469085 C12.1516914,11.5469085 11.5775019,12.12142 11.5775019,12.8298983 C11.5845866,19.2042709 16.7503597,24.370044 23.1244103,24.3771288 L24.4070781,24.3771288 L24.4070781,28.2257762 L16.7094612,28.2257762 C16.26473,28.2257762 15.8515583,28.4557096 15.6174384,28.8344235 C15.3836406,29.2124933 15.3620642,29.6849196 15.5610822,30.0826335 L18.6819292,36.3240055 C10.6896497,38.5441189 5.15868829,45.8224454 5.1622307,54.1184046 L5.1622307,66.1844344 L1.20344701,70.1445062 C0.454392252,70.8967813 0.0331696874,71.9140918 0.0309154176,72.9761652 Z M33.2601587,2.56597966 C32.6556979,5.50423247 30.1003454,7.63385387 27.1015499,7.69826099 C27.7056887,4.76065229 30.2610412,2.63038678 33.2601587,2.56597966 Z M18.1202991,2.56597966 C21.1190946,2.63038678 23.6750912,4.76065229 24.2792299,7.69826099 C21.2804344,7.63385387 18.7247599,5.50423247 18.1202991,2.56597966 Z M35.9546306,14.1125661 L37.1455182,14.1125661 C36.5024132,18.5289623 32.7184949,21.8050305 28.2566916,21.8111491 L27.0641938,21.8111491 C27.707299,17.3947529 31.4912172,14.1183627 35.9546306,14.1125661 Z M23.1244103,21.8111491 C18.6613189,21.8050305 14.8777227,18.5289623 14.2342955,14.1125661 L15.4267934,14.1125661 C19.8889186,14.1183627 23.6725149,17.3947529 24.315942,21.8111491 L23.1244103,21.8111491 Z M32.5951552,30.7917559 L30.0294976,35.9237152 L21.3509603,35.9237152 L18.7849806,30.7917559 L32.5951552,30.7917559 Z M3.0168295,71.9575666 L7.35271681,67.6226454 C7.59327742,67.3820848 7.72853237,67.0555407 7.72853237,66.7154711 L7.72853237,54.1184046 C7.72563407,46.4732794 13.1638492,39.9085838 20.6759736,38.4896949 L30.7041622,38.4896949 C38.2166087,39.9085838 43.6551459,46.4732794 43.6525696,54.1184046 L43.6525696,66.7154711 C43.6525696,67.0555407 43.7881466,67.3820848 44.0280631,67.6226454 L48.3636284,71.9575666 C48.7751899,72.3694501 48.8985295,72.9887246 48.6753588,73.526202 C48.4528322,74.0643235 47.9282362,74.4140543 47.346318,74.4140543 L4.03413998,74.4140543 C3.45254364,74.4140543 2.92794767,74.0643235 2.70477702,73.526202 C2.48257242,72.9887246 2.60526796,72.3694501 3.0168295,71.9575666 Z" id="Shape"></path>
                                                </g>
                                            </g>
                                        </g>
                                    </g>
                                </g>
                            </g>
                        </g>
                    </g>
                </g>
            </g>
        </g>
    </g>
</svg>