<svg id="Layer_1" data-name="Layer 1" xmlns="http://www.w3.org/2000/svg" viewBox="0 0 1440 956"><defs><style>.cls-1{fill:none;}</style></defs><title>Ngoai-that-03-C</title><polygon points="1224 667.25 1224 668.87 1163.13 691.83 1113.69 689.66 1113.97 758.04 1136.32 759.18 1147.99 753.84 1159.5 754.67 1159.16 760.66 1382.33 653.16 1382.12 609.25 1224 667.25"/><path d="M670.75,671l-.17-10.58,7.08-1.17-.21-9.58-125.77-4.58L437.3,661.33l-40.23-1.75L397,657.5l-268.16-11-13,1.58-27.32-1.19.32,52.69,27.31,1.11,12.69-1.49,275.56,15.47,0,2.31,32.11,2.17,104.66-19.41-.06-2.22.37-1.42-.31-1.29-.06-.62-.74-1.11-.12-.8a2.24,2.24,0,0,0-.18-.68,13.66,13.66,0,0,0-1.47-1l-1.07-.6,1.38-1.43s.37-.12.31-.31-1-.74-1-.74l-.28-.25-.23-1.17.32-.86.68-.31.93-.06.12,0a6,6,0,0,0,.86.21h1.87l.72-.84.25-1,.74-.8.49-1,.43-1,.49-1.18-1-1.11s.43-.56.43-.74.06-.62.06-.62l.06-.62.37-.37.43-.37s0-.43.62-.43a4.19,4.19,0,0,0,1-.12l.06-.55-.31-.37-.25-.25s-.06,0-.31-.18l-.25-.18-.55-.55s-.31-.31-.12-.38.8-.31.8-.31h.76l0,.26s.55-.56.55-.74a8.85,8.85,0,0,0-.31-1.11s.25-.77.43-.77,1-.14,1-.14l-.16-.07,0,.36v.2l.5.6.31.25,1.23-.06a8.25,8.25,0,0,1,.93,1.48s0,0-.28.18-.79.37-.72.62.25.86.25.86.56.12.81-.18a6.85,6.85,0,0,1,.74-.92l.56-.37.8-.06-.06-.43.12-.55-.49-.55-.37-.31-.25-.31-.25-.68.43-.43.31-.25.18-.37.12-.25.06-.49-.49-.43-.55-.37-.06-.1.12.14h.54l.63-.53-.13-1.3V664l-.59.31,0-.41.13-1,.21-.49.27-.49V662s.74-.28.74,0a.84.84,0,0,0,.31.55l.31.74.31.49-.28.49-.4.43V666l.24.16.93-.49.49-.37.25-.31.46-.12.08.74.25.7.32.7h.48l.38-.84.31-.5-.47-.8L558,664h0l.56-.55-.24-.43-.06-.43-.37-.8-.09-.25,0-.31.07-.2.44,0h.24l.63.09.37-.09H559v2l.74-.23.62-.18.37.62-.25.49-.22.55a10.22,10.22,0,0,0,0,1.36c.06.18.25,1.17.25,1.17l.13.55.5.31.49.12.06.49-.06.62-.18.37a2.66,2.66,0,0,0,.25.86,1.89,1.89,0,0,0,.43.49s.92-.62,1,.06-.74,1.36-.8,1.54-.25.55-.18.74.31,1,.31,1l.18.43a.78.78,0,0,0,0,.62,1.34,1.34,0,0,0,.49.68l.62.25s.06-.62.31-.62a4.82,4.82,0,0,0,.86-.18l.92.31.37-.06s0-.06.25-.18a4.87,4.87,0,0,0,.68-.49l.12-.62-.06-.55-.37-.43-.49-.68-1.51-1.11s-.83-.25-.83-.43V670l.79-.79.68-.21h0l.65-.31.12.49.06.8-.12.4a1.66,1.66,0,0,0,.12.66c.12.18.49,1,.49,1l.31.95h.36l.13-.86.12-.56a1.23,1.23,0,0,1,0-.49c.06-.18.12-.46.12-.46l-.41-.51-.47-.69V668l.75-.73.8.25.68.18.49-.25a1.14,1.14,0,0,1,.46-.18,4.93,4.93,0,0,0,.69-.12l-.3.8-.43.31-.49.92.12.69a2.38,2.38,0,0,0,.56.13h.16l.83.48.37,1.07-.92.45h-.28l-1.5-.79V671a2.36,2.36,0,0,0-.2.89,2,2,0,0,0,.43.62s-.06-.18-.18.06a1.7,1.7,0,0,1-.55.49s-.22.06-.22.25a1.12,1.12,0,0,0,.14.43.5.5,0,0,1,.5.06l.25.18.06.31-.68.25-1,.62a2.05,2.05,0,0,0-.12.86l.06.37s-.62.18,0,.31.55.12.55.12V677l1,.69.37.31a.64.64,0,0,1,.31.43.78.78,0,0,0,.37.47l1,.1h.35a.67.67,0,0,1,.69.41c.25.49.25.37.25.37s0-.19.31.43,0,.34.31.58a2.34,2.34,0,0,0,.62.35s.12,0,.18-.25.18-.93.18-.93l-.37-1.6.43-.74.37-1-.12-.92.25-.18.43-.18.25-.43a4.6,4.6,0,0,0,.12-.68c0-.18.06-1.11.06-1.11l-.06-.55-.18-.49-.37-.31-.68-.48L574,671h.52l.34.52a.3.3,0,0,1,.43.06,2.43,2.43,0,0,0,.43.43s-.31-1-.18-1.2-.26-.45-.26-.45l-.26-.51V669l.15-.75.07-.43-.06-.37-.25-.43,0-.49.45-.43.56-.55.31-.55.5,1.23a2.22,2.22,0,0,0-.06.43c0,.18.06.86.06.86l.43.12a1.49,1.49,0,0,1,0,.55,1.53,1.53,0,0,0-.06.49c0,.18.12.86.12.86a.32.32,0,0,1,0,.43c-.18.25-.49.25-.49.62a2,2,0,0,1-.12.68l.43.06.25-.25.62.06.12.55a1.52,1.52,0,0,0-.74.18c-.25.18-.74,0-.74.31s-.12.31-.12.55a5.55,5.55,0,0,1-.12.8l-.18.31.06.74a1.17,1.17,0,0,0-.25.37c-.06.18-.25.62-.25.62l-.12.74s-.31,0-.25.25a1.9,1.9,0,0,1,.12.68,3.86,3.86,0,0,0,0,.84c.06.37.12.91.12.91h1l.26-.14.31.06s.06.06-.12.18a1.94,1.94,0,0,1-.68.15,4.46,4.46,0,0,1-.55.79c-.12.18-.62.24-.62.55a2.48,2.48,0,0,1-.06.55l1.29.92.37.18s0,.06.37.37,1.17.92,1.17.92l.12.31s-.12.18.18.43a6.86,6.86,0,0,0,.74.49l-.43-2.4-.3-.8a10.22,10.22,0,0,1-.55-1.36V679l1.15-.51.56-.86.37-.43.25-.68.09-.68.08-.43.69-1L582,674l.25-.31.12-.68.12-.31.37,1.54.18.74.19.8.06.92.06.68.55-.43.37-.37.31-.25.31-.37-.13-.25.24-.12V675l.25-.83.37-.43.49-1.42s1.23-1.11,1.36-1.29.83-1.17.89-1.36l.26-.8.38-.62.13-.86s1.11,2.4,1.11,2.59.06.62.06.92a7,7,0,0,0,.37,1.29,4.39,4.39,0,0,0-.31.86,4.72,4.72,0,0,1-.37.92v1a8.3,8.3,0,0,1,.59,1.27,2.62,2.62,0,0,0,.41.74v.68l-.62,1.66a8.4,8.4,0,0,0-.22,1,5.25,5.25,0,0,1-.6,1l-.3.68-.67.62.06-.92-.43-.68-.31-.62-.74-.37-.55-.25-.74-.62.18,1.17-.31,2.59a.6.6,0,0,1-.06.43c-.12.25-.86,1.23-.86,1.23a3.65,3.65,0,0,0-.25.74l-.25.8-.43,1.42s-.12.62.06.43,1.66-.74,1.79-.92a1.72,1.72,0,0,1,.8-.86,14.06,14.06,0,0,0,1.29-.62l.25-.31s.8-.37,1-.43a8.05,8.05,0,0,0,.8-.43,3,3,0,0,1,.74-.31,8.56,8.56,0,0,1,1-.18c.43,0,1.42-.12,1.42-.12a3.35,3.35,0,0,1,.68-.12c.25,0,1.23-.06,1.23-.06a6.43,6.43,0,0,1,.68-.06,7.69,7.69,0,0,1,.92.14.36.36,0,0,0,.37.26h.53l.09-.52.37-.06.31.49-.37,2-.37.91-.74.67-1.23,1-.68.92-1.66,1.6-.62.74-.06.62.18.62,1.29-.86.74-.62,1-.74,2.53-.43a3.24,3.24,0,0,1,1.36-.68c.62-.06,3-.78,3.21-.78l1.54.08h2.07s.64,0,1.14.08A10.61,10.61,0,0,0,609,689h1.51a3.2,3.2,0,0,1,1.08,0,1.74,1.74,0,0,0,.86,0l-5.24,1.42s-2.28.83-2.53.89l-2.77.72a2.58,2.58,0,0,0-.55.49c-.18.25-.92.92-.92,1.17s-.31.74-.31.92a2.49,2.49,0,0,1-.18.62l.25.06a10.66,10.66,0,0,0,1.91.34c.92.06,1.17.34,1.17.34h2.24l.47-.19,1.48-1.48a5.34,5.34,0,0,1,1.36-.25c.31.06,1.6.08,1.6.08a8.51,8.51,0,0,1,1.23-.16h.86s1.3.27,1.73.39,1,0,1.17.18.55.37.74.49.18.09.18.09l-.68-2.23-.74-1.06a9,9,0,0,1-.37-1.18,9.6,9.6,0,0,1-.31-1.42c.06-.25.25-1.11.25-1.11a2.49,2.49,0,0,1-.25-.74,17.48,17.48,0,0,0-.43-1.73l-.37-.31.18-.74-.22-1.11-.4-.62V682l1.72,1.11-1.11-2.71-.43-1-.68-1.48-.28-.25,2.6.37a1.18,1.18,0,0,0,.44.55,10.63,10.63,0,0,0,1.11.49s.31.18.68.43a5.36,5.36,0,0,0,1.17.49c.18.06.56-.06.8.18a5.1,5.1,0,0,0,1,.55c.31.18.8.18,1,.43s.92.86,1.11,1.11a4.75,4.75,0,0,0,1,.68l.07.25-.3-1.79V678l.47-.81.43-.55.62-.92.8-.62.65-.74.76-.55.62-.49.31-.55.06-.43.06,3,.06.55s.06.92.06,1.11a1.22,1.22,0,0,0,.12.43l.43-.68.86-.55.12-.8,1.73-1.11-.18-.86.18-1.29.18-.43s.31-.74.37-.92.43-.86.43-.86a5.43,5.43,0,0,1,.37-1c.18-.31.68-1.17.68-1.17l.31-.62.8,1.54.68,1s.25.37.43.68a7.78,7.78,0,0,1,.34,1.54,8.79,8.79,0,0,1,.22,1.11V674l0,1.16v1l-.24,1a5.68,5.68,0,0,0-.18.74,10.69,10.69,0,0,1-.59,1.85c-.18.37-.66,1.23-.66,1.23l-.12.31-.49.25-2.22-2.34-.49-.37-.78,1.29-.28,1V682l.37,1.11-.3,1.36-.24,1.11-.55.92,0,.49.51.55.93.12,1.05.31.5.12-.06-.92-.25-.49-.31-.8.25.12h1.64l.64.26.62.18.62.55.18,1.2.49.23.06.79.16.3L636,689v-1l1,.16.39-.12.58-.55V686l.51-.36,1,.12s.47-.06.47.25v1.54a4.21,4.21,0,0,1-.06.54l.12-.08h.44l.73.1.55.43.31.18.25-.52.62-.26.31-.87.12-.44.18-.43.12-.43-.55-.93-1.29.06-.85-.49V684l1.46-.15.59-.25,1-.18v-.92l-.49-.49-.34-.06-.66.12-2.09.06-.42-.86V681l.73-.23v-.43l-.12-.31.43-.37.4-.25-.17-.86-.3-.18-.24-.37s-.55-.31-.55-.49a16.29,16.29,0,0,0-.62-1.66l1.36.55s-.58.55-.39.68a1.63,1.63,0,0,0,.47.18V678s.84.79.84,1,.31.62.37.8a8.4,8.4,0,0,0,.49.86l.8.37a1.58,1.58,0,0,0,.34-.43,5.88,5.88,0,0,0,.26-1l-.11-.08V679l1-.57.19-.49-.24-.18-.25-.25-.09-.43.2-.74,1.55-.55-.12-.62.86-.43.37.37s.25.25.19.43-.62,1.23-.62,1.23l-.25.86.37.43a1.34,1.34,0,0,0,.37.06c.18,0,1.17.18,1.17.18l.62.06.06.43a7.65,7.65,0,0,1-.06.92c-.06.43-.06.8-.12,1.17a6.89,6.89,0,0,1-.18.8,10.39,10.39,0,0,0-.18,1.36l.25.18.55-.12,1-.25.62.37-.62,1.36.06,1.66.37.49.43-.49.43-.43,1.11-.37.06-.25-.12-.49-.43-.8s-.5-.43-.44-.68a2.5,2.5,0,0,0-.13-.86V682l.25-.8-.25-.37v-.43l.35-.8-.67-1.17A10.3,10.3,0,0,1,651,677v-1l.21-.6-.18-1.29.31-.31.56-.31.22-.49.2-.92-.92-1-.06-.25-.06-.31,1-.37a.36.36,0,0,1,.25-.06,3.47,3.47,0,0,0,.62-.12l-.06-.55-.43-.37h-.13s-.54-1.11-.3-1.42a7.31,7.31,0,0,0,.47-.94,2.73,2.73,0,0,0,.14-.36l.06-.71.55-.32a13.78,13.78,0,0,0,0,2.27,6,6,0,0,0,.18.67,5.29,5.29,0,0,0,.37.8.4.4,0,0,1,.43-.12,1.65,1.65,0,0,1,.8.62c.12.18.62.62.8.62a4.19,4.19,0,0,0,.74-.19l.18-1.85-.18-.49-.37-1-.06-.31-.43-2s.31-.68.86-.31,1,.74,1.17,1.17a3.3,3.3,0,0,1,.25,1c0,.37-.37.92-.43,1.42s-.31,1.6-.31,2a6.54,6.54,0,0,0,.18,1.11l1,.3s-.09.14-.09.81a9.67,9.67,0,0,1-.06,1.36s.06,1,.06,1.36a5.8,5.8,0,0,1-.16,1l.23-.1.86-.37s.43-.12.31.62-.12.92-.25,1.11a5.15,5.15,0,0,0-.49.74c-.06.18-.55.49-.68.8s-.37.49-.37.92a2.52,2.52,0,0,0,.18.86l.25.31.92.06.86-.43.37-.25c.31.06.55.37.74.49s.06.06.55.12,1.36.06,1.36.06l.25-.68.55-.37,1.54-.86s-1-.68-1-1.29a15.92,15.92,0,0,0-.31-2.1,3.48,3.48,0,0,1,0-.86c.06-.43.06-2,.06-2s.68,1.54.74,1.73.43,1,.43,1l.55.31s.49-.12.55-.31l.31-.92-.06-.74-.8-1.17a2.57,2.57,0,0,1,.86-.31,3.6,3.6,0,0,0,.62-.06.58.58,0,0,1,.68-.37c.55.06.92,1.23.62,1.36a4.11,4.11,0,0,0-.86.68l-.68,1s.25.6.49.6h1.48c-.32,0-.74.47-.74.47s-.55,0-.62.18-.37.21-.43.52-.25,2-.25,2,.37-.5.37.67a5.77,5.77,0,0,1-.12,1.54,3.82,3.82,0,0,1-.25.8,5.18,5.18,0,0,0-.37,1.17c0,.18-.31,1.42-.31,1.42s-.31.49-.25.68.18.68.18.68-1-.12.31.43a10,10,0,0,0,2,.68l.86.37a4,4,0,0,0,.8.18,3.38,3.38,0,0,0,.25-.74c0-.18.18-1,.18-1a11.78,11.78,0,0,0,.37-1.29c0-.18.12-1.11.12-1.36a4,4,0,0,1,.31-1.23l.49-1.17.37-.55.18-.68a2.46,2.46,0,0,1,.37-1,4.46,4.46,0,0,0,.55-.86l.49-.55a8.9,8.9,0,0,1,.25,1.42,16,16,0,0,0,0,1.73c.06.25.31.92.37,1.11a1.79,1.79,0,0,1,.18.68,9.39,9.39,0,0,0,.18,1.17l.62-.68.31-.49,1.17-1,.67.31.33,47.08,9.17.67.08,5.08,18.17,1.25-.42-18.25,14.92-3-.75-21,13.67-3V670l-16.5,3.25Z"/><path d="M658.3,675.46l0-.08C657.82,675.61,658.3,675.46,658.3,675.46Z"/><path d="M644.74,680.09a.91.91,0,0,0-.13-.43.14.14,0,0,0-.12-.08v.14Z"/><rect class="cls-1" width="1440" height="956"/></svg>