<svg id="Layer_1" data-name="Layer 1" xmlns="http://www.w3.org/2000/svg" viewBox="0 0 1440 956"><defs><style>.cls-1{fill:none;}</style></defs><title>Ngoai-that-03-B</title><path d="M1381.15,376.09l-158.23-39.75v9.08l-5.64,0-61-14.71L1111.44,332l.11,1L717.88,347.62l-4.87-.37-36.62,1.38-.12,5.5L548.5,358.25,464,350.11l-.26,9.21-28.41-2.17-33.1,1.22.09,1.3-274.87,9.82-13.38-.61-27.31,1.25L87.38,432l27.19-.32,13,.07,268.17-5v-.59l39.2-.76,113.81,4.12,120.63-2,0-6.37L713.25,420l4.75.5,386.92-7.12v-.51l56.94-1.16,61.28,6.38.09,10.68-5.44.24h-20.68l-27.63-1.62,0-3-7.61-.45-53.42.74,0,.49L676.5,432l.67,161.33L560.5,591.23,559.75,439h-11l-27.92-.69,1.33,154.84-34,3.59-1-159.71-51.49-1.29-32.6.44-.08.68-42.87.62.38,160.84-184.67-5-.58-153-47.67.88-13-.38-27,.5.73,196.12,26.87.88,12.89-1.14L396.54,648l-.05,1.57,40.95,1.17,113.94-14.81,126,4.25.3,19.11-.2,0,0,1.27,37.31,1.4,18.68-2.74-.38-17.28L776,643v9.92l79.08,2.75-1-221.08,258-3.91,1.27,246.61,45.46,1.9,11.85-4.59.22-7.43,19.32,1,29.07-9.72,5.12.31.11,8.5,4.45-1.84-1.17-235.77,15.5,1.57,1.18,228.71,28.39-10.53-.93-216.22,12.75,1.37,1.28,210,96.45-35.33Zm-647.92,219-.88-158.93,30.76-.35.53,159.81Z"/><rect class="cls-1" width="1440" height="956"/></svg>