<svg id="Layer_1" data-name="Layer 1" xmlns="http://www.w3.org/2000/svg" viewBox="0 0 1440 956"><defs><style>.cls-1{fill:none;}</style></defs><title>Ngoai-that-03-A</title><polygon points="127.58 441.25 403.1 436.77 403.08 436.18 435.68 435.73 550.48 438.89 676 436.91 676 432 715.58 431.08 720.49 431.13 1108 425.12 1108 424.62 1161.67 423.83 1223.2 428.57 1223.09 418.08 1161.84 411.7 1104.87 412.87 1104.92 413.37 720.5 420.41 715.92 420.12 669.33 421.12 669.38 427.5 550.66 429.44 434.94 425.38 395.74 426.14 395.75 426.73 127.58 431.75 114.56 431.68 80.67 432.16 80.72 441.46 114.75 440.79 127.58 441.25"/><polygon points="677.38 640.18 551.5 635.93 437.44 650.75 396 649.59 396 648 127.79 637.23 115.11 638.38 88.29 637.51 88.34 636.72 81.59 637.21 81.66 646.57 115.7 648.13 128.76 646.52 396.96 657.51 397.05 659.59 437.29 661.33 551.2 645.08 677.5 649.62 677.38 640.18"/><polygon points="733.5 659.16 714.54 661.91 677 660.5 677 659.21 670.25 660.39 670.58 670.99 716.67 673.24 740.38 668.74 740.4 659.33 776 652.91 776 643 733.17 641.91 733.5 659.16"/><polygon points="1219.31 658.43 1171.38 674.37 1158.94 679.18 1113.38 677.25 1113.38 675.25 1106.31 677.56 1106.13 689.37 1163.5 691.83 1224.56 668.87 1224.41 658.75 1219.31 658.43"/><polygon points="86 370.01 113.81 368.88 127.31 369.49 402.24 359.67 402.18 358.37 435.3 357.15 463.71 359.32 463.98 350.11 435.07 346.98 395.26 348.55 395.35 350.02 127.17 360.36 114.41 359.84 80.09 360.62 79.93 369.83 86 370 86 370.01"/><polygon points="1218.33 297.08 1224.67 297.33 1439.5 368.44 1439.42 359.5 1224.58 282.25 601.58 311.41 596.61 313.47 595.87 316.6 586.5 319.58 586.42 325.25 593.5 326.41 593.67 329.75 568.83 330.72 464.76 318.17 469.74 321.91 469.58 325.91 463.75 326.5 450.75 323.91 450.58 320.58 458.25 318.25 16.04 339.2 11.46 339.79 6.63 341.5 6.88 349.91 13.42 350.2 13.71 360.79 463.58 342.91 568.58 353.66 676 349.69 676 349 668.87 348.33 715.41 346.76 720.18 347.48 1108.63 333.08 1104.32 332.15 1161.08 330.41 1222.91 345.41 1222.83 334.08 1161.09 318.1 1104.5 320.75 720.17 336.58 714.75 336.28 668.41 339.06 668.62 340.7 615.79 340.42 594.61 337.85 715.18 332.86 720.03 332.57 1161.38 314.75 1219.83 312.41 1435 377.08 1434.95 368.23 1218.33 297.08"/><rect class="cls-1" width="1440" height="956"/></svg>