<svg id="Layer_1" data-name="Layer 1" xmlns="http://www.w3.org/2000/svg" viewBox="0 0 1440 956"><defs><style>.cls-1{fill:none;}</style></defs><title>Ngoai-that-02-A</title><polygon points="637.67 535.83 637.4 542.99 661.57 543.82 661.73 366.46 637.67 364.06 637.88 372.19 650 373.48 650 536.48 637.67 535.83"/><polygon points="713.08 250.63 713.33 246.25 203.36 168.69 65.92 338.15 65.71 342.38 204.03 173.91 713.08 250.63"/><polygon points="719.19 245.64 719.29 236.42 198.37 155.48 61.26 331.36 62.02 338.68 199.35 166.21 719.19 245.64"/><polygon points="725.59 236.02 725.47 226.22 194.43 141.44 57.37 324.23 57.06 332 194.55 152.89 725.59 236.02"/><polygon points="1057 330.48 1062.41 329.25 1063.07 322.48 1067.63 321.35 1067.84 313.45 692.21 259.21 652.86 277.58 1057 332.83 1057 330.48"/><polygon points="748 580.48 748 587.48 813.12 584.61 1325.28 597.23 1325.36 589.98 813.08 575.86 748 580.48"/><polygon points="813.06 550.11 748 556.48 748 564.48 812.23 558.98 984.15 564.61 1325.58 577.11 1325.69 569.86 813.06 550.11"/><polygon points="803.81 628.13 803.41 806.11 809.54 805.81 809.04 636.65 944.71 637.15 944.87 797.65 951.19 796.97 950.84 629.3 803.81 628.13"/><polygon points="803 548.48 809 547.48 809 483.98 803 484.48 803 548.48"/><polygon points="944.54 488.65 950.62 488.98 950.71 395.81 803.54 380.15 803.37 481.4 809.29 480.4 809.54 389.15 944.87 402.65 944.54 488.65"/><polygon points="950.62 491.9 944.62 492.06 944.71 552.81 951.12 552.98 950.62 491.9"/><path d="M729.3,373.69,677.43,368l-1.06,177,51.92,1.67Zm-8.49,165.54L685,537.75V377.11l36.32,3.64Z"/><path d="M678.54,805.15,729.87,802,730,629.15l-51.83-.83ZM721.21,636,721,795.15,685,797l-.17-161.17Z"/><polygon points="637.46 635.66 652.37 635.48 653.17 799.2 637.42 799.73 637.37 807.51 661.44 806.29 662.01 628.54 637.38 628.3 637.46 635.66"/><path d="M539.12,463.73l.25-147L394.37,300l.25,154ZM531,324.19V454.48L402.61,446l-.27-136.43Z"/><path d="M394.21,768.81l145-5.83.5-146.5L394.37,615Zm137-144.26.16,130.87-128.51,4.73.32-136.55Z"/><path d="M173.37,499.35l.13-124.12-1.37-.25-31.5,23.75.5,113.25,1.5.25Zm-29.39-93,25-18.83V493l-25.16,11.25Z"/><path d="M199.37,347.73l.33,130.08,1.39.26,43.53-18.34.5-148.75-2.25-.25ZM240,452.81l-36.9,17,.45-117.67L240,324.48Z"/><path d="M199.28,619.6l.64,133.81,42.55,11.64,1.53-1V616.71l-1.65-.73Zm41.45,132.78-36.78-9-.15-116.66,37.08-2.26Z"/><path d="M141.85,630.6l-.45,114.1,30.45,8.89,2-1.21-.3-123Zm2.41,105.21.45-98.73L170.34,636l.15,107.17Z"/><rect class="cls-1" width="1440" height="956"/></svg>