<svg id="Layer_1" data-name="Layer 1" xmlns="http://www.w3.org/2000/svg" viewBox="0 0 1440 956"><defs><style>.cls-1{fill:none;}</style></defs><title>Ngoai-that-01-B-01</title><polygon points="548.52 355.32 506.65 360.92 550.67 411.6 550.72 358.16 548.52 355.32"/><path d="M259.47,587.82l1131.31-67.13-1.07-383.21-934,143.86-.27,63.42,763-102.06.31,203,3.18.25v3.44L241.09,528l-.34.69.07,1,.16,1.94-1,.26v1l1.14,1.05h.4a3.41,3.41,0,0,0-.46.56,1.08,1.08,0,0,1-.8.34l-.35,1.14-.24,1,.88-.34a11.77,11.77,0,0,1,1.19-.69l0-.57.21-1.51v-1.23l.57-.69.53-1a5.61,5.61,0,0,0,.47-1.48,2.13,2.13,0,0,1,.46-1l.57,1.14.11,1-.47.69-.49.8.05,1.49.72,1.26.47,1.06v1.68l.38,1.84.46.47-.33.72-.56,1.2a3.82,3.82,0,0,1-.11,1c-.11.34,1.29.18,1.29.18H247l.57-.34.69-.56a1.66,1.66,0,0,0-.23-.81,3.71,3.71,0,0,1-.23-1.37l.34-1.14.8.91.57.69.22.8.44,1.26.65.57.17.69a22,22,0,0,0-.65,2.63,9.31,9.31,0,0,1-.35,1.64v.65l-.35,1.6.76.46L250.2,552l-1.36,1.26,1.95.12-.11.58-.34,1.27-.11,1.29,1.26.29-.91.84-.42,1.33h2l-.7,1,.44.12L253,560l.74-.12.26.34v1.94l0,1.83.36,1.14a.74.74,0,0,1-.55.34c-.34,0-.45,1.26-.45,1.26l.35,1.15.57.46-.8,2.41-.46,1.52.57,1.2.57-.19-.08-.32h1.33l.23.82-.57,1.06.23,1.14-.8,1-.46.91.56.34.9.11.43-.34,1.65.57-.31,1.26-.32,1.05v.66l1,1.34v-1.34l1.14-.61h1.36l.11.43.11,1-.59,2.53h.13l.57.26-.57.39Z"/><path d="M233.63,537.28a8.84,8.84,0,0,1,.25-1.17,7.15,7.15,0,0,1-.25-1.08,7.6,7.6,0,0,0-.5-1.33l-.33-1.83.67-1.08-.83-1.75-1.43.22L54,543.38l-.29,252.07,34.7.59.91-198.24,127.32-7.75L218.3,589h.83l.33-1.19-.17-1.89-.42-1.74-.25-1.2-.42-1.18-.08-1.68-.17-1.59.56-.84.47-.84v-1.92l-.43-2.08.49-1.08.75-.33.54-.33.6-1.08.51,2.67.17,1.92.25,2.08-.25,1.75.25,1.83,1.25-.42a7.75,7.75,0,0,1,.5,1.5,9.06,9.06,0,0,0,.33,2.17c.17.25.75,1.75.75,1.75l-1.42.25-.92.42.75,1.92,2.58.75.08-.83.58-1.58,1.08-1.5s.08-1.5.17-1.83.75-1,.83-1.25-.92-1.58-.92-1.58-1.5-.5-1.5-.75-.08-1.58-.08-1.58l.33-.92a5.67,5.67,0,0,0,.25-1,5.93,5.93,0,0,0-.58-1.25l-1-1.58.5-1.08s-.92-2.58-.92-2.83a8.77,8.77,0,0,1,.67-1.5l-1.36-3-.86-1.17v-2.42l.9-.75-.51-1.33.33-1.67.71-.67.35-1.25,1-.67,1.92,1.33s-.16.17.34.08a12.31,12.31,0,0,0,1.58-.5l-.33-1.25-.42-1.17,1.58-.75-1.17-1.25-.67-1.25.33-.92,1.92-.25-2.53-2-.36-1.75v-1l1.23-.75,1,1.08L229,541.61v-.67l1.48-1.25.49-.92v-2.67l1.21-.08s.19,2,.27,2.25.26,1.92.26,1.92L234,540a7,7,0,0,0,0-1.33A9.08,9.08,0,0,1,233.63,537.28Z"/><rect class="cls-1" width="1440" height="956"/></svg>