<svg id="Layer_1" data-name="Layer 1" xmlns="http://www.w3.org/2000/svg" viewBox="0 0 1440 956"><defs><style>.cls-1{fill:none;}</style></defs><title>Ngoai-that-01-C</title><path d="M1328,533.22v-.28l-481,27v4l-6.8.5.56,13.92L329.69,604.83l-1.24,1.79-.45.8v1.54l-.53,1.85-.47,1v1.16l1.07.63.93-1.79v-1.84l.45-1.14.67-1L330,609v1.94l1.24,1.24,1,1.59-.92,1-.16,1.39,1,1.19.61-2.39.8-.8,1.39,2.19.13,1.39L334,619.94v2l.42,1.38.36,1.39.48,1.79-.16,2-.56,1.45h1.59l.4-1,1.19.06.6,1.32-.8,1.16-.4,1,.6,2.38-.4,1.19-.6,1.39,1,1.39-.8,1-.8,1,.6,1.79.2,2.59-.2,1.59,1.19,1.19,1.19-.2.2-1.79.6-1.39,1.19.8-.47,7,189.33-7-.12,127.84,82.34.2-.2-3.18,4.77-1.39.2-165.08L676,601.25l-.29,172.44,172.33.5.06,3,183,.86-1.25-2-2.81-.6-1.41.2-.8-.8-.2-.8.79-.2,1.39.2.79-.8,1-.74-.8-.54h-2.74l-1.44.12.2-1.12h1.24l2.34-1,1.19-.54,1.59-.27.4-.39-1.79-.79h-1.73l-2.24-1.2-2.78-.54-2.78,1.12-1.79.36-1,.78-1.39.79-1.19.34.6-1.65h-2.41l5.79-2.39,2,.06,1.79-.67,1.19-.43,1.19-.61.2-.48-3-.48h-2.18l-2.4,0-1.59-.93-1.39,1.12-1.19.56-1.39.78-1.68,1-1.48.59v-2.18l1.46-.8,2.74-1.19,1.87-1.59a22,22,0,0,1,2.82-.6c.6,0,2.41.12,2.41.12l.42-.88h-1.58l-.4-1-2-.54-1.79-.86-3.57-.63-1.38-.43v-1.64l1.65-.35,1-1-1.31-1.39-1-.2-2.37.4s-1.18-.6-.39-1a23.8,23.8,0,0,0,2.39-1.59l.6-.8-.79-1.11L1010,746h1.16l2.82-.4,2,.4h1.19l1.79-.08-2.19-2.52-3.18-1.06-3.78-.83.4-3.2s.2-.14,1.39.45a24.34,24.34,0,0,1,2.19,1.25h2.38l.8-.45,1.59,1.05a4.38,4.38,0,0,1,1.39.13,6.58,6.58,0,0,0,3-.63l1.19-1.75.6-1.35h-1.56l-1.63.36-2,.86-1.19-.47.6-1.23,1-2,1.19-1.2,1-1.2,1.19-.8,2-1.39-.6-1,2-.67.8-1.27h-3.34l1-2.36-1.59-.54-1,1.92-2.39,2-2.59-.81-1.79-1.6-.4-1.4-4.38,1.59-1.59,1,.8-2.79,2.39-2.78,1.39-1,2,.4,1.59-.2.8-.59,1.39.21h2.42l2.56-.34-.6-1.13-1.39-.27-2.19-.27h-.38l-1.61-.13-3,.26,1-1.26,1.19-.63.8-.72,1.79-.52h.82l2,.09a5,5,0,0,0,2-1.33l.8-.67,1.19.36,1.79.18,1-1,1.39-1.2,1-.2-1-.51-1.59,1.28h-1.53l-1.65.49-1.19-.49h-1.15l-2.43.11-1.79.46-1.19.92-1,.52h-1.6l2.59-2.69,1.39-1.53,1.79-1.46,2.19-.83-1.39-1.41,2.39-1,1.19.39,2.39.79.8.79,2,.4,2-1.19a7.86,7.86,0,0,1,2.59.6l1.39,1,1,.8,1.19.8.8,1,2,2.39,2.19.69,1.79.49h.76l4.61.49,4.38.06,1.39-1.66-3.18-1,1.59-.53a6.72,6.72,0,0,1,1.59-.33h1.63l2.55-1.4-3.58-.6h-2a11.45,11.45,0,0,0-1.41.92,5.25,5.25,0,0,1-2.39.66l-2-.67,2.19-2.22s.6-1.81,1.19-1.61a36.65,36.65,0,0,0,4.38.19s1.79.59,2.59-.2a.87.87,0,0,0,0-1.39l-1.59-.6-3.18-.8-2.78-.6-3.38-1.19,2-1a1.49,1.49,0,0,1,1.19-.6c.8,0,4.77-.6,4.77-.6l1.19.85,2.19.85h2l-.26-1.47,1-.53h1.26l.53-1,2.19-.54c.8-.6.8-.67.8-.67l1.19-.43,2.39-.22a3.19,3.19,0,0,0,3.78,1.78l-3-3,4.18.79,1.39,2s-.4,1,1.19,1.39,4.57,1,4.57,1l2.59-1.59-3-1.59-2.78-1.79-2.39-1.59-1.19-.2-3-1.19-4-.2.2-1,3.18-.2,2.59-.2,3.38.2,1.19.2.8.6,1,2.19,1.39.4,1.59-.4-1.39-1.19,1.19-.16,2.78,1.63h1.6v.8l-1.19.86-.8,1.32,1,1.76,1.19,1,1.59.39,2,1.39-1-2.39,1.59-.6,2.59.4,2.39.8,2-1.59-2.59-1-3.18-.2-3.78-.6-1-.8.6-2-1.79-1.59s2.19,1.19,3.18,1.59,1.79.93,2.39,1.13a13.33,13.33,0,0,0,2,.34h1.85l-2.4-2.78-3.73-1.07v-2.2h-2.2l.36-1.07,4.93.12h3l-1.45-2.35,5.57.06,2.78.33,1.19,1.16,2.39.78,1.79.59c.6.2,2.19.79,2.19.79l1.39.2-.8.6-.8.6.2,1,1.39.6.8,1.19,2.19.8.6.8s1,.4,1.59.6a11.06,11.06,0,0,1,1.59.8l1.59-1.19,3.38.4-1.79-2.78-3.18-.07-1-.86h3.38l1.59-.18,1.19,2.25,3.18.53,2.19.36,2,.18-1.79-2.59-2.59-1.79-5.37-1.2-2.78-.2s-7-.4-5.57-.6a46.62,46.62,0,0,0,4.77-1.27l2.39.52h1.79l-2.59-1.55s-.6-1.33.4-1.33,6.17.13,6.17.13l2.78,2.15a8.68,8.68,0,0,0,2,1.37,9.5,9.5,0,0,0,2.59.79l1.79-.2a9.18,9.18,0,0,1,1.59,3.38l1.19.94-.8,2.33h1.89l2.29-1.79s.6-1.13,1.19-1.13,1.39-1.86,1.39-1.86l-.4-1.43-2.19-1.41-1.91-.8L1141,686v-2l19.61.44,1,3.18,2.27.6,1.23-.6s0,.4,1.61.2a22.67,22.67,0,0,0,3-.6l3.78-1.39,1.59-1.39,14.39-.76s-2.26,1.49-1.57,1.83a32,32,0,0,0,3.57.66c.51.17,3,.42,3,.42l.89,1.23,2.07.87,1,1.38-1.7,1.37-2.73-.17-1.36-.17-2.56,1.71-.17,1.88,2.39,1,2.22.17.68-.68,1-1.67,1.88-.47h2.06l2.38.2,1.88,1.06,1.54,1-1.88.7h-1.92l-2.18-.07-1.88,1.23,2,2.49.95.27v3l-1.36-.29-1.72,1.88-5.39,2-3.72,1.88,2.24,1.37,2.91.68,1.37-.17,2.39-.85,1.54,1.2,1.37-.51,2.22-.17,2.56.17,1.54.17,3.42,2.9s-.68,1.2-.51,1.71,3.59,3.24,3.59,3.24.17-.17.68.51,4.1,2.56,4.1,2.56l-.85,1.71-2.39.34-.68.34-.92,1.54.62,3.42v1.33l2.2,3.79,2.89,1,.94.51,2,1v3.07l.33,1,1.45.85.72.68,1.22,1.63.7.43h1.71l1.54.09,1.71-.31,1.88-1.09.51-1.23.68-1.16,1.2-.3h1.49l1.07-1.2-.68-1.16s.17-.58.68-.58,3.93.82,3.93.82l1,.49,1,.33,2.22-1,1.37-1.37.61-1.37.61-.68v-2l3.06-1,.59-.85.21-1.26a1.82,1.82,0,0,0-.64-.06h-1.08l-1.14-.62-.17-1.85,2.73-1.78,2-1.06,1.37-.87-.85-1.27-2.39.44h-1.59l-2.51.24s-.17.76-.68.76h-1.81l-.92-.43.34-1.16,2-.75,2.39-.33,1.2-.33h4.95l.69-.67.85-1.16-.17-2.46,3.24-1.06,1-.53,1.54-.35,1.88-.35c1.54-.85,3.93-.86,4.44-1.2a5,5,0,0,1,1.54-.51l3.93.13,1.37,1.16h1.67l1.74-.5.68,0-2.9,1.13.51.82.17,1.35.51,1.51-1.71.66h-2l-2.94-.38-1.37,1.06-1.37,1,1,1,1.2.49-.85,1.19-1.71.68-.85,1.19-2,2.22-1.54,1.19-.34,1.2,2,.17,2.73-.85,1-.51.34-1.2,1.37-.68,4.27-.51.68-.68s1.71-.17,2.39-.17,4.1.17,4.1.17l2,.17-1.71,3.42-.34.68,1,.17,3.24.17.51.68s.17.68-.34.85-2,.51-2,.51a3.81,3.81,0,0,1-1.37.5c-.51,0-3.93.33-3.93.33h-3.25l-.33.48s-2.22-.31-2.9.2a13.09,13.09,0,0,1-2.73,1.13l1.54.65,3.76,2.2,3.93-.18s-.17-.69,1-.52,2.73.34,2.73.34l1,.93-1.71.76h-3.33l-2.65.45-2.56,0s0,.61.85.78l1.54.31.68,1v.38l-2.37,0-2.4-1.71-.77.17s-1.67.17-1.67.68.21,1,.21,1.54v.35h-3.05s.67-.85-.18-.85-4.53-.34-4.53-.34l-2.69-.17s.36,1.54-.83,1.37-4.43-.68-4.43-.68l-.51,1.71-3.41-.85-1.71-.17a4.49,4.49,0,0,1-2,2l-1.71,1-1.54,2-2.56,1.37a4.77,4.77,0,0,1-.85,1.37,19.54,19.54,0,0,1-1.54,1.29l2.39-.08h2.34l3-.42,2-.48,3.24-.24,2.56-.55,1.71-.24L1259,749h2.09l1.67-.3s1.88-.14,2.39.37,2.9.61,3.42,1a19.57,19.57,0,0,0,2,1l1.54,1.86a.91.91,0,0,0,.51,1,32.89,32.89,0,0,0,3.76,1,6.75,6.75,0,0,1,1.2,1.19,9.2,9.2,0,0,0,1.37,1.37l-.17.85-3.24.17-1.88-.17-2.39-.34-1.37-.17-1.54.68,2.9,2.39s-.34-.85.68.17a15.6,15.6,0,0,0,2.9,2l.68.85-.34.85-2.56.51a4.38,4.38,0,0,0-1.54-.68c-.51,0-6.66-.34-6.66-.34l-1.88-.85-1.2,2.9-1.54.34-1,1.54s-.51.85-1,.85-5.12-.34-5.12-.34l-1.2.68-1.71.17a17,17,0,0,1,3.42.68,12.5,12.5,0,0,0,2.73.68l1.54.68,1.2,2,4.78,1.37.85.85,1.71-1.37s.34-.85,1-.85,2.73-.26,2.73-.26a1.34,1.34,0,0,1,1-.43h3.31l-2.45,1-.51.72-3.24.27.68.82a4.12,4.12,0,0,1,2,.5,18.24,18.24,0,0,1,1.88,1.58,19.64,19.64,0,0,1,1.54,2.09l55.46-.72Z"/><path d="M323,606.2l-.5-.87-64.82,3.38-.69,1.63v1.63l.57.63-.6,1.5,0,2.25v1.63l-.18,2.38.41,2,1.2-.5s.79-1.12,1-1.5a17.49,17.49,0,0,0,.77-2.5s.13-1.12.26-1.62.38-2.12.38-2.12l.38-2.25.5-1.12.25.5,1.25-.12,1.38-.62v3.5l.37,1.75v3.25l-.31,2.13-.22,2-.3,3.38-.59,2,.27,3.13.38,2.63.63,1.63,1,2.63,1.75,1.63.88,2.25-.5,2,.13,2.13.13,3.5s-.5,3-.12,3.13.88,1,.88,1l1,2.5-1.37,3,1.25,2.13,1.13,2.38,1.63,2.88,1.63,2.75L276,679.77l-.21,4.17,1.33,6.83-.5,12.17,1.27,12.33,3.1,8.67v9.5l-1.27,9.33,3.78-2.17,1.31-1.83,1.45.14.52,3.05.33,6.14-.83,4-1.33,7.5,2.5,7.83-1,4.17,5.5.17.5-117.5,19-.83L314,649.2l-.47-1.69-.16-1.94-.12-1.87-.12-1.37a6.61,6.61,0,0,1,1-1.75c.38-.25.75-1.62.75-1.62l-.41-1.25,1-.5-.49,1.63v3.13l-.25,1.38.25,2.25v2.38l1.64,1.05h1.5l.38-1.15-.25-1.26.38-1.19.5-.91-.69-1.27-.44-1.39v-1.87l-.18-2.25-.59-3.5-.3-2.87.29-2.87,1.39-2.5s1,.63,1.51.5,1.13-1.62,1.13-1.62l-.37-3.12-.25-2.25-.25-1.5.63-1.62.5-.75.88-2.87-.12,1.88.88-2,.75-1.87-.62-3.25Z"/><path d="M121.32,604.95l-32.19-7-.83,198.18,96.05-4.63.52-1.27L183.68,788,183,786.7v-2.75l-.43-3.25.22-3-.78-2v-1.75l1-1.25,1-3.5v-2.25l.57-3.75,2.91,2,1.83.25,1-2.5-.73-3.25-1.74-2.5,1.25-2.75,1.5,1.25,1.25-.5.75-2.25-1-1.25-.5-2.75.5-2.25.75-3,.5-3.25-1-1-.5-3.75-.25-3.5.25-2.25,2.5.5.75,2-1.25,3.5.5,3.25.5,2.75.5,2.5,1.25,1.25,1,1,1.75-.5,2.25-.5,1-.75-.75-3.5-1-3.5-.5-3.25-.75-3.75-1.5-4-1.25-7.5.43-3.25.18-3.5v-3.75l-.43-4.5-1.34-3.75-.86-3.75.64-2.75v-3.25l3.82-2.25,1.16-3,.58-3.5-.71-5,.27-4-1-2.5-.25-4,1.75-3.5.25,2.25-.25,3.5.75,3a39.23,39.23,0,0,1,.75,4c0,.75.25,3.25.25,3.25l2-1.5L204,600.45Z"/><polygon points="833.17 568.54 832.82 564.88 811.17 566.06 812 569.85 833.17 568.54"/><polygon points="802.78 570.2 801.83 566.77 781.85 567.84 783.38 571.62 802.78 570.2"/><polygon points="772.98 571.98 771.56 568.31 753.23 569.37 755.36 573.28 772.98 571.98"/><polygon points="743.77 573.87 741.52 569.96 725.08 571.03 727.68 574.58 743.77 573.87"/><polygon points="714.32 575.05 711.96 571.86 697.41 572.57 700.25 576 714.32 575.05"/><polygon points="686.06 576.71 682.86 573.28 669.97 573.75 673.28 577.41 686.06 576.71"/><polygon points="657.56 578.24 654.36 575.17 643.6 575.4 647.27 578.83 657.56 578.24"/><polygon points="630 579.42 626.81 576.35 616.99 576.82 620.9 580.13 630 579.42"/><polygon points="602.8 581.2 599.49 578.01 590.98 578.48 595.59 581.44 602.8 581.2"/><polygon points="576.9 582.62 572.17 579.42 565.55 579.78 570.52 583.09 576.9 582.62"/><polygon points="550.77 584.15 545.68 580.84 540.48 581.2 545.57 584.27 550.77 584.15"/><polygon points="525.7 585.81 519.31 582.38 515.64 582.62 521.56 585.69 525.7 585.81"/><rect class="cls-1" width="1440" height="956"/></svg>