<svg id="Layer_1" data-name="Layer 1" xmlns="http://www.w3.org/2000/svg" viewBox="0 0 1440 956"><defs><style>.cls-1{fill:none;}</style></defs><title>Ngoai-that-04-B</title><polygon points="1253.48 786 1251.9 787.5 1224.63 786.5 1224.99 815.33 1221.17 818.16 1184.02 816.5 1184.19 813.33 1182.19 813.66 1177.36 817.66 1178.02 920.16 1227.44 923.16 1231.23 916.83 1230.88 865.66 1255.45 866.66 1257.86 863 1258.23 786 1253.48 786"/><polygon points="566 790.25 566 791 551.81 792.62 528 791.62 528 791 521 792.5 521 874 552.93 876.37 572.14 872 572.11 791 566 790.25"/><polygon points="527 553 1227.25 514.75 1253 554.62 1253 544 1221.25 493 527 536 527 553"/><polygon points="1133.69 414.33 1134.02 407.33 1137.02 408 1137.19 400.5 996.86 201.16 150.19 338 150.36 346.83 155.19 348.66 155.52 355.16 993.02 226 1133.69 414.33"/><rect class="cls-1" width="1440" height="956"/></svg>