<svg id="Layer_1" data-name="Layer 1" xmlns="http://www.w3.org/2000/svg" viewBox="0 0 1440 956"><defs><style>.cls-1{fill:none;}</style></defs><title>Ngoai-that-04-C</title><path d="M1258.13,545.33l.1-7.83-31.39-57.83L1090,489V411.75L965.55,270,672.89,311.38l-.59,204.56L541,524.54l-.21-203.86L526,313,298.35,347,299,798.16l10.61.33,40-3.92-.72-159.67L511,631V807.5l9.51.92.13-15.92,7.19-1.5.3-227.67,698-36.83L1258,571.25l.07-8.5-31.42-48L526,553V536l694.17-43,32.46,51,0,1.69ZM512.36,567.25,349.61,575.5l.25-158.5,163-18.5ZM895.52,501.5,697.11,514.12,697,375.83,895.19,352.5Zm133.57-9.33L988,495.5V366.66l41.21,38.5ZM1082,489l-27.24,1.58-.88-62.42L1082,453Z"/><path d="M670,586V808.33l294.93,12.39,126.13-42.19.23-164-127-40.17ZM895.36,799.83l-198.17-7-.33-166.67,198.67-4.67ZM1054,637.16l27.39,5.83-.92,99.17L1054,747Zm-66-13.33,41.43,8.33L1029,752.33,988,760Z"/><polygon points="1062.87 577.49 1091.91 589.72 1091.86 577.09 1062.87 577.49"/><rect class="cls-1" width="1440" height="956"/></svg>