<svg xmlns="http://www.w3.org/2000/svg" viewBox="0 0 1440 956.66"><defs><style>.cls-1{fill:none;}</style></defs><title>01_Solid</title><g id="Layer_2" data-name="Layer 2"><g id="Layer_1-2" data-name="Layer 1"><path d="M97.44,749.34.51,791.55V955.32l1431-.39L1183.89,783.67H527.58l-2,3h-9.09V749.34H452.86v8.08s-3,1-5.05,0l-1-8.08h-8.08l1,30.29a7.26,7.26,0,0,1-7.06,0c0-2-2-30.29-2-30.29H381.17v8.08s-4,1-6.06,0v-8.08H349.87l-5.05,30.29s-2,1-6.06,0c0-1,3-30.29,3-30.29H276.16l1,8.08s-4,1-6.06,0c0-1-1-8.08-1-8.08H249.91v30.29a13.74,13.74,0,0,1-7.07,0c0-3-1-30.29-1-30.29H205.48v8.08s-4,1-7.07,0v-8.08H161.05L156,779.63s-4,2-7.06,0l3-30.29Z"/><rect class="cls-1" width="1440" height="956.66"/></g></g></svg>