<svg xmlns="http://www.w3.org/2000/svg" viewBox="0 0 1440 956"><defs><style>.cls-1{fill:none;}</style></defs><title>01_Solid</title><g id="Layer_2" data-name="Layer 2"><g id="Layer_1-2" data-name="Layer 1"><rect class="cls-1" width="1440" height="956"/><path d="M1200.34,504,956.6,413.13l-197.36,84.1c-11.66,8,2.47,10.2,2.47,10.2H1192C1204.77,508.19,1200.34,504,1200.34,504Z"/><path d="M113.11,472.72H266V435.51c-1.64-17.11,2.57-23.23,2.57-23.23v-5.69h0L100.77,464.7C99.07,472.7,113.11,472.72,113.11,472.72Z"/><path d="M865.51,382.79l-27.12,22.85h2.81l31.48-25.87L615.24,268,328.51,377.13l5.2,6.89-56.32,19.51v8.68c4.78,9.9,2.7,23.13,2.7,23.13v37.38H602.34c1.73.19,22.17,5.28,22.17,5.28v-4.28L434,382.79Z"/></g></g></svg>